<svg id="Correndo_2" data-name="Correndo 2" xmlns="http://www.w3.org/2000/svg" width="1920" height="1386" viewBox="0 0 1920 1386">
  <g>
    <path d="M1234.8356,644.1923c.3385,2.98,7.4464,5.2137,10.2884,6.173a35.6649,35.6649,0,0,0,10.2885,2.0577c1.6669,0,5.7281.5443,7.3037,0a70.9811,70.9811,0,0,1,8.05-2.0577c1.108,0,4.6851.9272,6.2409,2.6135a58.5979,58.5979,0,0,0,7.2132,5.6173c1.3652.8847,4.55,4.0143,6.1731,4.1154,2.618.163,8.0478-.694,10.2885-2.0577,2.8137-1.7125,10.2284-11.6211,10.2884-12.3461.365-4.41-10.2884-14.4039-10.2884-14.4039l-52.0077-3.04S1234.2935,639.42,1234.8356,644.1923Z" fill="#2d2a21"/>
    <polygon points="1066.105 640.077 1111.374 613.327 1138.124 637.861 1083.517 668.794 1066.105 640.077" fill="#2d2a21"/>
    <path d="M1125.7779,633.9038s11.9724,11.2812,16.4615,14.4039c2.8979,2.0158,9.016,5.7721,12.414,6.7288,6.9255,1.95,21.5459,1.6128,28.74,1.5019a164.8734,164.8734,0,0,0,18.0438-1.5019c4.8261-.7892,14.2327-3.5586,18.9946-4.6712,7.8171-1.8263,23.3949-5.8736,31.3511-6.9418,6.5155-.8749,19.9538.5537,26.2643-1.2889,3.9812-1.1625,13.4174-4.2024,14.4039-8.2308,2.0364-8.316-18.5193-28.8077-18.5193-28.8077Z" fill="#d2cfda"/>
    <path d="M1203.97,514.5576s18.4739,7.8279,24.6923,10.2885c12.2608,4.8514,37.0155,13.9512,49.3846,18.5192,5.6483,2.086,16.7048,7.1861,22.6347,8.2308,3.062.5394,9.3274,0,12.4366,0,1.628,0,4.98.55,6.5122,0,2.5638-.9195,6.4824-5.0012,8.4117-6.9238.9035-.9,2.2065-3.2029,3.2561-3.9276.949-.6553,3.4258-2.1652,4.3641-1.4948,2.7827,1.9883.6084,10.3148,0,13.68-.5227,2.8921-2.3544,8.659-4.1154,11.012-1.5411,2.0593-5.8762,5.1377-8.2307,6.1731-1.8058.7942-6.4436-.02-7.7559,1.4525-1.13,1.2683-.5557,5.0815-.4749,6.7783a85.4749,85.4749,0,0,0,2.0577,12.3461c.3921,1.5788,1.1472,4.8251,2.0577,6.1731,7.5576,11.19,35.4862,22.7248,41.1539,34.9808.66,1.4264,2.3137,4.7356,2.0576,6.2861-.2607,1.5786-3.27,6.7591-4.1153,8.1178-1.5368,2.4711-5.6985,6.797-8.2308,8.2307-1.8457,1.0451-6.1409.362-8.2308,0-5.4827-.95-13.1936-10.7337-18.5192-12.3461a15.2775,15.2775,0,0,0-4.1154,0c-3.6284.2578-10.7985,1.5748-14.4039,2.0577-4.1107.55-14.4523.8133-18.5192,0s-8.916-3.8418-12.3462-6.1731c-2.7242-1.8516-8.0728-5.7934-10.2884-8.2308-1.0555-1.1611-2.6276-3.6165-4.1154-4.1154-2.2434-.7522-5.9417,1.459-8.2308,2.0577-3.8715,1.0126-11.8315,2.0357-15.7832,2.6666-5.82.9293-17.4356,3.067-23.3129,3.5065-10.7728.8056-32.5035,1.4277-43.2116,0-7.1546-.9539-27.8631-7.5645-27.8631-7.5645Z" fill="#454136"/>
    <polygon points="1212.201 627.731 1162.816 693.577 1138.124 675.058 1181.336 617.442 1212.201 627.731" fill="#454136"/>
    <path d="M1193.6817,506.3268c2.0577,0,10.2885,6.1731,12.3462,8.2308s8.2308,20.243,8.2308,26.75c0,8.2308-.71,30.559-1.6492,34.2674-1.1443,4.5158-7.8155,21.0592-12.7547,27.4634-4.1345,5.3608-13.077,14.4926-18.5192,18.5192-5.0944,3.7694-18.7366,10.1808-24.6923,12.3462-4.8477,1.7625-20.577,2.0577-22.7336,2.8367-2.1895.7909-24.1627-5.5191-25.71-7.2584-.8115-.9124,2.0577-4.8842,2.0577-4.8842s31.3025-2.0072,35.3878-3.3466c3.7781-1.2387,13.03-4.7342,16.4616-6.7421,4.3675-2.5555,12.836-8.2471,16.4615-11.7772,4.4744-4.3566,7.8122-10.41,10.9563-15.8058,1.7484-3,4.7091-9.373,5.5053-12.7531,2.14-9.0873.7625-27.9824,0-37.2872-.3874-4.7269-1.1189-13.87-2.0577-18.5193C1191.8338,512.729,1190.7717,506.3268,1193.6817,506.3268Z" fill="#c00"/>
    <g>
      <path d="M1001.4724,535.5231c-2.2454,7.3895-3.4512,22.9714-3.4912,30.6944-.0249,4.7881.25,14.5813,1.9669,19.0512,1.5648,4.0749,7.2344,10.989,10.2923,14.104,5.3208,5.42,17.6956,14.4483,24.2059,18.3606a77.0321,77.0321,0,0,0,13.5959,6.2895c11.857,3.4146,36.63,5.68,48.955,6.2756a204.6712,204.6712,0,0,0,24.0642-.7432c6.7979-.7426,20.4482-2.7494,26.8775-5.079,5.9475-2.1551,17.1795-8.3467,22.1022-12.32,5.6914-4.5935,15.7464-15.5882,19.3171-21.9712,3.0837-5.5123,6.2749-17.9366,7.4391-24.1445a167.7662,167.7662,0,0,0,1.9146-26.5954c-.11-4.0242-1.4874-11.9852-2.03-15.974-.5646-4.1479-1.0849-12.5983-2.4055-16.5707-1.1833-3.5594-4.632-10.4154-7.1634-13.1834-8.028-8.7783-39.6184-26.3529-39.6184-26.3529s-13.225-5.0481-17.8784-5.54c-2.1093-.2228-6.33.8314-8.45.7625a63.477,63.477,0,0,1-10.1652-1.5882,87.7624,87.7624,0,0,1-10.3167-3.6945c-2.8728-1.27-8.0232-5.2362-11.0937-5.8986-4.636-1-14.2212.662-18.9325,1.2072-4.8479.5611-19.25,3.24-19.25,3.24l-13.4687,6.2262c-3.3672,1.5566-10.4815,4.0269-13.4688,6.2263a36.1144,36.1144,0,0,0-13.6592,20.7751,58.2544,58.2544,0,0,0-1.5882,10.1651,35.4641,35.4641,0,0,0,.7625,8.45c.7337,2.4653,4.4016,6.5486,4.8285,9.085a7.985,7.985,0,0,1-.6353,4.0661c-.7576,1.2422-3.6162,2.4614-4.7013,3.4308a42.8574,42.8574,0,0,0-5.019,5.4638A27.77,27.77,0,0,0,1001.4724,535.5231Z" fill="#fff"/>
      <path d="M1037.24,546.5355s-2.2961,12.2237-2.5551,16.3536c-.1753,2.7951.3331,11.1976.3331,11.1976s-9.2466-.9283-12.3412-.99c-1.7476-.0347-5.2389.2264-6.9859.2817-1.9156.0606-10.6064,1.1746-10.3325,3.9241.1534,1.54,7.4675,2.1566,10.0883,2.08,3.6542-.1072,15.0394.1173,18.6866.3668a37.1679,37.1679,0,0,1,6.0768.95c4.0973,1.222,10.0754,2.7218,13.8677,4.6966,2.457,1.2795,12.8729,7.3255,15.3113,8.64,4.7375,2.5543,13.5714,6.4459,13.5714,6.4459s9.9365,3.0519,10.19,1.4318c.3177-2.033-7.7872-6.3645-11.8249-8.5427-3.6526-1.9705-20.5457-11.48-24.3627-13.1088-3.37-1.4385-13.8123-4.9044-13.8123-4.9044s-2.0626-10.0649-2.16-12.8334c-.0906-2.5706,1.0869-7.6424,1.5883-10.1652.241-1.2128,1.163-4.8075,1.163-4.8075Z"/>
      <path d="M1088.8287,509.6012c-.6353,4.0661-6.5368,27.9666-5.0823,32.5285.3687,1.1563.4962,6.9593,6.589,15.77,5.403,7.8129,17.5582,14.9947,24.6056,24.5092,6.0288,8.1393,9.0767,20.6259,14.4856,27.2551,8.168,10.011,16.5694,15.5164,18.5123,14.8124,5.9475-2.1551,17.1795-8.3467,22.1022-12.32,5.6914-4.5935,15.7464-15.5882,19.3171-21.9712,3.0837-5.5123,6.2749-17.9366,7.4391-24.1445a167.7662,167.7662,0,0,0,1.9146-26.5954c-.11-4.0242-1.4874-11.9852-2.03-15.974-.5646-4.1479-1.0849-12.5983-2.4055-16.5707-1.1833-3.5594-4.632-10.4154-7.1634-13.1834-8.028-8.7783-39.6184-26.3529-39.6184-26.3529a97.7436,97.7436,0,0,0-12.0969-2.5537c-2.1093-.2228-23.1891,15.1208-25.54,16.8362C1107.32,483.4985,1089.464,505.5352,1088.8287,509.6012Z" fill="#454136"/>
      <path d="M1033.8736,528.09s22.5538-11.0548,22.8714-13.0879,6.48-28.1447,6.7977-30.1777c.2772-1.7739,4.9272-9.6719,11.4836-17.1664,7.1411-8.1629,16.165-15.9064,14.5642-16.2517-4.636-1-14.2212.662-18.9325,1.2072-4.8479.5611-19.25,3.24-19.25,3.24l-13.4687,6.2262c-3.3672,1.5566-10.4815,4.0269-13.4688,6.2263a36.1144,36.1144,0,0,0-13.6592,20.7751,58.2544,58.2544,0,0,0-1.5882,10.1651,35.4641,35.4641,0,0,0,.7625,8.45c.7337,2.4653,4.4016,6.5486,4.8285,9.085a7.985,7.985,0,0,1-.6353,4.0661c-.7576,1.2422-3.6162,2.4614-4.7013,3.4308a42.8574,42.8574,0,0,0-5.019,5.4638C1003.5266,531.0752,1031.523,529.8049,1033.8736,528.09Z" fill="#454136"/>
      <ellipse cx="1128.2823" cy="530.3441" rx="28.8077" ry="31.8942" transform="translate(430.1249 1563.2342) rotate(-81.1199)" fill="#fff"/>
      <ellipse cx="1121.1667" cy="529.2323" rx="20.5769" ry="18.5192" transform="translate(425.2061 1555.2637) rotate(-81.1199)"/>
      <ellipse cx="1115.8617" cy="523.1968" rx="9.2596" ry="6.1731" transform="translate(185.5896 1331.5755) rotate(-66.1103)" fill="#fff"/>
      <ellipse cx="1033.7781" cy="502.0414" rx="19.5481" ry="20.5769" transform="translate(378.1725 1445.9291) rotate(-81.1199)" fill="#fff"/>
      <ellipse cx="1031.5862" cy="502.7403" rx="14.4039" ry="12.3462" transform="translate(375.6285 1444.3546) rotate(-81.1199)"/>
      <ellipse cx="1042.927" cy="536.7934" rx="13.375" ry="20.5769" transform="matrix(0.1544, -0.988, 0.988, 0.1544, 351.5737, 1484.3558)"/>
      <ellipse cx="1027.0265" cy="500.8237" rx="8.3887" ry="5.0894" transform="translate(153.187 1237.0387) rotate(-66.1103)" fill="#fff"/>
      <ellipse cx="1033.0106" cy="530.8009" rx="8.2036" ry="4.4873" transform="translate(-127.5594 574.8202) rotate(-29.368)" fill="#fff"/>
      <path d="M1186.4773,497.7834a23.18,23.18,0,0,1,2.6683-3.7485c1.4275-1.1843,5.4768-1.75,6.7344-3.1131,1.7785-1.928,2.9629-7.3084,3.6212-9.8475.7757-2.9918,2.147-9.1332,1.9085-12.2147-.1773-2.29-2.016-6.5913-2.7981-8.7509-3.0641-8.461-10.1027-25.0347-13.5326-33.3542-2.993-7.26-7.9051-22.3548-12.1349-28.9705-1.7744-2.7751-5.9919-8.1632-8.8946-9.72-2.0823-1.117-7.1678-2.3925-9.3385-1.459-2.6224,1.1276-5.1023,6.9011-6.4809,9.4007-2.2821,4.1376-5.4155,13.1054-7.4384,17.3757-1.8824,3.9736-10.7286,20.6034-11.2714,22.3955-1.4169,4.6771-.9846,19.6314-.9846,19.6314-.3176,2.033.614,10.7146,2.16,12.8335,1.7154,2.3506,7.7266,14.9746,11.69,18.4877C1152.4248,495.6271,1186.4773,497.7834,1186.4773,497.7834Z" fill="#454136"/>
      <path d="M1139.5905,477.9618a20.8077,20.8077,0,0,0,5.4638,5.019c2.6973,1.5861,8.9063,2.9665,11.88,3.9388,4.4277,1.4476,13.3436,5.3471,17.98,4.8918a14.1141,14.1141,0,0,0,6.3742-3.1694c1.5013-1.5319,3.1808-5.6683,3.6638-7.7582.8191-3.544.7261-10.9509.1905-14.5488-.6776-4.551-4.0722-13.1916-5.591-17.5348-1.3691-3.9149-4.38-11.6465-5.9087-15.5018-.9168-2.3119-2.9282-6.865-3.7911-9.1976-.9761-2.638-2.3024-8.15-3.5152-10.6878-.7287-1.5248-2.2524-4.7566-3.67-5.677-1.564-1.0157-5.7331-2.0447-7.37-1.1516-6.4276,3.5065-9.7965,19.7531-11.8621,26.7775-2.684,9.1276-6.48,28.1051-5.8746,37.6A20.1488,20.1488,0,0,0,1139.5905,477.9618Z" fill="#d47c7b"/>
      <path d="M1139.5905,477.9618a20.8077,20.8077,0,0,0,5.4638,5.019c2.6973,1.5861,8.9063,2.9665,11.88,3.9388,4.4277,1.4476,13.3436,5.3471,17.98,4.8918a14.1141,14.1141,0,0,0,6.3742-3.1694c1.5013-1.5319-1.6745-11.5785-4.56-12.5757-3.34-1.1544-20.8168-9.0675-29.5078-9.9358-5.6229-.5618-9.8347,2.1073-9.6611,4.8313A20.1488,20.1488,0,0,0,1139.5905,477.9618Z" fill="#a74844"/>
      <path d="M1085.2068,452.8036s4.2062-.2612,4.3837-1.3977c.3552-2.273-3.4906-9.0562-4.5109-11.1181-1.7479-3.5325-6.7241-9.7266-9.0356-12.9189-3.6626-5.0582-10.92-15.2451-14.98-19.99-3.3442-3.9089-9.006-10.4916-12.3253-14.4216-1.4083-1.6674-5.3159-6.2332-7.1792-7.37-1.9063-1.1627-6.6813-2.0047-8.8247-1.3788a8.5266,8.5266,0,0,0-4.0088,3.539c-3.3036,7.8145-7.6234,48.7927-7.8991,50.5576-.4374,2.7994,1.2715,8.4855,2.436,11.0686a58.8639,58.8639,0,0,0,4.8285,9.085c1.2865,1.763,5.1235,6.6364,7.1792,7.37C1047.4225,470.1626,1085.2068,452.8036,1085.2068,452.8036Z" fill="#454136"/>
      <path d="M1037.9391,462.08c3.5158,1.1832,10.095-4.6838,13.4687-6.2262,2.911-1.331,13.7931-3.4795,16.99-3.6328,1.7069-.0818,3.48-3.8033,3.2129-5.7066-.485-3.4519-3.5693-9.8547-5.1871-12.9424-2.3175-4.4233-8.324-12.4562-11.0138-16.6634-2.5547-3.9959-6.9531-12.4814-9.9747-16.1371-1.1817-1.43-3.6313-4.7326-5.4638-5.0189s-5.7805,1.5224-6.7344,3.1131c-1.2551,2.0929-.666,15.4376-.7105,17.8776-.1541,8.4317-2.4483,17.0365-1.8939,25.4513a51.0647,51.0647,0,0,0,2.4779,10.8C1034.0095,455.4046,1035.5013,461.2593,1037.9391,462.08Z" fill="#d47c7b"/>
      <path d="M1037.9391,462.08c3.5158,1.1832,10.095-4.6838,13.4687-6.2262,2.911-1.331,13.7931-3.4795,16.99-3.6328,1.7069-.0818,3.48-3.8033,3.2129-5.7066-.2492-1.7738-11.7444-7.1155-21.68-5.2988-9.4,1.7186-17.2906,10.5176-16.82,11.7794C1034.0095,455.4046,1035.5013,461.2593,1037.9391,462.08Z" fill="#a74844"/>
    </g>
    <ellipse cx="1191.624" cy="761.4808" rx="115.2308" ry="18.5192" fill="#343031" opacity="0.5"/>
    <path d="M1362.3153,636.8087s7.9527,5.3271,10.3857,7.3836c2.2225,1.8785,6.5367,5.8647,8.2308,8.2307a33.9722,33.9722,0,0,1,4.3641,8.8669c1.2711,5.4611,1.5962,17.0531,0,22.4282-.8374,2.82-3.8358,8.457-6.4218,9.8588-2.7036,1.4655-11.3942.818-14.3586,0-2.9009-.8005-6.1461-4.0473-8.276-6.1731a31.63,31.63,0,0,1-6.1731-10.2884c-.6459-2.3317,0-7.2585,0-9.678,0-1.5369.6543-4.7569,0-6.1475-1.1371-2.4164-8.2308-6.8092-8.2308-6.8092Z" fill="#fffeff"/>
    <path d="M1138.124,675.0577s-6.65,10.642-10.2885,12.3461c-.9317.4364-3.0865,0-4.1153,0-2.51,0-7.6936-.8916-10.04,0-1.7584.6683-4.2971,3.665-5.6252,4.9973-.7612.7636-2.4728,2.2249-2.8543,3.2335-1.0639,2.8129-.9745,9.1845,0,12.03,1.0876,3.175,5.6966,8.4048,8.2308,10.605,3.1318,2.719,10.3954,7.1663,14.4038,8.2308,2.8247.75,9.0451,1.2425,11.6905,0,2.42-1.1367,5.2314-6.0867,6.8288-8.2308,4.4324-5.95,16.4615-24.6923,16.4615-24.6923Z" fill="#fffeff"/>
    <path d="M1290.3933,662.7115s3.5868,5.9917,4.1154,8.2308c.6559,2.7784-.42,8.5954,0,11.419.4315,2.899,1.7312,8.8162,3.4144,11.2156,1.9712,2.81,7.7327,7.1464,10.9894,8.2308,3.1216,1.0393,10.1747,1.3825,13.16,0,2.1888-1.0136,5.41-5.0935,6.2409-7.3579,1.2282-3.3466,2.0577-10.6944,2.0577-14.2592a58.9592,58.9592,0,0,0-2.0577-12.7532c-.958-3.12-5.1337-8.3878-7.3263-10.8054-2.1874-2.4119-10.0171-8.3243-10.0171-8.3243Z" fill="#d2cfda"/>
    <path d="M1066.1048,640.0769s7.9221,9.6842,10.0845,13.2386c2.2252,3.6576,7.3273,15.4786,7.3273,15.4786s-13.4858,6.9038-17.4118,10.04c-1.1847.9462-4.7841,3.8467-6.1731,4.4545-2.7345,1.1966-7.0392.9113-9.8815,0-2.5275-.81-6.6926-4.3672-8.6378-6.173-2.9444-2.7336-8.7772-8.6235-10.2884-12.3462-.9179-2.2611-1.0291-7.3088-.7462-9.7327.2673-2.29,1.3044-7.035,2.8039-8.7865,1.4961-1.7477,5.9591-3.7516,8.2307-4.1154,1.9569-.3135,5.941.5959,7.8428,1.1532,1.7271.506,4.7644,3.0668,6.5611,2.9622C1058.8108,646.0756,1066.1048,640.0769,1066.1048,640.0769Z" fill="#d2cfda"/>
  </g>
</svg>
