<svg id="Correndo_1" data-name="Correndo 1" xmlns="http://www.w3.org/2000/svg" width="2048" height="1502" viewBox="0 0 2048 1502">
  <g>
    <ellipse cx="1518.002" cy="724.785" rx="119.3957" ry="14.1656" fill="#343031" opacity="0.5"/>
    <path d="M1453.344,652.4231c-12.7,28.1127-22.526,49.4505-30.6206,49.4505-2.8148,0-16.749-3.7029-18.2129-8.0946-2.0237-6.071,4.1057-10.2351,6.071-14.1656,2.0236-4.0473,7.7549-21.8558,12.1419-36.4258,8.8939-29.5382,17.3383-47.221,26.3075-44.52,3.9543,1.1906,12.08,1.3284,20.2366,4.0473C1475.3385,604.7381,1461.1729,635.093,1453.344,652.4231Z" fill="#212322"/>
    <path d="M1592.826,616.8558c-.6343-8.3478-32.3707-12.7428-70.8854-9.8166s-69.2229,12.0656-68.5886,20.4134,42.3246,11.2177,80.8393,8.2915c7.5882-.5765,15.1232,5.8045,24.2838,8.0946,8.0947,2.0237,16.1893,2.0237,22.26,4.0473,5.43,1.81-2.0236,16.1893,6.071,20.2366,7.6944,3.8472,22.5093-12.9,22.26-18.2129C1608.8563,645.4256,1592.9676,618.72,1592.826,616.8558Z" fill="#212322"/>
    <path d="M1639.4214,585.1527c0,19.5586-56.6624,32.3785-105.23,38.45-49.9052,6.2381-89.0409,3.3693-89.0409-16.1893s52.9129-64.757,103.2065-64.757S1639.4214,565.5941,1639.4214,585.1527Z" fill="#343031"/>
    <path d="M1643.4687,647.886c-8.6228,11.6939-36.2963,9.4585-56.086-5.1338s-31.4593-31.74-22.8366-43.4339,62.7333-32.3785,70.828-22.26C1648.8123,593.8559,1652.0914,636.1921,1643.4687,647.886Z" fill="#343031"/>
    <path d="M1590.8536,664.0753c-6.0709,6.0709-8.0946,18.2129-6.0709,28.3312,1.4561,7.28,14.1656,10.1182,20.2365,6.0709,5.58-3.72,15.3785-17.4021,22.26-24.2838,10.1183-10.1183,18.2129-22.6915,18.2129-30.3549,0-13.4116-13.8034-5.8111-28.3311,0C1607.0429,647.886,1595.3787,659.55,1590.8536,664.0753Z" fill="#343031"/>
    <path d="M1498.0312,671.2871c-12.7,28.1127-20.5023,49.4505-28.5969,49.4505-2.8148,0-20.7963-3.7029-22.26-8.0946-2.0237-6.0709,4.1057-10.2351,6.0709-14.1656,2.0237-4.0473,3.7076-21.8558,8.0946-36.4258,8.894-29.5382,11.2674-47.221,20.2366-44.52,3.9543,1.1906,24.2219,1.3285,32.3785,4.0473C1520.0257,623.6022,1505.86,653.957,1498.0312,671.2871Z" fill="#343031"/>
    <path d="M1485.6235,698.4774s-8.0946,22.26-16.1892,22.26c-2.8148,0-20.7963-3.7029-22.26-8.0946-2.0237-6.0709,4.1057-10.2351,6.0709-14.1656a20.1653,20.1653,0,0,0,2.0237-8.0946s10.2234,7.0477,14.1656,8.0946C1473.346,699.5162,1485.6235,698.4774,1485.6235,698.4774Z" fill="#fffffd"/>
    <path d="M1439.0794,682.2882c-2.0236,4.0473-8.2614,19.5854-16.356,19.5854-2.8148,0-16.749-3.7029-18.2129-8.0946-2.0237-6.071,4.1057-10.2351,6.071-14.1656a20.333,20.333,0,0,0,2.19-5.42c1.0105-3.0316,5.599,3.747,12.1419,6.0709C1431.4737,682.5944,1439.9856,680.4758,1439.0794,682.2882Z" fill="#d2cfda"/>
    <path d="M1439.0794,599.3183s3.4731,7.4237,7.69,8.0946c9.5746,1.5233,28.5747-7.0586,36.83-12.1419,7.92-4.8769,21.7708-18.1878,26.3075-26.3076,2.9072-5.2033,7.9841-20.2365,2.0236-20.2365h-8.0946Z" fill="#212322"/>
    <path d="M1584.7827,676.2172c0,4.0473-2.0237,6.071,0,16.1893,1.4561,7.28,14.1656,10.1182,20.2365,6.0709,5.58-3.72,16.1893-16.1892,16.1893-18.2129,0-.9391-12.142,2.0237-16.1893,2.0237S1584.7827,675.1327,1584.7827,676.2172Z" fill="#fffffd"/>
    <path d="M1704.1784,512.3011c2.3173,1.1334,4.9177,7.69,4.0473,10.1183-2.8,7.8109-16.0647,20.7879-22.26,26.3075a44.2815,44.2815,0,0,1-10.1183,6.071,67.0527,67.0527,0,0,1-16.1893,4.0473,112.3317,112.3317,0,0,0-12.1419,2.0236c-4.8,1.6-16.1893,10.1183-16.1893,10.1183l-14.1655-10.1183s12.0086-6.3629,16.1892-8.0946a106.2812,106.2812,0,0,1,12.1419-4.0473c3.4817-.8219,10.7-1.1375,14.1656-2.0237,4.1878-1.0708,12.8033-3.3841,16.1893-6.0709,2.8577-2.2678,5.9412-9.1971,8.0946-12.142,1.9121-2.6149,5.5754-10.1054,8.0946-12.1419C1694.6756,514.2148,1701.13,510.81,1704.1784,512.3011Z" fill="#212322"/>
    <g>
      <path d="M1451.2214,451.5914c2.0236-4.0473,25.5407-11.34,34.4021-14.1656,12.8613-4.1014,50.5914-14.1656,52.6151-12.1419s-8.0947,30.3548-10.1183,34.4021-10.522,22.8147-14.1656,30.3549c-1.4766,3.0557-4.5371,11.3335-8.0946,12.1419C1487.7069,506.3079,1442.896,468.242,1451.2214,451.5914Z" fill="#343031"/>
      <path d="M1362.1805,477.328c0-5.5,8.1648-23.8533,18.2129-43.9495C1388.488,417.1892,1406.7009,401,1408.7246,401s6.2195,13.2731,8.0946,24.2839c1.9778,11.6134,4.0683,23.6167,4.0683,23.6167S1362.1805,493.6349,1362.1805,477.328Z" fill="#212322"/>
      <path d="M1513.9547,522.4194c0,40.7936-41.753,80.9462-87.0172,80.9462-24.2267,0-58.1167,3.0507-72.8516-14.1656-12.7952-14.95-8.0946-48.8328-8.0946-67.7925,0-40.7936,36.6938-73.8634,81.958-73.8634S1513.9547,481.6257,1513.9547,522.4194Z" fill="#343031"/>
      <ellipse cx="1380.3934" cy="567.9516" rx="32.3785" ry="25.2957" fill="#fffffd"/>
      <path d="M1505.86,485.9936c6.0709-4.0474,22.26-44.5205,20.2365-46.5441s-52.615,16.1892-52.615,20.2365C1473.4816,464.2111,1502.095,488.5036,1505.86,485.9936Z" fill="#cc705b"/>
      <ellipse cx="1422.8902" cy="520.3957" rx="20.2366" ry="12.1419" transform="translate(815.0262 1908.1743) rotate(-86.4351)" fill="#0f6"/>
      <ellipse cx="1420.8875" cy="521.5279" rx="15.1774" ry="8.1226" transform="translate(812.018 1907.2373) rotate(-86.4351)" fill="#212322"/>
      <ellipse cx="1418.8429" cy="516.3484" rx="6.071" ry="4.0473" transform="translate(479.4827 1698.4369) rotate(-71.5248)" fill="#fffffd"/>
      <ellipse cx="1357.1842" cy="520.3996" rx="18.2406" ry="9.1517" transform="translate(753.4019 1842.5991) rotate(-86.4351)" fill="#0f6"/>
      <ellipse cx="1356.1432" cy="521.4309" rx="13.1071" ry="6.0314" transform="translate(751.3964 1842.5274) rotate(-86.4351)" fill="#212322"/>
      <ellipse cx="1354.5274" cy="518.0349" rx="5.3029" ry="3.5268" transform="translate(510.4782 1697.3083) rotate(-75.3365)" fill="#fffffd"/>
      <ellipse cx="1372.2988" cy="555.8097" rx="10.1183" ry="7.0828" fill="#cc705b"/>
      <rect x="1370.2751" y="562.8925" width="4.0473" height="10.1183" fill="#212322"/>
      <path d="M1372.2988,574.99c1.7985-.34,4.48,3.1868,6.0709,4.0918a20.3175,20.3175,0,0,0,4.0474,1.9125c2.3922.5367,7.475.7571,9.8069,0a15.9765,15.9765,0,0,0,4.1363-3.0021,19.7313,19.7313,0,0,0,2.5351-3.0022,16.7533,16.7533,0,0,0,1.7346-4.0028c.237-1.1432,1.0268-4.1145,0-4.67-1.0634-.5752-3.2744,1.7168-4.0473,2.6463-.7011.8432-1.0617,3.1488-1.69,4.0474-.8545,1.2219-2.9923,3.504-4.3809,4.0473-1.4134.5529-4.5728.2431-6.071,0a22,22,0,0,1-6.071-2.0237,32.1793,32.1793,0,0,1-4.0473-4.0473l-4.0473.2669a37.7368,37.7368,0,0,1-2.0236,3.78,7.2816,7.2816,0,0,1-2.0237,2.0237c-.9348.3872-3.1944.5444-4.0473,0-.79-.5046-1.3338-2.4973-1.5789-3.4024-.308-1.1374.6423-4.2376-.4448-4.6923-.8846-.37-2.6344,1.5267-2.9726,2.424-.507,1.345.949,5.6707.949,5.6707s2.7253,3.5,4.0473,4.0473c1.3611.5638,4.5884.6844,5.8931,0C1369.7192,580.2422,1370.4728,575.3346,1372.2988,574.99Z" fill="#212322"/>
      <path d="M1408.7246,558.8452s19.5028-7.0715,26.3075-8.0947c8.5489-1.2854,34.58,0,34.58,0s-1.454,2.0237-2.2016,2.0237c-4.0473,0-22.0264-.4568-29.9876.7339-7.3666,1.1017-28.6984,8.0056-28.6984,8.0056Z" fill="#fffffd"/>
      <path d="M1408.7246,569.9864s26.0625.9991,34.669,2.0236c6.9838.8315,28.0643,7.0717,28.0643,7.0717a8.8337,8.8337,0,0,1-1.8457.7116c-7.0184.52-20.63-4.616-27.62-5.44-8.2665-.975-33.268-1.3421-33.268-1.3421Z" fill="#fffffd"/>
      <path d="M1408.7246,577.0581s24.0443,5.1611,32.3785,8.0946c5.27,1.8552,22.1893,9.6368,22.1893,9.6368a22.2209,22.2209,0,0,1-3.9764.4815c-5.8828-.6767-17.5726-6.4055-22.26-8.0946-8.1917-2.9518-29.4876-7.3831-29.4876-7.3831Z" fill="#fffffd"/>
      <path d="M1356.1432,553.9083l-2.0573,2.9132s-9.1046-3.0412-12.142-4.0473c-3.0724-1.0177-9.1017-3.5349-12.2976-4.0473-7.0483-1.13-21.441-.6073-28.5535,0-2.9734.2539-11.7639,2.0236-11.7639,2.0236a13.8908,13.8908,0,0,1,2.0236-2.0236c2.2443-1.2721,7.0515-1.77,10.1183-2.0237,8.25-.6828,24.9217-1.2,33.1124,0,2.9973.4392,8.7372,2.51,11.6082,3.476C1348.7094,551.0269,1356.1432,553.9083,1356.1432,553.9083Z" fill="#fffffd"/>
      <path d="M1349.6605,566.2258s-16.3373-.5283-21.7487,0a135.28,135.28,0,0,0-19.08,3.7606c-4.5177,1.3458-17.4791,7.0717-17.4791,7.0717s3.0405.1,4.0474,0c3.6916-.3661,10.31-2.0651,14.4991-3.158,4.6168-1.2045,13.9509-3.28,18.68-3.9137,5.2331-.7017,21.0816-1.2676,21.0816-1.2676Z" fill="#fffffd"/>
      <path d="M1352.0622,575.0344s-17.3414,4.6112-22.26,6.071c-3.0674.91-9.1511,2.91-12.1419,4.0473-3.6014,1.3692-11.06,3.79-14.1656,6.071-1.6111,1.1833-5.2037,4.0473-5.2037,4.0473a27.2235,27.2235,0,0,0,4.67,0c3.4263-.7782,9.4595-4.6559,12.6756-6.071,2.83-1.2452,8.5692-3.5572,11.4748-4.6144,4.1658-1.5158,12.6039-4.2516,16.8564-5.5039,1.908-.5618,7.6943-2.0236,7.6943-2.0236Z" fill="#fffffd"/>
    </g>
  </g>
</svg>
