<svg id="Correndo_1" data-name="Correndo 1" xmlns="http://www.w3.org/2000/svg" width="1920" height="1386" viewBox="0 0 1920 1386">
  <g>
    <path d="M1726.6242,656.5384a16.6851,16.6851,0,0,0,4.1154,4.1154,38.0706,38.0706,0,0,0,10.2884,4.1154,61.6915,61.6915,0,0,0,17.6374,0c1.3254-.2622,3.8747-2.8095,4.9973-2.0577,3.0108,2.0163,0,12.3462,0,14.4943,0,2.8468,31.47,0,31.47,0v-28.22h-70.3857S1725.6668,654.8448,1726.6242,656.5384Z" fill="#2d2a21"/>
    <path d="M1763.6627,677.2058s-3.1061,16.384-2.0577,21.75a23.4923,23.4923,0,0,0,4.1154,7.9406c1.6853,1.9564,5.9118,5.3294,8.4116,6.1388,3.8587,1.2494,12.62,1.7167,16.2807,0,2.9959-1.405,7.0548-7.1023,8.2307-10.1091,2.3565-6.0254,1.4879-25.72,1.4879-25.72h-36.4686Z" fill="#d2cfda"/>
    <g>
      <polygon points="1607.527 648.986 1592.06 697.969 1621.682 707.981 1638.143 662.712 1607.527 648.986" fill="#2d2a21"/>
      <path d="M1592.06,697.9686l29.6218,10.0121s-1.8173,7.507-2.0784,10.0624c-.3828,3.7454-.3859,11.6862-2.0577,15.06a15.4065,15.4065,0,0,1-4.8635,5.2679c-2.7809,1.8457-8.3525,5.7885-11.5774,6.6486a35.7557,35.7557,0,0,1-13.4541,0c-3.105-.7966-8.8173-4.072-11.2382-6.1731-1.9425-1.6859-3.7781-5.6808-4.1154-8.2307-.3632-2.7464.31-8.1394,2.0577-10.2885a26.508,26.508,0,0,1,6.9645-5.983c1.2861-.687,6.4084-1.2168,7.4394-2.2478C1590.8165,710.0384,1592.06,697.9686,1592.06,697.9686Z" fill="#d2cfda"/>
    </g>
    <path d="M1627.2875,663.6386A142.5208,142.5208,0,0,0,1642.53,673c3.4175,1.7848,10.3585,5.3848,14.1325,6.173,5.838,1.2194,18.0206,1.2331,23.8557,0,6.0963-1.2882,17.0916-7.5694,22.7929-10.0832,4.7968-2.1149,14.2373-6.74,19.1976-8.436a189.7846,189.7846,0,0,1,24.6923-6.1731c9.1695-1.388,31.1255,5.0867,37.0385-2.0577,4.9634-5.997.901-24.9125-4.1154-30.8654-5.5568-6.5941-32.9231-10.2884-32.9231-10.2884l-82.3077,24.6923s-43.2847,8.3047-45.2692,20.5769C1619.2072,659.1167,1625.2068,662.06,1627.2875,663.6386Z" fill="#d2cfda"/>
    <ellipse cx="1667.9799" cy="761.4808" rx="122.4327" ry="18.5192" fill="#343031" opacity="0.5"/>
    <path d="M1691.6434,535.1345c4.1154,0,25.252,6.01,32.9231,8.2308,8.2833,2.3976,24.7169,7.6388,32.9231,10.2885,6.1922,1.9993,18.2693,7.1884,24.6923,8.2307,4.4752.7263,13.7465,1.139,18.1348,0,4.0955-1.0629,10.5863-4.5832,12.7306-8.2307.6518-1.1087,1.1483-4.2349,2.0577-5.1443.8394-.8394,3.9091-.8394,4.7485,0,2.3644,2.3644.9633,10.1731,0,13.375-.8884,2.9533-4.6294,8.1039-6.8062,10.2885-2.6184,2.6277-11.777,4.5651-12.3462,8.2308-.5053,3.2549,6.519,9.532,8.2308,12.3461a151.7579,151.7579,0,0,1,8.2308,16.4616c2.1543,5.1045,6.6986,15.2525,8.2308,20.5769,1.59,5.5272,1.5411,16.9065,2.0576,22.6346.2579,2.86-1.254,12.8453-2.0576,15.6023-1.6075,5.5148-6.1731,13.2054-8.2308,15.2631-2.91,2.91-28.8077-8.2307-28.8077-10.2884,0-2.77,1.9532-7.52,2.0577-10.2885.0646-1.7116,1.3194-5.4427,0-6.5349-2.793-2.3121-13.0984-2.3986-16.4616-3.7536-4.1917-1.6887-9.0377-5.7855-12.3461-8.8639-2.8534-2.655-6.4482-8.99-10.2885-9.6553-5.2186-.9038-13.5481,6.4035-18.5192,8.2308-7.386,2.7149-23.0346,5.3976-30.8654,6.1731-4.6073.4562-18.5193,0-18.5193,0S1684.2243,535.1345,1691.6434,535.1345Z" fill="#454136"/>
    <path d="M1788.355,673l28.8077,10.2884s-3.1929,2.99-4.1154,4.1154a12.6153,12.6153,0,0,0-2.0577,6.1731c-.0715,1.1481,1.5433,5.1442,2.0577,6.1731a26.6345,26.6345,0,0,1,2.0577,6.1731,16.0945,16.0945,0,0,1,0,6.173,21.8219,21.8219,0,0,1-4.6129,7.0254,17.97,17.97,0,0,1-5.6756,3.2631c-2.43.6489-7.6842.82-10.0623,0-3.1559-1.0883-8.4022-5.6459-10.5146-8.2308a34.9655,34.9655,0,0,1-4.1154-8.2307c-.8513-2.4811-2.2978-7.6765-2.0577-10.2885.2924-3.1815,1.3651-8.9577,2.6908-11.8645C1782.0138,681.0152,1788.355,673,1788.355,673Z" fill="#fffeff"/>
    <g>
      <path d="M1677.24,718.2692c2.0577-2.0577,3.071-16.9788,4.1153-22.6346,1.5207-8.235,4.6525-20.5727,6.1731-28.8077,1.0444-5.6558,3.244-16.95,4.1154-22.6346.6284-4.1,4.604-17.3032,2.0577-20.577-5.0925-6.5475-32.9231-4.1153-32.9231-4.1153s-4.55,32.42-6.1731,43.2115c-1.4713,9.7851-4.7017,29.311-6.173,39.0962-.5409,3.5971-2.0577,10.7663-2.0577,14.4038C1646.3742,718.2692,1675.1819,720.3269,1677.24,718.2692Z" fill="#454136"/>
      <path d="M1646.4722,714.3439l31.4352,2.7363s-.4256,8.6135-.6678,11.4775c-.3927,4.6417-.7384,14.0517-2.0577,18.5192a29.2075,29.2075,0,0,1-4.1154,8.2308c-1.7689,2.0439-6.2975,5.3644-8.8767,6.1731-4.172,1.308-13.2661,1.1332-17.4889,0-2.9771-.799-8.3674-4.1272-10.6729-6.1731-1.9238-1.7073-5.36-5.7907-6.1731-8.2308a18.7949,18.7949,0,0,1,0-9.1646,19.23,19.23,0,0,1,6.1731-7.2969c2.2592-1.3329,8.4777-.16,10.2885-2.0577C1646.7976,725.9574,1646.4722,714.3439,1646.4722,714.3439Z" fill="#fffeff"/>
    </g>
    <path d="M1675.1819,526.9038c2.0577-2.0577,13.4536,4.0575,16.4615,8.2307,3.8047,5.2788,5.0381,18.2851,6.1731,24.6924,1.6878,9.528,0,37.0384-.94,40.7468-1.1443,4.5158-6.4673,18.6952-11.4065,25.0993-4.1344,5.3608-12.8057,15.9813-18.2479,20.0079-5.0943,3.7694-16.95,8.6921-22.9059,10.8575-4.8477,1.7626-14.82,4.8452-19.9664,5.2008-2.3224.1605-15.9319-1.4037-17.4791-3.1431-.8115-.9123,2.0577-4.8842,2.0577-4.8842s16.8986.0506,20.9839-1.2889c3.7781-1.2386,13.03-4.7342,16.4616-6.7421,4.3675-2.5554,12.836-8.2471,16.4615-11.7771,4.4744-4.3566,11.9276-14.5254,15.0717-19.9212,1.7484-3,4.7091-9.373,5.5052-12.7532,2.14-9.0873.7626-27.9824,0-37.2872-.3873-4.7269-1.1188-13.87-2.0577-18.5192C1680.2165,539.7854,1673.1242,528.9615,1675.1819,526.9038Z" fill="#c00"/>
    <g>
      <path d="M1487.9318,580.4038c-1.0778,7.6475.1363,23.2288,1.2889,30.8654.7146,4.7345,2.4983,14.3679,4.8842,18.5192,2.1751,3.7845,8.8441,9.7406,12.3461,12.3462,6.0938,4.5339,19.7139,11.5434,26.75,14.4038a77.027,77.027,0,0,0,14.4038,4.1154c12.242,1.5433,37.0682-.0429,49.337-1.3567a204.6878,204.6878,0,0,0,23.6611-4.449c6.6017-1.7831,19.7786-5.873,25.7712-9.1672,5.5435-3.0473,15.6851-10.8986,19.9355-15.5839,4.9141-5.417,13.1514-17.8321,15.694-24.69,2.1957-5.9222,3.4308-18.69,3.6227-25.0034a167.7716,167.7716,0,0,0-2.2138-26.5722c-.73-3.9589-3.32-11.6119-4.4719-15.4691-1.1982-4.0109-3.0167-12.28-4.9347-16.0007-1.7185-3.3341-6.1842-9.5755-9.1126-11.92-9.2868-7.4337-43.2115-19.9212-43.2115-19.9212s-13.8458-2.9461-18.5193-2.7134c-2.1184.1055-6.1256,1.7985-8.2308,2.0577a63.4618,63.4618,0,0,1-10.2884,0,87.7694,87.7694,0,0,1-10.7633-2.0577c-3.0345-.8115-8.7354-3.9348-11.8713-4.1154-4.7349-.2726-13.9486,2.8494-18.5193,4.1154-4.7031,1.3027-18.5192,6.1731-18.5192,6.1731l-12.3462,8.2308c-3.0865,2.0576-9.7342,5.5966-12.3461,8.2307a36.1132,36.1132,0,0,0-10.2885,22.6346,58.243,58.243,0,0,0,0,10.2885,35.4646,35.4646,0,0,0,2.0577,8.2308c1.1054,2.3224,5.36,5.7906,6.1731,8.2308a7.9862,7.9862,0,0,1,0,4.1153c-.5568,1.3443-3.1929,2.99-4.1154,4.1154a42.8544,42.8544,0,0,0-4.1154,6.1731A27.7724,27.7724,0,0,0,1487.9318,580.4038Z" fill="#fff"/>
      <path d="M1524.97,585.7628s-.3817,12.4317,0,16.552c.2583,2.7887,2.0577,11.0121,2.0577,11.0121s-9.2792.51-12.3462.9271c-1.7319.2354-5.141,1.0324-6.8586,1.3567-1.8833.3555-10.298,2.7978-9.6029,5.4721.3893,1.4981,7.7109.978,10.2884.4975,3.5939-.67,14.8772-2.2058,18.5193-2.5222a37.1494,37.1494,0,0,1,6.15,0c4.2369.5748,10.3749,1.1338,14.4265,2.5,2.6251.8849,13.8494,5.2506,16.4616,6.1731,5.075,1.7924,14.4038,4.2737,14.4038,4.2737s10.2885,1.4814,10.2885-.1583c0-2.0577-8.6764-5.0861-13.0019-6.615-3.913-1.383-22.0716-8.17-26.0943-9.1908-3.5518-.9011-14.4038-2.7134-14.4038-2.7134s-3.5916-9.6259-4.1154-12.3462c-.4864-2.5257-.106-7.7185,0-10.2885.0509-1.2354.407-4.9294.407-4.9294Z"/>
      <path d="M1570.24,541.3076c0,4.1154-2.1413,28.64,0,32.9231.5428,1.0856,1.5645,6.7994,8.9444,14.5636,6.5443,6.8853,19.6624,12.1046,28.0941,20.4172,7.2129,7.111,12.1518,18.9775,18.5192,24.6923,9.6156,8.63,18.7661,12.7726,20.577,11.7771,5.5435-3.0473,15.6851-10.8986,19.9355-15.5839,4.9141-5.417,13.1514-17.8321,15.694-24.69,2.1957-5.9222,3.4308-18.69,3.6227-25.0034a167.7716,167.7716,0,0,0-2.2138-26.5722c-.73-3.9589-3.32-11.6119-4.4719-15.4691-1.1982-4.0109-3.0167-12.28-4.9347-16.0007-1.7185-3.3341-6.1842-9.5755-9.1126-11.92-9.2868-7.4337-43.2115-19.9212-43.2115-19.9212a97.7491,97.7491,0,0,0-12.3462-.6557c-2.1184.1055-20.5769,18.5192-22.6346,20.5769C1584.48,512.6633,1570.24,537.1922,1570.24,541.3076Z" fill="#454136"/>
      <path d="M1518.7972,568.0576s20.5769-14.4038,20.5769-16.4615,2.0577-28.8077,2.0577-30.8654c0-1.7954,3.3752-10.3166,8.696-18.7333,5.7955-9.1674,13.5159-18.211,11.881-18.3052-4.7349-.2726-13.9486,2.8494-18.5193,4.1154-4.7031,1.3027-18.5192,6.1731-18.5192,6.1731l-12.3462,8.2308c-3.0865,2.0576-9.7342,5.5966-12.3461,8.2307a36.1132,36.1132,0,0,0-10.2885,22.6346,58.243,58.243,0,0,0,0,10.2885,35.4646,35.4646,0,0,0,2.0577,8.2308c1.1054,2.3224,5.36,5.7906,6.1731,8.2308a7.9862,7.9862,0,0,1,0,4.1153c-.5568,1.3443-3.1929,2.99-4.1154,4.1154a42.8544,42.8544,0,0,0-4.1154,6.1731C1489.2748,575.692,1516.74,570.1153,1518.7972,568.0576Z" fill="#454136"/>
      <ellipse cx="1612.4222" cy="555.7115" rx="31.8942" ry="28.8077" fill="#fff"/>
      <ellipse cx="1605.2203" cy="555.7115" rx="18.5192" ry="20.5769"/>
      <ellipse cx="1599.0472" cy="550.5672" rx="9.2596" ry="6.1731" transform="translate(653.1408 1952.4721) rotate(-74.9904)" fill="#fff"/>
      <ellipse cx="1514.6818" cy="542.3365" rx="20.5769" ry="19.5481" fill="#fff"/>
      <ellipse cx="1512.6241" cy="543.3653" rx="12.3462" ry="14.4039"/>
      <ellipse cx="1529.0857" cy="575.2596" rx="20.5769" ry="13.375"/>
      <ellipse cx="1507.8232" cy="542.1756" rx="8.3887" ry="5.0894" transform="translate(593.6475 1858.1421) rotate(-74.9904)" fill="#fff"/>
      <ellipse cx="1518.363" cy="570.8697" rx="8.2036" ry="4.4873" transform="translate(-27.4713 1062.5145) rotate(-38.2481)" fill="#fff"/>
      <path d="M1664.8934,514.5576a23.1754,23.1754,0,0,1,2.0577-4.1154c1.2275-1.3905,5.141-2.5742,6.1731-4.1154,1.4595-2.1794,1.7992-7.6781,2.0577-10.2884.3045-3.0757.7113-9.3552,0-12.363-.5286-2.2351-3.0093-6.201-4.1154-8.214-4.3335-7.8865-13.8462-23.1751-18.5193-30.8653-4.0777-6.7106-11.2611-20.8666-16.4615-26.75-2.1815-2.4679-7.18-7.14-10.2885-8.2307-2.23-.7822-7.4511-1.2574-9.4518,0-2.4168,1.5189-3.9758,7.606-4.952,10.2884-1.616,4.44-3.3275,13.7844-4.667,18.3158-1.2464,4.2165-7.4194,22.0125-7.6792,23.8669-.6778,4.84,2.0577,19.5481,2.0577,19.5481,0,2.0577,2.2606,10.4914,4.1154,12.3462,2.0577,2.0577,9.9456,13.6024,14.4039,16.4615C1630.9162,517.6838,1664.8934,514.5576,1664.8934,514.5576Z" fill="#454136"/>
      <path d="M1615.5088,502.2115a20.8053,20.8053,0,0,0,6.1731,4.1153c2.91,1.1507,9.2575,1.5562,12.3461,2.0577,4.5981.7467,14.0091,3.2232,18.5192,2.0577a14.114,14.114,0,0,0,5.8086-4.1154c1.2468-1.7453,2.2676-6.0914,2.4222-8.2307.2623-3.6281-.9731-10.9318-2.0577-14.4039-1.3719-4.3918-6.06-12.4048-8.2307-16.4615-1.957-3.6567-6.125-10.8308-8.2308-14.4039-1.2628-2.1426-3.9529-6.3307-5.1656-8.5021-1.3715-2.4557-3.5328-7.6969-5.1229-10.0171-.9553-1.394-2.96-4.3519-4.502-5.0425-1.7021-.7621-5.98-1.1351-7.46,0-5.8093,4.4566-6.63,21.0286-7.5864,28.2876-1.2428,9.4325-2.0636,28.7685,0,38.056A20.1513,20.1513,0,0,0,1615.5088,502.2115Z" fill="#d47c7b"/>
      <path d="M1615.5088,502.2115a20.8053,20.8053,0,0,0,6.1731,4.1153c2.91,1.1507,9.2575,1.5562,12.3461,2.0577,4.5981.7467,14.0091,3.2232,18.5192,2.0577a14.114,14.114,0,0,0,5.8086-4.1154c1.2468-1.7453-3.4419-11.1812-6.4462-11.7211-3.4777-.625-21.9669-5.7454-30.6878-5.2617-5.6423.313-9.3916,3.6-8.8,6.2647A20.1513,20.1513,0,0,0,1615.5088,502.2115Z" fill="#a74844"/>
      <path d="M1557.8934,485.75s4.1154-.9074,4.1154-2.0577c0-2.3006-4.8468-8.4087-6.1731-10.2884-2.2723-3.22-8.145-8.572-10.9216-11.3693-4.4-4.4322-13.1424-13.3766-17.8861-17.4384-3.9075-3.3459-10.5176-8.9757-14.4039-12.3462-1.6488-1.43-6.2144-5.3379-8.2307-6.1731-2.063-.8545-6.9107-.9493-8.9318,0a8.5259,8.5259,0,0,0-3.4144,4.1154c-2.0577,8.2308,0,49.3846,0,51.171,0,2.8333,2.5662,8.1875,4.1154,10.56a58.865,58.865,0,0,0,6.1731,8.2308c1.5432,1.5432,6.0865,5.7659,8.2307,6.173C1523.2417,508.7335,1557.8934,485.75,1557.8934,485.75Z" fill="#454136"/>
      <path d="M1512.6241,502.2115c3.6563.6263,9.2511-6.1861,12.3462-8.2308,2.6706-1.7643,13.0907-5.5669,16.2258-6.2119,1.6737-.3444,2.8514-4.295,2.2934-6.1343-1.012-3.3356-5.0478-9.1856-7.1228-11.9865-2.9725-4.0125-10.1471-11.0219-13.4541-14.7635-3.1409-3.5536-8.7965-11.2584-12.3462-14.4038-1.3882-1.23-4.3183-4.1154-6.173-4.1154s-5.4762,2.3965-6.1731,4.1154c-.917,2.2615,1.7251,15.3554,2.0577,17.773,1.1493,8.3543.211,17.21,2.0577,25.4385a51.0661,51.0661,0,0,0,4.1153,10.2885C1507.7112,496.223,1510.0889,501.7772,1512.6241,502.2115Z" fill="#d47c7b"/>
      <path d="M1512.6241,502.2115c3.6563.6263,9.2511-6.1861,12.3462-8.2308,2.6706-1.7643,13.0907-5.5669,16.2258-6.2119,1.6737-.3444,2.8514-4.295,2.2934-6.1343-.52-1.7141-12.702-5.2172-22.2385-1.8885-9.0218,3.149-15.46,13.0607-14.8,14.2347C1507.7112,496.223,1510.0889,501.7772,1512.6241,502.2115Z" fill="#a74844"/>
    </g>
  </g>
</svg>
