<svg id="Cabeça" xmlns="http://www.w3.org/2000/svg" width="2048" height="1502" viewBox="0 0 2048 1502">
  <g>
    <path d="M1117.1907,674.8791c-2.8888,23.7569-7.763,44.5538-25.0837,60.0013-16.6551,14.8539-44.3735,18.9987-69.4163,18.9987-25.7593,0-54.0593-4.6756-70.8309-20.2876-16.49-15.35-21.0314-35.4966-22.6691-58.7124-1.1907-16.8791-2.8811-44.3941,10-59,16.9587-19.2294,54.4664-21,83.5-21,28.1974,0,67.448,2.5939,84.4143,20.8771C1120.8772,630.5973,1119,660,1117.1907,674.8791Z" fill="#343031"/>
    <ellipse cx="1023.5" cy="712" rx="46.5" ry="29" fill="#fffffd"/>
    <path d="M1022.4951,705.3626h3.6148s-.5484,9.6162,0,12.7583a10.1987,10.1987,0,0,0,.89,2.4725A19.0783,19.0783,0,0,0,1029,723a18.3253,18.3253,0,0,0,2,2,18.6227,18.6227,0,0,0,2,1,12.9955,12.9955,0,0,0,2,1,17.6513,17.6513,0,0,0,5.6484,0A11.6874,11.6874,0,0,0,1043,726a13.81,13.81,0,0,0,3-2,24.5612,24.5612,0,0,0,2-4c.1477-.6257-.2776-1.9916,0-2.5714a2.763,2.763,0,0,1,1.55-1.2473A2.1676,2.1676,0,0,1,1051,717c.615,1.0534.2665,3.6888,0,4.8791A25.2925,25.2925,0,0,1,1048,726a23.5766,23.5766,0,0,1-2,2,19.0208,19.0208,0,0,1-2,1,12.83,12.83,0,0,1-1.967,1,23.9214,23.9214,0,0,1-6.9231,0,14.9121,14.9121,0,0,1-3.11-1,20.8461,20.8461,0,0,1-3-2c-.5433-.44-1.5054-1.4616-2-1.956-.5056-.5055-1.73-1.382-2-2.044-.2832-.6945-1-3-1-3h1s-.7864,2.1837-1,2.8681a7.9334,7.9334,0,0,1-1.5049,2.1759A22.4943,22.4943,0,0,1,1020,727a34.5213,34.5213,0,0,1-3,2,12.1439,12.1439,0,0,1-2.4615,1,21.2478,21.2478,0,0,1-6.033,0A22.5492,22.5492,0,0,1,1006,729a35.41,35.41,0,0,1-5-3,23.5766,23.5766,0,0,1-2-2,7.6839,7.6839,0,0,1-1-2,6.52,6.52,0,0,1,0-3.1868c.1949-.4071.9552-1.135,1.4066-1.1319.5171.0036,1.3733.8508,1.5934,1.3187.3193.6787-.287,2.3071,0,3,.2706.6533,1.5,1.5,2,2a31.2157,31.2157,0,0,0,3,2,12.9955,12.9955,0,0,0,2,1,15.5444,15.5444,0,0,0,6,0,35.2777,35.2777,0,0,0,6-4,9.1326,9.1326,0,0,0,1-2,19.9537,19.9537,0,0,0,1-3C1022.5675,714.89,1022.4951,705.3626,1022.4951,705.3626Z" fill="#212322"/>
    <ellipse cx="1024" cy="699.5" rx="12" ry="8.5" fill="#cc705b"/>
    <path d="M989,598s-7.4321-4.62-10-6c-5.614-3.018-17.1629-8.44-23-11-4.9317-2.1629-14.8487-6.43-20-8a121.8494,121.8494,0,0,0-14-3c-3.7222-.52-12.2555-3.5676-15-1-1.0552.9872-.2151,4.3513,0,5.78,1.1377,7.5585,6.6369,21.9506,9,29.22,2.9562,9.0937,8.5453,27.4307,12.3878,36.1868C928.938,641.4405,931,645,931,645Z" fill="#343031"/>
    <path d="M1056.4794,598s7.4321-4.62,10-6c5.614-3.018,17.163-8.44,23-11,4.9318-2.1629,14.8488-6.43,20-8a121.8494,121.8494,0,0,1,14-3c3.7222-.52,12.2555-3.5676,15-1,1.0553.9872.2151,4.3513,0,5.78-1.1376,7.5585-6.6369,21.9506-9,29.22-2.9562,9.0937-8.5453,27.4307-12.3877,36.1868-.55,1.2537-2.6123,4.8132-2.6123,4.8132Z" fill="#343031"/>
    <path d="M933,639s10.9808-9.289,14.74-12.2637C952.2193,623.1913,966,613,966,613s-7.2658-7.7585-10-10c-4.1825-3.4288-13.3584-9.2241-18-12-3.6475-2.1814-11.0337-6.4732-15-8-1.9239-.7406-8.1866-4.0531-8-2C916,592,933,639,933,639Z" fill="#cc705b"/>
    <path d="M1112.9959,639s-10.9807-9.289-14.74-12.2637c-4.48-3.545-18.26-13.7363-18.26-13.7363s7.2658-7.7585,10-10c4.1825-3.4288,13.3584-9.2241,18-12,3.6475-2.1814,11.0337-6.4732,15-8,1.9239-.7406,8.1867-4.0531,8-2C1129.9959,592,1112.9959,639,1112.9959,639Z" fill="#cc705b"/>
    <g>
      <ellipse cx="973.7195" cy="666" rx="25.7195" ry="22" fill="#0f6"/>
      <ellipse cx="973.5" cy="666" rx="13.5" ry="21" fill="#212322"/>
      <ellipse cx="968.5" cy="661" rx="6.5" ry="10" fill="#fffffd"/>
    </g>
    <g>
      <ellipse cx="1073.7195" cy="666" rx="25.7195" ry="22" fill="#0f6"/>
      <ellipse cx="1073.5" cy="666" rx="13.5" ry="21" fill="#212322"/>
      <ellipse cx="1068.5" cy="661" rx="6.5" ry="10" fill="#fffffd"/>
    </g>
    <path d="M980,705s-5.1878-2.416-7-3c-2.1938-.707-17.2334-1.6232-19.978-1.5-2.7781.1247-8.275.0672-11.022.5a68.8773,68.8773,0,0,0-6.978,1.25c-1.05.3176-4.022,1.75-4.022,1.75s2.3518.0453,3.1319-.022c1.4817-.1278,4.3924-.7929,5.8681-.978,2.2077-.2769,6.6452-.6562,8.8681-.75,3.28-.1385,9.8525-.1534,13.1319,0a66.765,66.765,0,0,1,8,.75c2.3208.4889,9,3,9,3Z" fill="#fffffd"/>
    <path d="M980,717.8085s-6.07-.1209-8.0879,0c-2.4914.1492-7.4475.7975-9.9121,1.1915-2.5175.4024-7.5263,1.383-10,2-2.5325.6316-7.5738,2.0378-10,3-2.0786.8243-8,4-8,4s4.5238-.635,6-1c2.0451-.5057,5.9726-2.0756,8-2.6484,2.4715-.6981,7.4858-1.8278,10-2.3516,2.7363-.57,8.2255-1.6616,11-2,2.7352-.3336,11-.6923,11-.6923Z" fill="#fffffd"/>
    <path d="M984,725s-5.254,1.8765-7,2.5165c-3.0069,1.1022-8.9837,3.4074-12,4.4835-2.3627.8429-8.1877,3.2579-10.5,4.2308-2.41,1.0139-6.31,2.0649-8.3307,3.724A30.5753,30.5753,0,0,0,943,744s6.2669-3.0106,8.3407-4.0452c2.4285-1.2116,7.1573-2.9033,9.6593-3.9548,2.9153-1.2252,8.9908-4.028,12-5,2.3912-.7724,7.2315-2.142,9.5934-3,.6124-.2225,2.4066-1,2.4066-1Z" fill="#fffffd"/>
    <path d="M1067,704s6.7568-1.47,9-2c2.0064-.4736,5.9539-1.7481,8-2a93.5854,93.5854,0,0,1,14.6374,0,80.7406,80.7406,0,0,1,11.4066,2c1.2845.3674,4.956,2,4.956,2s-3.3238.0726-4.4286,0c-1.9052-.1253-5.674-.7871-7.5714-1-2.7006-.303-8.11-.8749-10.8242-1-1.5972-.0736-4.8025-.1368-6.3956,0-1.4611.1255-4.3418.7141-5.78,1-3.2672.6495-13,2.9231-13,2.9231Z" fill="#fffffd"/>
    <path d="M1068,717s4.73.61,6.3077.8085c2.4223.3041,7.2864.7773,9.6923,1.1915,2.2715.3911,6.7659,1.4331,9,2,1.7641.4476,5.2613,1.4621,7,2,1.5105.4673,4.5411,1.39,6,2,1.5007.627,5.801,2.9451,5.801,2.9451A29.3008,29.3008,0,0,1,1108,728a50.4542,50.4542,0,0,1-6-2c-1.5-.5-4.4895-1.5327-6-2-1.7387-.5379-5.2359-1.5524-7-2-2.2341-.5669-6.7213-1.6535-9-2-2.9762-.4526-12-1-12-1Z" fill="#fffffd"/>
    <path d="M1062,725s6.001,2.0081,8,2.6813c1.902.6405,5.721,1.88,7.6044,2.573,2.3729.8737,7.0588,2.7794,9.3956,3.7457,1.7594.7276,5.2728,2.1989,7,3,1.5214.7056,4.7124,1.9254,6,3a28.1052,28.1052,0,0,1,3,4s-2.9877-1.5255-4-2c-1.9772-.9267-6.0041-2.62-8-3.5055-1.6178-.7178-4.835-2.1952-6.4581-2.9011-2.1245-.9239-6.386-2.7451-8.5419-3.5934-1.9823-.78-5.9774-2.2655-8-2.9341-1.7324-.5726-7-2.0659-7-2.0659Z" fill="#fffffd"/>
  </g>
</svg>
