<svg id="Peixe" xmlns="http://www.w3.org/2000/svg" width="1920" height="1082" viewBox="0 0 1920 1082">
  <g>
    <g>
      <path d="M1612.8744,549.2139s-38.8126-18.5012-52.8613-20.0583c-4.2014-.4657-13.2169.053-16.7384,2.3912-2.9039,1.9281-6.2431,8.5967-7.1736,11.956-1.494,5.3939,0,22.3879,0,22.3879Z" fill="#1b1360"/>
      <path d="M1612.8744,689.1487s-38.8126,18.5013-52.8613,20.0584c-4.2014.4656-13.2169-.053-16.7384-2.3912-2.9039-1.9281-6.2431-8.5968-7.1736-11.956-1.494-5.3939,0-22.3879,0-22.3879Z" fill="#1b1360"/>
      <g>
        <path d="M1464.7741,610.2548s-17.4178-19.5224-24.321-23.7105c-4.1644-2.5265-11.7641-7.4705-19.8124-9.7082a152.828,152.828,0,0,0-30.4027-4.639s11.6938,22.0972,16.7384,28.6944c3.93,5.14,18.1573,18.4445,18.1573,18.4445h39.64Z" fill="#1b1360"/>
        <path d="M1464.3651,626.7111s-17.4178,19.5224-24.321,23.7105c-4.1644,2.5265-11.7641,7.4705-19.8124,9.7082a152.828,152.828,0,0,1-30.4027,4.639s11.6937-22.0972,16.7384-28.6944c3.93-5.14,18.1573-18.4445,18.1573-18.4445h39.64Z" fill="#1b1360"/>
      </g>
      <g>
        <path d="M1744.1354,620.154s-64.77,71.6031-144.6675,71.6031S1454.8,620.154,1454.8,620.154s64.77-71.6032,144.6676-71.6032S1744.1354,620.154,1744.1354,620.154Z" fill="#1b4f9a"/>
        <path d="M1632.29,552.4768c20.32,17.7886,32.9362,42.544,32.9362,69.9355,0,24.3646-9.9939,46.6353-26.4982,63.7829,60.8121-16.7936,105.4077-66.0413,105.4077-66.0413S1696.3678,567.4022,1632.29,552.4768Z" fill="#1a66b2"/>
      </g>
      <g>
        <circle cx="1691.5291" cy="605.6739" r="14.3472" fill="#fff"/>
        <circle cx="1691.5291" cy="605.6739" r="9.5648" fill="#070707"/>
      </g>
    </g>
    <g>
      <path d="M1591.02,562.6323s-31.0066,9.1646-31.0066,16.1143c0,8.491,31.0066,17.3363,31.0066,17.3363s-20.582-13.155-20.582-17.3363S1591.02,562.6323,1591.02,562.6323Z" fill="#1b1360"/>
      <path d="M1591.02,596.1091s-31.0066,9.1646-31.0066,16.1143c0,8.491,31.0066,17.3362,31.0066,17.3362s-20.582-13.1549-20.582-17.3362S1591.02,596.1091,1591.02,596.1091Z" fill="#1b1360"/>
      <path d="M1591.02,629.5859s-31.0066,9.1645-31.0066,16.1143c0,8.491,31.0066,17.3362,31.0066,17.3362s-20.582-13.1549-20.582-17.3362S1591.02,629.5859,1591.02,629.5859Z" fill="#1b1360"/>
    </g>
    <g>
      <path d="M1641.3139,573.5933s-25.9616,7.6733-25.9616,13.4923c0,7.1094,25.9616,14.5154,25.9616,14.5154s-17.2331-11.0145-17.2331-14.5154S1641.3139,573.5933,1641.3139,573.5933Z" fill="#1b1360"/>
      <path d="M1641.3139,602.2876s-25.9616,7.6734-25.9616,13.4924c0,7.1094,25.9616,14.5154,25.9616,14.5154s-17.2331-11.0145-17.2331-14.5154S1641.3139,602.2876,1641.3139,602.2876Z" fill="#1b1360"/>
      <path d="M1641.3139,630.982s-25.9616,7.6734-25.9616,13.4924c0,7.1094,25.9616,14.5154,25.9616,14.5154s-17.2331-11.0145-17.2331-14.5154S1641.3139,630.982,1641.3139,630.982Z" fill="#1b1360"/>
    </g>
    <g>
      <path d="M1533.71,576.7782s-23.439,6.9278-23.439,12.1814c0,6.4186,23.439,13.105,23.439,13.105s-15.5586-9.9442-15.5586-13.105S1533.71,576.7782,1533.71,576.7782Z" fill="#1b1360"/>
      <path d="M1533.71,602.6845s-23.439,6.9278-23.439,12.1814c0,6.4186,23.439,13.105,23.439,13.105s-15.5586-9.9442-15.5586-13.105S1533.71,602.6845,1533.71,602.6845Z" fill="#1b1360"/>
      <path d="M1533.71,628.5908s-23.439,6.9278-23.439,12.1814c0,6.4186,23.439,13.105,23.439,13.105s-15.5586-9.9442-15.5586-13.105S1533.71,628.5908,1533.71,628.5908Z" fill="#1b1360"/>
    </g>
  </g>
</svg>
