<svg id="Correndo_4" data-name="Correndo 4" xmlns="http://www.w3.org/2000/svg" width="2048" height="1502" viewBox="0 0 2048 1502">
  <g>
    <ellipse cx="351.4732" cy="727.0508" rx="117.5721" ry="13.9492" fill="#343031" opacity="0.5"/>
    <path d="M271.7633,625.4206s5.3414,21.1382,7.971,27.8985c3.2308,8.3056,11.3816,24.2274,15.942,31.884,3.1118,5.2246,9.8648,15.4222,13.9492,19.9274,3.085,3.4029,9.4935,10.842,13.9493,11.9565,2.4644.6165,10.0616-2.4547,11.9127-4.1944,2.5259-2.374,3.3527-7.8991,3.8371-11.3315.4545-3.22-1.1535-9.8658-1.9927-13.0076-5.3923-20.188-41.6775-72.4508-41.6775-72.4508Z" fill="#212322"/>
    <path d="M309.6255,705.1305c3.085,3.4029,9.4935,10.842,13.9493,11.9565,2.4644.6165,10.0616-2.4547,11.9127-4.1944,2.5259-2.374,3.3527-7.8991,3.8371-11.3315.4545-3.22.6038-11.05-1.9927-13.0076-1.8007-1.3577-6.3567,2.9507-14.644,8.1484C315.6038,701.1451,307.7078,703.0153,309.6255,705.1305Z" fill="#d2cfda"/>
    <path d="M345.495,661.29s26.83-5.5539,33.8767,0c1.4279,1.1254.3847,6.1941,0,7.971-1.175,5.4275-8.8534,12.4937-9.9637,17.9347-.8214,4.0252,1.9809,14.159,3.9855,15.942,2.1862,1.9446,9.9637,5.9782,15.9419,3.9855,3.781-1.26,17.0336-10.0351,17.9348-13.9492,3.3606-14.5969-3.9855-59.7825-3.9855-59.7825h-64.403Z" fill="#212322"/>
    <path d="M535.2523,545.9027c2.2275,1.221,4.4851,7.79,3.5175,10.1384-3.112,7.555-16.7546,19.7122-23.1018,24.8577a43.605,43.605,0,0,1-10.2311,5.5082,66.0286,66.0286,0,0,1-16.11,3.2393,110.6223,110.6223,0,0,0-12.0363,1.4343c-4.7944,1.3538-16.3883,9.2112-16.3883,9.2112L447.4316,589.69s12.104-5.7088,16.2956-7.2206a104.6807,104.6807,0,0,1,12.129-3.4249c3.4624-.6489,10.577-.6286,14.0268-1.3415,4.1685-.8614,12.7491-2.7421,16.2029-5.23,2.915-2.1,6.2656-8.7745,8.5187-11.5726,2.0007-2.4846,5.9474-9.6848,8.5187-11.5727C525.8172,547.35,532.3217,544.2963,535.2523,545.9027Z" fill="#212322"/>
    <path d="M465.06,612.4678c0,14.44-9.8661,14.7161-29.8912,22.9166-14.3151,5.8622-37.4285,7.6855-56.7933,9.9637-16.9383,1.9928-71.5092,5.6105-86.6845-1.9927-16.3118-8.1726-19.9275-18.0594-19.9275-30.8876,0-14.7619,35.3954-31.8431,56.1888-40.0131,14.087-5.535,31.5329-4.8237,50.4232-4.8237C425.1493,567.631,465.06,587.7051,465.06,612.4678Z" fill="#343031"/>
    <path d="M339.5167,569.6237s9.9638-1.9927,11.4439-1.6306c3.8763.9482-1.9448,11.8934-3.4729,15.58-1.8112,4.37-7.4085,12.1133-10.1558,15.9638-2.4859,3.4843-7.5486,10.46-10.67,13.3894-3.3445,3.1389-11.05,8.2473-15.0441,10.5017a145.3392,145.3392,0,0,1-17.9347,7.971c-4.6508,1.61-12.8994,5.4285-17.0895,2.8468-2.7927-1.7207-4.8308-10.8178-4.8308-10.8178Z" fill="#212322"/>
    <g>
      <path d="M289.737,485.5743c2.338-3.7933,26.041-8.8945,34.9793-10.8933,12.9729-2.9009,50.8586-9.4809,52.6669-7.32s-10.5877,29.0676-12.9256,32.8608-12.3109,21.46-16.5425,28.538c-1.7149,2.8684-5.4389,10.7207-8.9988,11.2033C320.7508,542.4262,280.1186,501.18,289.737,485.5743Z" fill="#343031"/>
      <path d="M200.1557,503.0505c.48-5.3947,10.0894-22.6843,21.6982-41.5192,9.352-15.1731,28.6285-29.4636,30.6134-29.2871s4.9425,13.5616,5.8212,24.5251c.9268,11.5637,1.93,23.5195,1.93,23.5195S198.7332,519.0452,200.1557,503.0505Z" fill="#212322"/>
      <path d="M345.0905,560.5189c-3.5587,40.0126-48.0151,75.7541-92.4127,71.8054-23.7629-2.1135-57.27-2.0776-70.2211-20.25-11.246-15.78-3.68-48.604-2.0256-67.2007,3.5587-40.0127,42.4349-69.2483,86.8325-65.3S348.6492,520.5062,345.0905,560.5189Z" fill="#343031"/>
      <ellipse cx="210.1142" cy="593.528" rx="24.9093" ry="31.884" transform="translate(-399.6941 750.2357) rotate(-84.9175)" fill="#fffffd"/>
      <path d="M340.3285,524.0843c6.3079-3.44,25.7179-41.7262,23.9095-43.8876s-53.02,11.2893-53.3731,15.2592C310.47,499.8943,336.4166,526.2178,340.3285,524.0843Z" fill="#cc705b"/>
      <ellipse cx="255.946" cy="550.5898" rx="19.9275" ry="11.9565" transform="translate(-326.8673 720.8431) rotate(-81.3526)" fill="#0f6"/>
      <ellipse cx="253.8829" cy="551.5256" rx="14.9456" ry="7.9985" transform="translate(-329.5454 719.5985) rotate(-81.3526)" fill="#212322"/>
      <ellipse cx="252.3293" cy="546.2669" rx="5.9782" ry="3.9855" transform="translate(-349.2597 559.2386) rotate(-66.4423)" fill="#fffffd"/>
      <ellipse cx="191.4976" cy="544.8617" rx="17.962" ry="9.012" transform="translate(-375.9626 652.2604) rotate(-81.3526)" fill="#0f6"/>
      <ellipse cx="190.3866" cy="545.7824" rx="12.9069" ry="5.9393" transform="translate(-377.8168 651.9444) rotate(-81.3526)" fill="#212322"/>
      <ellipse cx="189.098" cy="542.3105" rx="5.2219" ry="3.4729" transform="translate(-385.2114 537.0697) rotate(-70.254)" fill="#fffffd"/>
      <ellipse cx="203.2338" cy="580.9124" rx="6.9746" ry="9.9637" transform="translate(-393.3989 731.8843) rotate(-84.9175)" fill="#cc705b"/>
      <rect x="200.1818" y="587.84" width="3.9855" height="9.9637" transform="translate(53.3128 -15.5797) rotate(5.0825)" fill="#212322"/>
      <path d="M201.5606,599.7254c1.7937-.1761,4.1163,3.5166,5.5978,4.5431a20.0091,20.0091,0,0,0,3.803,2.2289c2.3.7352,7.2658,1.3947,9.6192.8555a15.7311,15.7311,0,0,0,4.3189-2.5838,19.4279,19.4279,0,0,0,2.7485-2.7235,16.4993,16.4993,0,0,0,2.0506-3.7749c.3322-1.1006,1.3661-3.9461.4074-4.5806-.9928-.6569-3.3615,1.3983-4.2007,2.2426-.7612.7659-1.3161,2.9959-2.0108,3.8224-.9448,1.124-3.2407,3.176-4.65,3.5877-1.4346.419-4.5065-.16-5.9548-.53a21.667,21.667,0,0,1-5.7782-2.5146,31.6793,31.6793,0,0,1-3.6167-4.3229l-3.9931-.0913a37.1682,37.1682,0,0,1-2.3147,3.5316,7.1712,7.1712,0,0,1-2.1615,1.8083c-.9507.2983-3.1807.2554-3.97-.353-.7312-.5639-1.09-2.5659-1.2518-3.4751-.203-1.1424,1-4.1-.027-4.6411-.8354-.44-2.7172,1.2676-3.1272,2.1182-.6146,1.275.4362,5.6449.4362,5.6449s2.3678,3.67,3.6167,4.3229c1.2859.6717,4.4409,1.0715,5.78.5141C198.5722,604.652,199.74,599.9042,201.5606,599.7254Z" fill="#212322"/>
      <path d="M238.6974,587.0674s19.7464-5.2347,26.51-5.6447c8.4974-.5151,33.918,3.0167,33.918,3.0167s-1.6026,1.858-2.3359,1.7928c-3.97-.3531-21.5648-2.37-29.4775-1.8962-7.3217.438-28.8474,5.3489-28.8474,5.3489Z" fill="#fffffd"/>
      <path d="M237.7255,597.9953s25.4764,3.2536,33.8287,5.0093c6.7776,1.4248,26.91,9.3846,26.91,9.3846a8.7011,8.7011,0,0,1-1.8724.5369c-6.9294-.1024-19.8328-6.3274-26.6162-7.7457-8.0232-1.6774-32.514-4.2186-32.514-4.2186Z" fill="#fffffd"/>
      <path d="M237.1086,604.9316s23.1337,7.16,31.0524,10.7642c5.0078,2.2795,20.9238,11.3881,20.9238,11.3881a21.8729,21.8729,0,0,1-3.9422.1253c-5.7111-1.1769-16.6774-7.8158-21.1279-9.8815-7.7774-3.61-28.279-9.8141-28.279-9.8141Z" fill="#fffffd"/>
      <path d="M187.5534,577.6381l-2.2721,2.6779s-8.6649-3.7773-11.5564-5.0291c-2.9248-1.2662-8.6191-4.2612-11.7091-5.0426-6.8148-1.7233-20.9775-2.4661-28.0069-2.4909-2.9385-.01-11.7152.9587-11.7152.9587a13.6756,13.6756,0,0,1,2.1615-1.8084c2.3122-1.0519,7.0708-1.1208,10.1011-1.1022,8.1515.05,24.5492.997,32.4784,2.8886,2.9017.6922,8.351,3.2236,11.0827,4.4221C180.5133,574.1633,187.5534,577.6381,187.5534,577.6381Z" fill="#fffffd"/>
      <path d="M180.12,589.1541s-15.9784-1.9433-21.3324-1.8973a133.2147,133.2147,0,0,0-19.0429,2.0242c-4.5486.9259-17.7613,5.4115-17.7613,5.4115s2.9735.3631,3.97.353c3.6529-.037,10.2931-1.1261,14.4971-1.8326,4.6335-.7787,13.97-2,18.6637-2.2092,5.1941-.2318,20.7885.5958,20.7885.5958Z" fill="#fffffd"/>
      <path d="M181.7076,598.0037s-17.4117,3.01-22.3637,4.0128c-3.0881.6253-9.23,2.0562-12.2625,2.9106-3.6519,1.0289-11.1792,2.7526-14.424,4.719-1.6835,1.02-5.4571,3.5158-5.4571,3.5158a26.81,26.81,0,0,0,4.5805.4074c3.4287-.4644,9.6847-3.7415,12.9626-4.8489,2.8846-.9745,8.7155-2.7416,11.6577-3.5251,4.2183-1.1234,12.7334-3.0706,17.0138-3.928,1.92-.3846,7.7235-1.3137,7.7235-1.3137Z" fill="#fffffd"/>
    </g>
    <path d="M369.408,687.1958c-.8214,4.0252,1.9809,14.159,3.9855,15.942,2.1862,1.9446,9.9637,5.9782,15.9419,3.9855,3.781-1.26,17.1-8.8057,13.9493-11.9565-1.9928-1.9927-7.971,0-17.9348-3.9855C376.4512,687.6218,369.9527,684.5264,369.408,687.1958Z" fill="#d2cfda"/>
    <path d="M464.9547,610.2947c2.0979,5.1622,4.051,22.0541,2.0979,29.0752-5.5565,19.9747-34.4688,51.8962-47.826,67.7534-3.1772,3.7719-9.9483,11.0656-13.9492,13.9492a30.6357,30.6357,0,0,1-7.971,3.9855c-2.5788.6088-8.261,1.2473-10.5988,0-2.1166-1.1293-4.8367-5.626-5.3432-7.971-.64-2.962.8784-9.1384,1.9928-11.9565.6605-1.67,3.0249-4.46,3.9855-5.9782,3.1068-4.9093,10.7883-14.2363,11.9565-19.9275,2.2241-10.8356-10.6731-33.8246-5.9783-43.84,3.99-8.5111,31.884-19.9275,31.884-19.9275S461.1819,601.0111,464.9547,610.2947Z" fill="#343031"/>
    <path d="M419.2266,707.1233c-3.4873,3.4873-9.9483,11.0656-13.9492,13.9492a30.6357,30.6357,0,0,1-7.971,3.9855c-2.5788.6088-8.261,1.2473-10.5988,0-2.1166-1.1293-4.8367-5.626-5.3432-7.971-.64-2.962.8784-9.1384,1.9928-11.9565.6605-1.67,3.0249-4.46,3.9855-5.9782,1.49-2.3544,7.3492,2.91,14.8988,5.0983C410.4343,706.6255,420.2637,706.0862,419.2266,707.1233Z" fill="#fffffd"/>
    <path d="M291.6908,639.37s39.855,51.8114,59.7824,69.8775c1.8252,1.6547-1.9927,9.8324-1.9927,13.8179,0,2.9049,5.1715,7.1955,7.971,7.971,2.4.6649,9.6656.9781,11.9565,0,3.9244-1.6757,10.1991-8.3751,11.8045-12.3288,1.8394-4.53,2.7431-15.4094.1519-19.5552-9.9637-15.942-37.8622-59.7824-37.8622-59.7824Z" fill="#343031"/>
    <path d="M351.4732,709.2474c1.6856,1.7967-1.9927,9.8324-1.9927,13.8179,0,2.9049,5.1715,7.1955,7.971,7.971,2.4.6649,9.6656.9781,11.9565,0,3.9244-1.6757,10.1991-8.3751,11.8045-12.3288,1.8394-4.53,2.3383-15.1824.1519-19.5552-1.9927-3.9855-5.51,4.6824-13.9492,5.9782C357.1976,706.6994,349.4805,707.1233,351.4732,709.2474Z" fill="#fffffd"/>
  </g>
</svg>
