<svg xmlns="http://www.w3.org/2000/svg" width="1920" height="1082" viewBox="0 0 1920 1082">
  <g id="Interface_Ração" data-name="Interface Ração">
    <rect x="306.7978" y="517" width="369.75" height="204" rx="95.9999" fill="#fff"/>
    <g>
      <rect x="271" y="699" width="440" height="105" rx="52.4999" fill="#fff"/>
      <rect x="290" y="714" width="402" height="74" rx="37" fill="#2ec2a0"/>
    </g>
  </g>
  <g id="Ração">
    <g>
      <path d="M658,655c.8686,14.7668-18.8021,20.9935-51,30-38.2584,10.7018-92.4651,9.7285-115,10-20.0791.2419-70.5632.7563-106-8-37.8049-9.3414-58.9675-11.4793-60-28-1-16,22-90,22-90l287-2S657,638,658,655Z" fill="#2ec2a0"/>
      <ellipse cx="491" cy="564.5" rx="144" ry="27.5" fill="#7dd1b7"/>
      <ellipse cx="491.5" cy="564" rx="122.5" ry="21" fill="#1f8f76"/>
      <path d="M585,575.1248c-3,7.6761-68.3405,9.2136-91,9.8693-21.7941.6306-78-3.29-88-6.58-5.0286-1.6543,1-23.0283,1-23.0283L495,551l85,4.3863S586.6242,570.9691,585,575.1248Z" fill="#cf8526"/>
      <circle cx="404" cy="567" r="12" fill="#cf8526"/>
      <circle cx="422" cy="555" r="12" fill="#cf8526"/>
      <circle cx="441" cy="554" r="12" fill="#cf8526"/>
      <circle cx="457" cy="546" r="12" fill="#cf8526"/>
      <circle cx="475" cy="548" r="12" fill="#cf8526"/>
      <circle cx="494" cy="544" r="12" fill="#cf8526"/>
      <circle cx="513" cy="547" r="12" fill="#cf8526"/>
      <circle cx="530" cy="550" r="12" fill="#cf8526"/>
      <circle cx="547" cy="546" r="12" fill="#cf8526"/>
      <circle cx="566" cy="547" r="12" fill="#cf8526"/>
      <circle cx="579" cy="559" r="12" fill="#cf8526"/>
      <circle cx="584" cy="566" r="12" fill="#cf8526"/>
      <circle cx="422" cy="556" r="10" fill="#f4b430"/>
      <circle cx="457" cy="547" r="10" fill="#f4b430"/>
      <circle cx="452" cy="569" r="10" fill="#f4b430"/>
      <circle cx="513" cy="547" r="10" fill="#f4b430"/>
      <circle cx="547" cy="548" r="10" fill="#f4b430"/>
      <circle cx="578" cy="559" r="10" fill="#f4b430"/>
      <circle cx="532" cy="567" r="10" fill="#f4b430"/>
      <circle cx="485" cy="557" r="10" fill="#f4b430"/>
      <g>
        <path d="M522,660c0,4.7572.8379,12.8416-3,17-5.9645,6.4626-18.5947,8-27.5,8-8.7227,0-22.236-1.74-28.5-8-4.2462-4.2436-3-12.0912-3-17,0-12.15,16.8645-26,31.5-26S522,647.85,522,660Z" fill="#fff"/>
        <circle cx="452.5" cy="635.5" r="13.5" fill="#fff"/>
        <circle cx="476.5" cy="615.5" r="13.5" fill="#fff"/>
        <circle cx="507.5" cy="614.5" r="13.5" fill="#fff"/>
        <circle cx="531.5" cy="635.5" r="13.5" fill="#fff"/>
      </g>
    </g>
  </g>
</svg>
