<svg id="Cadeado" xmlns="http://www.w3.org/2000/svg" width="2026" height="1080" viewBox="0 0 2026 1080">
  <rect x="1241" y="350.6667" width="30" height="65" fill="#a9a9a9"/>
  <rect x="1336" y="350.6667" width="30" height="65" fill="#a9a9a9"/>
  <rect x="1213" y="414.6667" width="181" height="156" rx="12" fill="#fbb03b"/>
  <g>
    <circle cx="1303.4419" cy="490.1085" r="17.4419" fill="#ab7a2e"/>
    <rect x="1292.9767" y="503.3643" width="20.9302" height="29.3023" fill="#ab7a2e"/>
  </g>
  <path d="M1241,350.6667c0-6,2.25-21.5838,7-26a76.5809,76.5809,0,0,1,26-16c4.4037-1.5556,24.3323-1.8415,29-2,8.6733-.2946,24.9434-1.2256,33,2,6.5686,2.63,20.57,8.8114,24,15,2.6662,4.81,6,19,6,27,0,7.5-30,7.5-30,0,0-4-2.4759-11.9646-6-14-5.9877-3.4583-20.0856-5.0584-27-5-6.4273.0542-23.6178,1.2979-28,6-2.0736,2.2249-4,9-4,13C1271,358.1667,1241,358.1667,1241,350.6667Z" fill="#a9a9a9"/>
</svg>
