<svg id="Árvore_2" data-name="Árvore 2" xmlns="http://www.w3.org/2000/svg" width="2672" height="1907" viewBox="0 0 2672 1907">
  <g>
    <g>
      <g>
        <circle cx="798.3922" cy="1050.8218" r="103.3935" fill="#8eb349"/>
        <path d="M724.1131,1050.8218c0-53.7871,36.9216-97.9749,84.1074-102.9256-3.2357-.3051-6.5128-.4678-9.8283-.4678a103.3935,103.3935,0,1,0,0,206.7869c3.3155,0,6.5926-.1627,9.8283-.4678C761.0347,1148.7967,724.1131,1104.609,724.1131,1050.8218Z" fill="#4e7f13"/>
      </g>
      <g>
        <circle cx="797.8354" cy="1190.2626" r="121.9451" fill="#8eb349"/>
        <path d="M710.2287,1190.2626c0-63.4381,43.5463-115.5543,99.1985-121.3933-3.8162-.36-7.6814-.5518-11.5918-.5518a121.9451,121.9451,0,0,0,0,243.89c3.91,0,7.7756-.1919,11.5918-.5518C753.775,1305.8168,710.2287,1253.7006,710.2287,1190.2626Z" fill="#4e7f13"/>
      </g>
      <ellipse cx="781.8476" cy="1087.9284" rx="51.5" ry="48.5" fill="#8eb349"/>
    </g>
    <g>
      <polygon points="774.969 1486.318 822.144 1486.318 805.144 1179.318 792.826 1179.318 774.969 1486.318" fill="#613f2d"/>
      <polygon points="794.991 1274.11 810.383 1287.716 849.207 1232.619 845.188 1229.066 794.991 1274.11" fill="#613f2d"/>
      <polygon points="797.649 1321.875 811.051 1306.305 755.445 1268.211 751.946 1272.277 797.649 1321.875" fill="#613f2d"/>
    </g>
  </g>
</svg>
