<svg id="Correndo_2" data-name="Correndo 2" xmlns="http://www.w3.org/2000/svg" width="2048" height="1502" viewBox="0 0 2048 1502">
  <g>
    <path d="M1079.4851,607.7187c8.1564,0,32.3349-4.2526,42.8212-2.0391,5.5766,1.1772,14.943,8.5216,20.3911,10.1956,7.3741,2.2657,23.5446,2.9676,30.5866,6.1173,4.29,1.919,11.7053,6.26,14.2738,10.1955,1.3435,2.0589,1.5626,7.3178,2.8515,9.4113,1.6988,2.7592,6.2756,8.0233,9.3831,8.9407,2.1662.6395,8.1383.9323,10.1956,0,1.6121-.7306,3.5671-4.4134,4.2574-6.0432,1.4925-3.5237-.7542-11.4925-1.6133-15.2215a43.4875,43.4875,0,0,0-2.6441-7.3052c-1.6512-3.2852-5.4475-9.7341-8.1117-12.2681-11.8842-11.3034-56.4676-33.3986-56.4676-33.3986l-80.1974,8.9852S1072.8384,607.7187,1079.4851,607.7187Z" fill="#212322"/>
    <ellipse cx="1099.8761" cy="725.987" rx="120.3074" ry="14.2738" fill="#343031" opacity="0.5"/>
    <path d="M1036.6638,562.8584c1.7317,2.7327,15.075,12.8535,14.2738,16.3128-.7474,3.2267-40.7822,28.5475-44.86,30.5866-2.8354,1.4178-23.5912,12.4252-26.6019,14.3331-10.9395,6.9321-23.5512,6.6441-28.169-.6433s.5069-18.8145,11.4464-25.7466c3.2314-2.0477,21.9593-12.9449,24.9725-14.4516C991.8034,581.21,1033.41,557.7237,1036.6638,562.8584Z" fill="#212322"/>
    <path d="M1296.86,518.5885c1.684,1.98,1.4454,9.0833-.3365,10.9758-5.7318,6.087-23.21,12.7313-31.1555,15.3344a44.62,44.62,0,0,1-11.7908,1.5326,67.563,67.563,0,0,1-16.5832-2.7815,113.1961,113.1961,0,0,0-12.03-3.0207c-5.0774-.4552-19.0282,2.826-19.0282,2.826l-9.0093-15.0506s13.6544-1.041,18.2133-.9569a107.1219,107.1219,0,0,1,12.8449,1.1516c3.5468.6429,10.341,3.2584,13.8991,3.8356,4.2993.6975,13.1887,2.03,17.3983.9123,3.5528-.9437,9.1915-6.1022,12.3665-7.955,2.8192-1.6453,9.2194-7.0886,12.3665-7.9551C1287.3117,516.5291,1294.6442,515.9835,1296.86,518.5885Z" fill="#212322"/>
    <path d="M1209.988,550.6237c0,18.2355-44.86,30.5866-57.0951,34.6649-7.6392,2.5464-38.1094,8.1564-46.8994,8.1564-24.6411,0-39.8349.1184-57.095-2.0391-16.3129-2.0391-28.5476-16.3129-22.43-30.5866,8.8724-20.7023,53.7434-50.9777,99.9162-50.9777S1209.988,528.1,1209.988,550.6237Z" fill="#343031"/>
    <path d="M1234.4573,601.6014c-9.2209,14.154-44.9642,15.2556-65.2515,2.0391-7.0767-4.61-16.3129-8.1564-22.43-16.3128-8.0352-10.7136,3.1421-26.9485,9.1465-36.1652,9.2208-14.154,47.9485-12.7734,52.0268-8.6952C1224.3887,558.9071,1243.6781,587.4475,1234.4573,601.6014Z" fill="#343031"/>
    <path d="M1260.9657,605.68c10.2823,17.8095,11.1643,31.8468,2.1866,37.03s-16.3736-.8686-26.6559-18.6781c-4.1892-7.2558-20.3911-10.1955-26.5084-16.3129-6.8418-6.8417,14.8965-35.373,20.391-32.6257,4.0783,2.0391,6.443,5.4326,14.2738,12.2347C1249.4258,591.4736,1257.0718,598.9352,1260.9657,605.68Z" fill="#343031"/>
    <path d="M1265.0439,613.8361c6.1173,10.1955,6.512,25.0618.1475,28.8736-6.2649,3.7521-8.304,3.7521-14.4213-.3261s-11.6657-11.832-14.2737-18.352c-.7573-1.8933,9.47,1.0361,16.3128-2.0391S1263.0405,610.4971,1265.0439,613.8361Z" fill="#fffffd"/>
    <path d="M1089.2392,515.9077s4.52-1.9879,6.5587-1.9879-2.1488,13.46-4.0221,17.6456c-2.4353,5.441-9.9007,13.03-14.33,17.0192-4.4172,3.9789-14.9345,9.8751-20.3911,12.2347-4.04,1.7469-12.6015,6.0941-16.94,6.8343-4.2678.7281-11.6072,3.3612-15.2454,3.1139-1.6467-.112,0-8.6412,0-8.6412Z" fill="#212322"/>
    <g>
      <path d="M1039.5685,415.28c2.3924-3.8816,26.6468-9.1015,35.7931-11.1467,13.2747-2.9685,52.0417-9.7016,53.8922-7.49s-10.8341,29.7437-13.2264,33.6253S1103.43,452.228,1099.1,459.4706c-1.7548,2.9352-5.5655,10.97-9.2082,11.464C1071.3037,473.4544,1029.7263,431.2486,1039.5685,415.28Z" fill="#343031"/>
      <path d="M947.9031,433.1628c.491-5.52,10.3241-23.2121,22.203-42.4852,9.57-15.5261,29.2945-30.1491,31.3256-29.9684s5.0575,13.877,5.9566,25.0956c.9484,11.8327,1.9751,24.0667,1.9751,24.0667S946.4475,449.53,947.9031,433.1628Z" fill="#212322"/>
      <path d="M1096.21,491.9681c-3.6415,40.9435-49.1322,77.5165-94.5627,73.4759-24.3157-2.1626-58.6025-2.1259-71.8547-20.7208-11.5076-16.147-3.7653-49.7348-2.0728-68.7641,3.6415-40.9435,43.4222-70.8593,88.8527-66.8187S1099.8513,451.0246,1096.21,491.9681Z" fill="#343031"/>
      <ellipse cx="958.0933" cy="525.7451" rx="25.4888" ry="32.6257" transform="translate(349.5382 1433.4959) rotate(-84.9175)" fill="#fffffd"/>
      <path d="M1091.337,454.6859c6.4546-3.52,26.3162-42.6969,24.4657-44.9087s-54.2535,11.552-54.6148,15.6142C1060.784,429.9331,1087.3341,456.869,1091.337,454.6859Z" fill="#cc705b"/>
      <ellipse cx="1004.9914" cy="481.808" rx="20.3911" ry="12.2346" transform="translate(377.5562 1402.9333) rotate(-81.3526)" fill="#0f6"/>
      <ellipse cx="1002.8802" cy="482.7656" rx="15.2933" ry="8.1846" transform="translate(374.8158 1401.6598) rotate(-81.3526)" fill="#212322"/>
      <ellipse cx="1001.2905" cy="477.3846" rx="6.1173" ry="4.0782" transform="translate(163.5037 1204.4278) rotate(-66.4423)" fill="#fffffd"/>
      <ellipse cx="939.0436" cy="475.9466" rx="18.3799" ry="9.2216" transform="translate(327.3187 1332.7551) rotate(-81.3526)" fill="#0f6"/>
      <ellipse cx="937.9068" cy="476.8888" rx="13.2072" ry="6.0774" transform="translate(325.4214 1332.4317) rotate(-81.3526)" fill="#212322"/>
      <ellipse cx="936.5882" cy="473.3361" rx="5.3434" ry="3.5537" transform="translate(174.6577 1194.936) rotate(-70.254)" fill="#fffffd"/>
      <ellipse cx="951.0528" cy="512.836" rx="7.1369" ry="10.1955" transform="translate(355.9798 1414.7175) rotate(-84.9175)" fill="#cc705b"/>
      <rect x="947.9299" y="519.9248" width="4.0782" height="10.1955" transform="translate(50.2466 -82.0931) rotate(5.0825)" fill="#212322"/>
      <path d="M949.3407,532.0867c1.8354-.18,4.2121,3.5984,5.728,4.6488a20.4761,20.4761,0,0,0,3.8915,2.2808c2.3531.7522,7.4349,1.4271,9.8429.8754a16.0965,16.0965,0,0,0,4.42-2.6439,19.8784,19.8784,0,0,0,2.8124-2.7869,16.8827,16.8827,0,0,0,2.0983-3.8627c.34-1.1262,1.3979-4.0379.4168-4.6871-1.0158-.6723-3.44,1.4307-4.2984,2.2947-.7789.7837-1.3466,3.0655-2.0576,3.9113-.9667,1.15-3.316,3.25-4.7582,3.6711-1.468.4289-4.6113-.1641-6.0933-.5419a22.1656,22.1656,0,0,1-5.9126-2.573,32.4178,32.4178,0,0,1-3.7009-4.4235l-4.086-.0934a38.0154,38.0154,0,0,1-2.3686,3.6137,7.3362,7.3362,0,0,1-2.2117,1.85c-.9728.3052-3.2548.2613-4.0622-.3613-.7482-.5769-1.1157-2.6255-1.281-3.5558-.2076-1.169,1.023-4.1958-.0275-4.7492-.8549-.45-2.78,1.2971-3.2,2.1675-.6289,1.3047.4463,5.7762.4463,5.7762s2.4229,3.7559,3.7009,4.4235c1.3158.6874,4.5442,1.0965,5.9147.5261C946.2828,537.128,947.4772,532.27,949.3407,532.0867Z" fill="#212322"/>
      <path d="M987.3415,519.1342s20.2057-5.3564,27.1267-5.776c8.6951-.527,34.7071,3.0869,34.7071,3.0869s-1.64,1.9013-2.39,1.8345c-4.0621-.3613-22.0665-2.4246-30.1633-1.94-7.492.4482-29.5184,5.4733-29.5184,5.4733Z" fill="#fffffd"/>
      <path d="M986.347,530.3164s26.0691,3.3292,34.6157,5.1258c6.9352,1.4579,27.5362,9.6029,27.5362,9.6029a8.9067,8.9067,0,0,1-1.9161.5495c-7.0905-.1048-20.2942-6.4747-27.2354-7.9259-8.21-1.7165-33.27-4.3168-33.27-4.3168Z" fill="#fffffd"/>
      <path d="M985.7157,537.414s23.6719,7.3264,31.7749,11.0147c5.1243,2.3325,21.4105,11.653,21.4105,11.653a22.392,22.392,0,0,1-4.0339.1283c-5.844-1.2044-17.0654-7.9977-21.6195-10.1115-7.9583-3.6938-28.9368-10.0424-28.9368-10.0424Z" fill="#fffffd"/>
      <path d="M935.0076,509.4855l-2.3249,2.74s-8.8665-3.8652-11.8253-5.1461c-2.9929-1.2957-8.82-4.36-11.9815-5.16-6.9733-1.7634-21.4656-2.5235-28.6584-2.5489-3.007-.0106-11.9878.981-11.9878.981a14.001,14.001,0,0,1,2.2118-1.8505c2.366-1.0763,7.2353-1.1468,10.3361-1.1278,8.3411.0511,25.12,1.02,33.234,2.9558,2.9691.7083,8.5452,3.2986,11.34,4.525C927.8038,505.93,935.0076,509.4855,935.0076,509.4855Z" fill="#fffffd"/>
      <path d="M927.4016,521.27s-16.35-1.9885-21.8286-1.9414a136.3079,136.3079,0,0,0-19.486,2.0712c-4.6544.9475-18.1745,5.5374-18.1745,5.5374s3.0426.3716,4.0621.3613c3.7379-.0379,10.5326-1.1523,14.8344-1.8753,4.7413-.7968,14.2948-2.0463,19.0979-2.2606,5.3149-.2371,21.2722.61,21.2722.61Z" fill="#fffffd"/>
      <path d="M929.0258,530.3249s-17.8167,3.08-22.8839,4.1062c-3.16.64-9.4445,2.104-12.5478,2.9783-3.7369,1.0528-11.4394,2.8167-14.76,4.8288-1.7226,1.0439-5.5841,3.5977-5.5841,3.5977a27.4352,27.4352,0,0,0,4.6871.4168c3.5084-.4752,9.91-3.8285,13.2642-4.9617,2.9517-.9972,8.9182-2.8054,11.9288-3.6071,4.3165-1.1495,13.03-3.1421,17.41-4.0194,1.9651-.3936,7.9032-1.3442,7.9032-1.3442Z" fill="#fffffd"/>
    </g>
    <path d="M1189.5969,640.3445c.7858,3.1434,7.088,9.2781,10.1955,10.1955,2.1662.6395,8.1383.9323,10.1956,0,1.6121-.7306,3.5671-4.4134,4.2574-6.0432,1.4925-3.5237-.1792-14.3479-1.6133-15.2215-2.4678-1.5032-5.2386,1.9727-10.8006,4.9518C1196.0569,637.32,1187.5578,632.188,1189.5969,640.3445Z" fill="#d2cfda"/>
    <path d="M1033.7126,644.9271c-12.4405,15.1778-29.0653,22.1215-37.1325,15.5093s-4.9825-21.227,7.458-36.4048c5.0918-6.2121,15.8565-15.8565,20.3911-20.3911,8.1564-8.1564,21.743-32.4534,26.5084-28.5475,3.3117,2.7145,44.6042,2.1255,42.8212,10.1956-1.27,5.7459-22.43,26.5084-26.5084,30.5866C1063.6915,619.4341,1037.41,640.4163,1033.7126,644.9271Z" fill="#343031"/>
    <path d="M1033.7126,644.9271c-12.4405,15.1778-29.0653,22.1215-37.1325,15.5093s-4.9825-21.227,7.458-36.4048C1009.13,617.82,1037.41,640.4163,1033.7126,644.9271Z" fill="#fffffd"/>
    <path d="M983.647,621.9925c-10.1955,8.1564-26.5084,10.1955-32.3407,1.4551-4.7887-7.1763.5069-18.8145,11.4464-25.7466C965.9841,595.6533,986.43,619.7659,983.647,621.9925Z" fill="#d2cfda"/>
  </g>
</svg>
