<svg id="Correndo_3" data-name="Correndo 3" xmlns="http://www.w3.org/2000/svg" width="2048" height="1502" viewBox="0 0 2048 1502">
  <g>
    <path d="M597.5578,602.25s-9.5315,5.4753-12.3889,7.7521c-4.264,3.3978-11.8316,11.32-15.4044,15.4381a66.375,66.375,0,0,0-6.0294,8.0172,67.11,67.11,0,0,0-4.02,10.0712c-.6278,2.0583-1.06,6.3988-1.8136,8.4147a38.11,38.11,0,0,1-4.2159,7.6638c-.9186,1.1694-2.9986,3.4805-4.3845,4.02a15.9431,15.9431,0,0,1-8.2928,0c-2.229-.8141-5.8518-4.2059-7.2575-6.1178a33.5856,33.5856,0,0,1-4.183-9.9607,43.8853,43.8853,0,0,1,0-12.5006c.6966-3.7158,3.7752-10.72,5.4773-14.0951a108.6242,108.6242,0,0,1,8.5914-13.6007c1.7223-2.196,5.4086-6.5134,7.7454-8.0392,3.6522-2.3847,12.0783-5.2639,16.3724-6.0295,6.6888-1.1925,27.1769,0,27.1769,0Z" fill="#212322"/>
    <path d="M609.9609,627.45s33.8206-.3927,44.746,2.01c4.7561,1.0459,13.5091,3.6516,17.6819,6.162,5.6267,3.3851,16.2217,11.2993,20.9051,15.9019a89.249,89.249,0,0,1,11.1284,14.1128c1.3541,2.3427,2.6573,7.7113,4.02,10.0491a54.8089,54.8089,0,0,0,8.0392,10.0491,19.3221,19.3221,0,0,0,5.4111,3.3876c2.1493.6173,6.94.99,8.9448,0,1.9727-.9741,4.4139-4.9965,5.35-6.9876a34.9206,34.9206,0,0,0,2.402-10.4687c.0814-3.3975-1.7921-10.0366-2.402-13.38-.3983-2.1832-1.0529-6.5821-1.6176-8.7282a89.002,89.002,0,0,0-3.1362-9.1152c-4.0766-9.5891-18.9718-37.1106-18.9718-37.1106H608.194l-32.4-2.01s2.549,9.4272,4.02,12.0589C583.5549,620.0767,609.9609,627.45,609.9609,627.45Z" fill="#212322"/>
    <path d="M559.7155,643.5288c-.6278,2.0583-1.06,6.3988-1.8136,8.4147a38.11,38.11,0,0,1-4.2159,7.6638c-.9186,1.1694-2.9986,3.4805-4.3845,4.02a15.9431,15.9431,0,0,1-8.2928,0c-2.229-.8141-5.8518-4.2059-7.2575-6.1178-1.6-2.176-4.183-7.9509-4.183-11.9705C529.5682,642.4134,560.5063,640.9357,559.7155,643.5288Z" fill="#d2cfda"/>
    <path d="M847.869,543.7231c1.9917,1.8462,2.6216,9.2449,1.0067,11.4283-5.1945,7.0231-22.5066,16.0753-30.428,19.7573a46.6108,46.6108,0,0,1-12.043,3.0465,70.5817,70.5817,0,0,1-17.5479-.8371c-2.0905-.4106-10.7241-1.71-12.8536-1.6477-5.3238.1549-19.3917,5.2823-19.3917,5.2823l-11.2059-14.5013s14.0372-2.7668,18.7771-3.2426a111.9028,111.9028,0,0,1,13.4682-.3921c3.7592.229,11.1308,2.1031,14.8935,2.2624,4.5465.1925,13.9334.4773,18.1625-1.2027,3.5693-1.4179,8.782-7.4662,11.847-9.7806,2.7215-2.0552,8.6891-8.4929,11.8469-9.7807C837.7091,542.766,845.2488,541.2942,847.869,543.7231Z" fill="#212322"/>
    <ellipse cx="644.1278" cy="725.9313" rx="118.5792" ry="14.0687" fill="#343031" opacity="0.5"/>
    <path d="M759.2213,594.0568c-3.557,17.7089-51.5013,27.7932-64.8481,23.3443-6.0294-2.01-38.1865,0-54.265,0-20.8124,0-41.2525-3.7132-50.2455-16.0785-16.0785-22.108,13.8012-33.8994,20.0982-40.1964,6.0295-6.0294,14.3415-19.881,32.1571-22.108,16.0785-2.01,30.6928-2.8734,48.7213.7478,21.3756,4.2936,41.7174,14.77,53.7328,24.8311C755.4962,573.7445,761.1991,584.21,759.2213,594.0568Z" fill="#343031"/>
    <path d="M768.7365,619.4109c2.4592,7.3777,4.9406,26.9556-4.02,32.1571-7.0262,4.0788-24.1179-4.02-32.1571-6.0294-17.6563-4.4141-30.1473-16.0786-38.1866-28.1375-2.8861-4.3292.5524-6.04,4.02-10.0491,5.7788-6.6827,23.0669-14.0687,34.1669-14.0687,8.88,0,23.7924-13.0351,26.1276-6.0294C760.6972,593.2833,766.7267,613.3815,768.7365,619.4109Z" fill="#343031"/>
    <path d="M786.9317,666.1267c2.3651,10.845-2.1052,21.03-9.9845,22.7479s-16.1841-5.68-18.5491-16.5253c-.7963-3.6511-17.7991-24.8009-21.8187-26.8107-3.3562-1.6781,15.867-11.8235,18.0868-14.0687,1.584-1.6023,13.074-12.0417,14.07-10.0491,2.01,4.02,11.1293,24.2683,14.0687,30.1472C784.815,655.5877,786.1623,662.5986,786.9317,666.1267Z" fill="#343031"/>
    <path d="M786.9317,666.1267c2.3651,10.845-2.1052,21.03-9.9845,22.7479-3.94.8592-8.4158.7757-12.2027-2.888s-6.8844-10.9077-8.0669-16.33c-.7962-3.6511,12.0589-4.02,14.0671-4.02,2.0114,0,11.1309-13.9181,14.07-8.0392C786.8248,661.6171,786.1623,662.5986,786.9317,666.1267Z" fill="#fffffd"/>
    <path d="M632.0689,613.3815s-12.0168,10.6-16.0785,14.0687c-2.9843,2.5484-9.2614,7.2971-12.059,10.0491-2.4574,2.4175-6.8273,7.77-9,10.4466a37.7,37.7,0,0,0-3.6333,4.7546c-.5764,1.1381-1.5665,3.6279-1.4356,4.897.24,2.3228,3.6516,6.0268,4.4021,8.238.8023,2.3635,2.3151,7.451,1.6274,9.85-.6285,2.1925-3.951,5.9075-6.0295,6.8467-3.16,1.4278-10.6862,1.3737-13.87,0-3.4286-1.4794-8.5221-7.5549-10.2479-10.8663-1.2744-2.4454-1.9609-8.0568-2.2427-10.8-.4316-4.2018-.761-12.7409,0-16.8957a67.4448,67.4448,0,0,1,6.2623-16.52,92.4556,92.4556,0,0,1,15.04-17.6687c4.6954-3.9505,21.1363-12.4785,21.1363-12.4785Z" fill="#343031"/>
    <path d="M591.8725,661.6171c2.01,0,4.7074,11.6694,4.02,14.0687-.6285,2.1925-3.951,5.9075-6.0295,6.8467-3.16,1.4278-10.6862,1.3737-13.87,0-3.4286-1.4794-12.2577-10.8663-12.2577-16.8958C563.7351,662.8791,589.5374,661.6171,591.8725,661.6171Z" fill="#fffffd"/>
    <path d="M706.4321,671.6662c2.01,6.0295,7.6468,11.9287,10.0491,14.0687a19.3221,19.3221,0,0,0,5.4111,3.3876c2.1493.6173,6.94.99,8.9448,0,1.9727-.9741,4.4139-4.9965,5.35-6.9876,1.1425-2.43,2.402-6.4491,2.402-14.4883,0-1.6775-8.0434.6648-16.0867,1.74C714.2506,670.4905,705.9988,670.3663,706.4321,671.6662Z" fill="#d2cfda"/>
    <path d="M636.8174,540.0121s5.3006-.9939,6.5648-1.1489c3.4781-.4267-1.2121,12.63-2.9648,16.5892a74.0617,74.0617,0,0,1-6.3387,10.5215,89.4379,89.4379,0,0,1-10.7558,11.8906c-3.4676,2.873-11.4744,9.1434-15.3718,11.3992-2.716,1.572-9.9584,5.3385-13.0195,6.0294-2.2659.5115-9.62,3.0984-11.2864,1.48-1.0137-.9847,1.5237-9.6517,1.5237-9.6517Z" fill="#212322"/>
    <g>
      <path d="M585.4628,450.45c2.358-3.8258,26.264-8.9707,35.2789-10.9866,13.084-2.9258,51.2942-9.5622,53.1181-7.3822s-10.6784,29.3165-13.0364,33.1423-12.4163,21.6438-16.6842,28.7824c-1.73,2.8929-5.4855,10.8126-9.0759,11.2993C616.7422,507.7889,575.7619,466.1893,585.4628,450.45Z" fill="#343031"/>
      <path d="M495.1141,468.076c.4839-5.4409,10.1758-22.8787,21.8841-41.8749,9.432-15.3031,28.8737-29.716,30.8756-29.5379s4.9848,13.6777,5.871,24.7351c.9348,11.6627,1.9467,23.721,1.9467,23.721S493.6793,484.2077,495.1141,468.076Z" fill="#212322"/>
      <path d="M641.29,526.0366c-3.5891,40.3554-48.4264,76.4031-93.2043,72.42-23.9665-2.1315-57.7608-2.0953-70.8226-20.4231-11.3423-15.9151-3.7112-49.02-2.043-67.7764,3.5892-40.3554,42.7984-69.8414,87.5763-65.8589S644.88,485.6812,641.29,526.0366Z" fill="#343031"/>
      <ellipse cx="505.1579" cy="559.3285" rx="25.1227" ry="32.1571" transform="translate(-96.7232 1012.9495) rotate(-84.9175)" fill="#fffffd"/>
      <path d="M636.4877,489.29c6.3618-3.47,25.9381-42.0836,24.1142-44.2636s-53.4742,11.386-53.83,15.39C606.3735,464.8927,632.5422,491.4418,636.4877,489.29Z" fill="#cc705b"/>
      <ellipse cx="551.3823" cy="516.0225" rx="20.0982" ry="12.0589" transform="translate(-41.6766 983.5509) rotate(-81.3526)" fill="#0f6"/>
      <ellipse cx="549.3015" cy="516.9663" rx="15.0736" ry="8.067" transform="translate(-44.3776 982.2957) rotate(-81.3526)" fill="#212322"/>
      <ellipse cx="547.7346" cy="511.6626" rx="6.0295" ry="4.0196" transform="matrix(0.3997, -0.9167, 0.9167, 0.3997, -140.1995, 809.2503)" fill="#fffffd"/>
      <ellipse cx="486.3818" cy="510.2453" rx="18.1158" ry="9.0892" transform="translate(-91.1925 914.3808) rotate(-81.3526)" fill="#0f6"/>
      <ellipse cx="485.2613" cy="511.1739" rx="13.0175" ry="5.9901" transform="translate(-93.0625 914.062) rotate(-81.3526)" fill="#212322"/>
      <ellipse cx="483.9617" cy="507.6723" rx="5.2667" ry="3.5027" transform="translate(-157.366 791.6596) rotate(-70.254)" fill="#fffffd"/>
      <ellipse cx="498.2185" cy="546.6048" rx="7.0344" ry="10.0491" transform="translate(-90.3741 994.4409) rotate(-84.9175)" fill="#cc705b"/>
      <rect x="495.1404" y="553.5918" width="4.0196" height="10.0491" transform="translate(51.4423 -41.846) rotate(5.0825)" fill="#212322"/>
      <path d="M496.531,565.579c1.8091-.1776,4.1516,3.5467,5.6457,4.582a20.1765,20.1765,0,0,0,3.8356,2.248c2.3193.7415,7.3281,1.4066,9.7016.8628a15.8632,15.8632,0,0,0,4.3559-2.6059,19.5956,19.5956,0,0,0,2.7721-2.7468,16.6418,16.6418,0,0,0,2.0681-3.8072c.3351-1.11,1.3779-3.98.4109-4.62-1.0013-.6625-3.39,1.41-4.2367,2.2618-.7677.7724-1.3273,3.0215-2.028,3.8552-.9529,1.1336-3.2685,3.2031-4.69,3.6184-1.4469.4226-4.5451-.1619-6.0058-.5342a21.8473,21.8473,0,0,1-5.8277-2.5361,31.9606,31.9606,0,0,1-3.6477-4.36l-4.0273-.0921a37.4665,37.4665,0,0,1-2.3346,3.5618,7.23,7.23,0,0,1-2.18,1.8239c-.9588.3008-3.208.2575-4.0038-.3561-.7376-.5687-1.1-2.5878-1.2626-3.5048-.2047-1.1522,1.0082-4.1355-.0272-4.6809-.8426-.4439-2.74,1.2784-3.154,2.1363-.62,1.286.44,5.6933.44,5.6933s2.3881,3.7019,3.6478,4.36c1.2968.6775,4.4788,1.0807,5.83.5185C493.517,570.5478,494.6943,565.7593,496.531,565.579Z" fill="#212322"/>
      <path d="M533.9859,552.8126s19.9155-5.28,26.7371-5.6931c8.57-.5195,34.2086,3.0425,34.2086,3.0425s-1.6164,1.874-2.356,1.8082c-4.0038-.3561-21.75-2.39-29.73-1.9124-7.3844.4417-29.0944,5.3946-29.0944,5.3946Z" fill="#fffffd"/>
      <path d="M533.0057,563.8341s25.6946,3.2814,34.1185,5.0522c6.8356,1.437,27.1406,9.4649,27.1406,9.4649a8.7725,8.7725,0,0,1-1.8885.5416c-6.9887-.1033-20.0027-6.3816-26.8442-7.812-8.0918-1.6919-32.7925-4.2548-32.7925-4.2548Z" fill="#fffffd"/>
      <path d="M532.3835,570.83s23.3319,7.2212,31.3185,10.8564c5.0506,2.299,21.103,11.4856,21.103,11.4856a22.0676,22.0676,0,0,1-3.976.1265c-5.76-1.1871-16.82-7.8828-21.3089-9.9662-7.844-3.6408-28.5212-9.8982-28.5212-9.8982Z" fill="#fffffd"/>
      <path d="M482.4038,543.3025l-2.2915,2.7008s-8.7392-3.81-11.6554-5.0721c-2.95-1.2771-8.693-4.2978-11.8094-5.0858-6.8732-1.7381-21.1573-2.4873-28.2468-2.5123-2.9638-.01-11.8156.9669-11.8156.9669a13.7977,13.7977,0,0,1,2.18-1.8239c2.332-1.0609,7.1314-1.13,10.1876-1.1116,8.2214.05,24.76,1.0056,32.7566,2.9133,2.9266.6982,8.4226,3.2512,11.1777,4.46C475.3034,539.7979,482.4038,543.3025,482.4038,543.3025Z" fill="#fffffd"/>
      <path d="M474.907,554.9172s-16.1152-1.96-21.515-1.9136a134.36,134.36,0,0,0-19.2061,2.0415c-4.5876.9339-17.9135,5.4579-17.9135,5.4579s2.999.3662,4.0038.3561c3.6843-.0374,10.3813-1.1358,14.6213-1.8484,4.6732-.7853,14.09-2.0169,18.8236-2.2281,5.2386-.2338,20.9666.6009,20.9666.6009Z" fill="#fffffd"/>
      <path d="M476.5079,563.8425s-17.5608,3.0359-22.5552,4.0472c-3.1146.6307-9.3089,2.0738-12.3676,2.9356-3.6832,1.0376-11.275,2.7762-14.5475,4.7594-1.6979,1.0289-5.5039,3.5459-5.5039,3.5459a27.0318,27.0318,0,0,0,4.62.4109c3.458-.4683,9.7676-3.7736,13.0736-4.8905,2.9093-.9828,8.79-2.765,11.7575-3.5552,4.2545-1.133,12.8426-3.097,17.16-3.9617,1.9369-.3879,7.79-1.3249,7.79-1.3249Z" fill="#fffffd"/>
    </g>
  </g>
</svg>
