<svg xmlns="http://www.w3.org/2000/svg" width="1920" height="1082" viewBox="0 0 1920 1082">
  <g id="Interface_Coração" data-name="Interface Coração">
    <g>
      <g>
        <path d="M1050.4353,619c1.1122,60.7892,3.2411,183.6071-3.1658,187.8784a1.1783,1.1783,0,0,1-.4782.1626c8.882,1.3621,74.3278-69.6255,74.3278-69.6255S1186.65,670.8207,1211.0032,619Z" fill="#fff"/>
        <path d="M1043.3591,619c-1.1122,60.7892-3.2411,183.6071,3.1658,187.8784a1.1782,1.1782,0,0,0,.4783.1626c-8.8821,1.3621-74.3279-69.6255-74.3279-69.6255S907.1443,670.8207,882.7913,619Z" fill="#fff"/>
        <ellipse cx="1047" cy="788" rx="10" ry="19" fill="#fff"/>
      </g>
      <path d="M1134.8635,509A77.9133,77.9133,0,0,0,1105,514.6682V745.3675c13.5446-13.2221,25-25.0855,25-25.0855s88.7954-86.1483,89.973-130.02C1221.1772,545.3971,1181.8682,509,1134.8635,509Z" fill="#fff"/>
      <path d="M958.1365,509A77.9133,77.9133,0,0,1,988,514.6682V745.3675c-13.5446-13.2221-25-25.0855-25-25.0855s-88.7954-86.1483-89.973-130.02C871.8227,545.3971,911.1318,509,958.1365,509Z" fill="#fff"/>
      <path d="M1119.0652,497c-42.8788,0-72.1237,23.7935-82.0652,56.7562v3.6078a90.85,90.85,0,0,1,2.7644,22.3931c0,20.2309,5.5354,189.0982-2.7644,193.8849v.1551c10.9121-.8471,76.5277-61.6286,76.5277-61.6286s101.1008-87.733,102.4415-132.4114C1217.3405,534.0667,1172.5837,497,1119.0652,497Z" fill="#fff"/>
      <path d="M974.9347,497c42.8788,0,72.1237,23.7935,82.0652,56.7562v3.6078a90.8544,90.8544,0,0,0-2.7644,22.3931c0,20.2309-5.5354,189.0982,2.7644,193.8849v.1551c-10.9121-.8471-76.5277-61.6286-76.5277-61.6286s-101.1008-87.733-102.4415-132.4114C876.66,534.0667,921.4162,497,974.9347,497Z" fill="#fff"/>
    </g>
  </g>
  <g id="Coração">
    <g>
      <path d="M1195.9745,594.6149c-1.1154,43.5218-85.2215,128.9837-85.2215,128.9837s-58.7425,63.7183-64.4918,59.8854c-6.91-4.6066-2.3033-169.1584-2.3033-188.8691,0-44.5224,26.8793-80.6149,71.4017-80.6149S1197.1151,550.1071,1195.9745,594.6149Z" fill="#f7514e"/>
      <path d="M897.3725,594.6149c1.1153,43.5218,85.2214,128.9837,85.2214,128.9837s58.7425,63.7183,64.4919,59.8854c6.91-4.6066,2.3033-169.1584,2.3033-188.8691,0-44.5224-26.8794-80.6149-71.4018-80.6149S896.2318,550.1071,897.3725,594.6149Z" fill="#f7514e"/>
    </g>
    <path d="M970.638,531.57c3.0521,4.2677-13.4,6.5842-28.8982,17.6681s-21.4875,22.5208-24.54,18.2532,1.7107-19.1385,17.209-30.2224S967.5859,527.3026,970.638,531.57Z" fill="#fff"/>
  </g>
</svg>
