<svg id="Parado" xmlns="http://www.w3.org/2000/svg" width="2048" height="1502" viewBox="0 0 2048 1502">
  <g>
    <g>
      <g>
        <ellipse cx="1025.0419" cy="858.7735" rx="97.5" ry="23.5" fill="#343031" opacity="0.5"/>
        <path d="M957.2545,767.8024s-.2383,8.05-.0416,10.7239a61.5754,61.5754,0,0,0,1.329,8.7472c.3535,1.2991,1.7454,3.678,2,5,.2665,1.3839,1.12,3.1447,0,4-1.2357.9437-4.4651.7515-6,1a9.9519,9.9519,0,0,0-5,3c-1.3553,1.7854-2.6481,5.7863-3,8a56.8939,56.8939,0,0,0,0,13,67.5007,67.5007,0,0,0,4,13c1.1874,2.6628,4.5,7.5,6,10,.75,1.25,1.7671,4.2223,3,5,11.82,7.4558,41.6889,4.6435,55.6484,5.3077,6.7424.3208,20.2642.4375,27,0,12.1647-.79,38.1669.3913,48.3516-6.3077,1.4584-.9592,2.6345-4.5271,3.5715-6,1.2972-2.0393,4.3577-5.8331,5.4285-8a47.3267,47.3267,0,0,0,3-9c.8051-4.1805,1.7332-12.8062,1-17-.3278-1.8755-1.7017-5.6073-3-7-.9584-1.0281-4.006-3.006-5-4-1-1-1.728-5.4024-2-6-1.3894-3.0527-5-3.6459-5-7,0-6,1-17,1-17Z" fill="#212322"/>
        <ellipse cx="968.5419" cy="851.7735" rx="15" ry="9.5" fill="#d2cfda"/>
        <ellipse cx="1080.5419" cy="851.7735" rx="15" ry="9.5" fill="#d2cfda"/>
        <path d="M968.5419,739.9548a72.1346,72.1346,0,0,0-5,6.3187,64.0119,64.0119,0,0,0-4,10,64.8031,64.8031,0,0,0-2,9c-.1457,1.3272-.6612,4.1807,0,5.3407,2.59,4.5436,11,7.6593,16,10.6593,3.6514,2.1909,1.8669,12.7768,2,17.033.1251,3.9976.559,11.9918,1,15.967.3495,3.1495,1.3793,9.4091,2,12.5165.6287,3.1476,2.2724,9.3574,3,12.4835.5159,2.2162,1.3544,6.6973,2,8.8791.6142,2.0754,1.2241,6.8838,3,8.1209,5.6738,3.9526,22.6338,4.75,27.6594,0,2.5478-2.4078.6922-10.4958.7912-14,.1246-4.413.1571-13.2473,0-17.6593-.1815-5.0949-.9084-15.2715-1.4506-20.3407-.376-3.5155-2-14-2-14s10.125,1,13.5,1c3.125,0,12.5-1,12.5-1s-1.6491,11.9842-2,16c-.4357,4.9873-.8012,14.9977-1,20-.1887,4.7483-.6565,14.2489-.56,19,.04,2.0045-.906,6.6328.56,8,5.12,4.7737,22.2465,3.9872,28,0,1.7557-1.2166,2.3791-5.9562,3-8,1.2691-4.1775,3.0913-12.73,4-17,1.1123-5.2273,3.4978-15.6792,4-21,.3687-3.9057,0-11.7692,0-15.6923,0-2.4725-1.1319-7.6919,0-9.89,2.25-4.3689,14.2406-6.8293,16-11.4176.8253-2.1521-1.3548-6.7872-2-9-.8191-2.8092-2.524-8.4733-4-11-1.1626-1.99-7-9-7-9Z" fill="#343031"/>
        <ellipse cx="999.0419" cy="858.7735" rx="20.5" ry="13.5" fill="#fffffd"/>
        <ellipse cx="1051.0419" cy="858.7735" rx="20.5" ry="13.5" fill="#fffffd"/>
        <path d="M1084.5419,785.2735s6.8149-1.4083,9-2a47.9924,47.9924,0,0,0,9-4,74.7865,74.7865,0,0,0,9-6,21.008,21.008,0,0,0,4-5,30.006,30.006,0,0,0,2-6c.46-2.5077,1.4407-7.5126,2-10,.4523-2.0113,1.166-6.1147,2-8a24.7832,24.7832,0,0,1,4-6,16.1207,16.1207,0,0,1,5-3,10.14,10.14,0,0,1,4.7143,0,7.9122,7.9122,0,0,1,3.2857,3c1.081,2.4508.1608,8.0406,0,10.7143a62.2118,62.2118,0,0,1-1,8.2857,60.2524,60.2524,0,0,1-3,8,78.6315,78.6315,0,0,1-6,11c-2.1181,2.8308-7.0623,8.0327-10,10-2.7,1.8085-9.0656,3.6029-12,5-3.3327,1.5868-13,7-13,7Z" fill="#212322"/>
      </g>
      <path d="M1077.0655,742.5s1.8018,1.3434,2.329,1.8729c.4031.405,1.2425,1.6271,2.2425,2.6271.972.972-3.637,1-6,2-1.628.6889-7.0559,2.2094-8.637,3-2,1-12.0271,3.3424-14,4-3,1-16.97,4.0724-31,4-9.3415-.0482-19.5621-.0785-28-3-6.8551-2.3735-13-4-16-5-2.1477-.7159-8.1456-2.544-10.363-3-1.1169-.23-4.9053-1.3226-4.3638-2.326a23.15,23.15,0,0,1,2.3865-3.4356A30.2309,30.2309,0,0,1,968.637,741Z" fill="#212322"/>
      <path d="M1117.1907,674.8791c-2.8888,23.7569-7.763,44.5538-25.0837,60.0013-16.6551,14.8539-44.3735,18.9987-69.4163,18.9987-25.7593,0-54.0593-4.6756-70.8309-20.2876-16.49-15.35-21.0314-35.4966-22.6691-58.7124-1.1907-16.8791-2.8811-44.3941,10-59,16.9587-19.2294,54.4664-21,83.5-21,28.1974,0,67.448,2.5939,84.4143,20.8771C1120.8772,630.5973,1119,660,1117.1907,674.8791Z" fill="#343031"/>
    </g>
    <ellipse cx="1023.5" cy="712" rx="46.5" ry="29" fill="#fffffd"/>
    <path d="M1022.4951,705.3626h3.6148s-.5484,9.6162,0,12.7583a10.1987,10.1987,0,0,0,.89,2.4725A19.0783,19.0783,0,0,0,1029,723a18.3253,18.3253,0,0,0,2,2,18.6227,18.6227,0,0,0,2,1,12.9955,12.9955,0,0,0,2,1,17.6513,17.6513,0,0,0,5.6484,0A11.6874,11.6874,0,0,0,1043,726a13.81,13.81,0,0,0,3-2,24.5612,24.5612,0,0,0,2-4c.1477-.6257-.2776-1.9916,0-2.5714a2.763,2.763,0,0,1,1.55-1.2473A2.1676,2.1676,0,0,1,1051,717c.615,1.0534.2665,3.6888,0,4.8791A25.2925,25.2925,0,0,1,1048,726a23.5766,23.5766,0,0,1-2,2,19.0208,19.0208,0,0,1-2,1,12.83,12.83,0,0,1-1.967,1,23.9214,23.9214,0,0,1-6.9231,0,14.9121,14.9121,0,0,1-3.11-1,20.8461,20.8461,0,0,1-3-2c-.5433-.44-1.5054-1.4616-2-1.956-.5056-.5055-1.73-1.382-2-2.044-.2832-.6945-1-3-1-3h1s-.7864,2.1837-1,2.8681a7.9334,7.9334,0,0,1-1.5049,2.1759A22.4943,22.4943,0,0,1,1020,727a34.5213,34.5213,0,0,1-3,2,12.1439,12.1439,0,0,1-2.4615,1,21.2478,21.2478,0,0,1-6.033,0A22.5492,22.5492,0,0,1,1006,729a35.41,35.41,0,0,1-5-3,23.5766,23.5766,0,0,1-2-2,7.6839,7.6839,0,0,1-1-2,6.52,6.52,0,0,1,0-3.1868c.1949-.4071.9552-1.135,1.4066-1.1319.5171.0036,1.3733.8508,1.5934,1.3187.3193.6787-.287,2.3071,0,3,.2706.6533,1.5,1.5,2,2a31.2157,31.2157,0,0,0,3,2,12.9955,12.9955,0,0,0,2,1,15.5444,15.5444,0,0,0,6,0,35.2777,35.2777,0,0,0,6-4,9.1326,9.1326,0,0,0,1-2,19.9537,19.9537,0,0,0,1-3C1022.5675,714.89,1022.4951,705.3626,1022.4951,705.3626Z" fill="#212322"/>
    <ellipse cx="1024" cy="699.5" rx="12" ry="8.5" fill="#cc705b"/>
    <path d="M989,598s-7.4321-4.62-10-6c-5.614-3.018-17.1629-8.44-23-11-4.9317-2.1629-14.8487-6.43-20-8a121.8494,121.8494,0,0,0-14-3c-3.7222-.52-12.2555-3.5676-15-1-1.0552.9872-.2151,4.3513,0,5.78,1.1377,7.5585,6.6369,21.9506,9,29.22,2.9562,9.0937,8.5453,27.4307,12.3878,36.1868C928.938,641.4405,931,645,931,645Z" fill="#343031"/>
    <path d="M1056.4794,598s7.4321-4.62,10-6c5.614-3.018,17.163-8.44,23-11,4.9318-2.1629,14.8488-6.43,20-8a121.8494,121.8494,0,0,1,14-3c3.7222-.52,12.2555-3.5676,15-1,1.0553.9872.2151,4.3513,0,5.78-1.1376,7.5585-6.6369,21.9506-9,29.22-2.9562,9.0937-8.5453,27.4307-12.3877,36.1868-.55,1.2537-2.6123,4.8132-2.6123,4.8132Z" fill="#343031"/>
    <path d="M933,639s10.9808-9.289,14.74-12.2637C952.2193,623.1913,966,613,966,613s-7.2658-7.7585-10-10c-4.1825-3.4288-13.3584-9.2241-18-12-3.6475-2.1814-11.0337-6.4732-15-8-1.9239-.7406-8.1866-4.0531-8-2C916,592,933,639,933,639Z" fill="#cc705b"/>
    <path d="M1112.9959,639s-10.9807-9.289-14.74-12.2637c-4.48-3.545-18.26-13.7363-18.26-13.7363s7.2658-7.7585,10-10c4.1825-3.4288,13.3584-9.2241,18-12,3.6475-2.1814,11.0337-6.4732,15-8,1.9239-.7406,8.1867-4.0531,8-2C1129.9959,592,1112.9959,639,1112.9959,639Z" fill="#cc705b"/>
    <g>
      <ellipse cx="973.7195" cy="666" rx="25.7195" ry="22" fill="#0f6"/>
      <ellipse cx="973.5" cy="666" rx="13.5" ry="21" fill="#212322"/>
      <ellipse cx="968.5" cy="661" rx="6.5" ry="10" fill="#fffffd"/>
    </g>
    <g>
      <ellipse cx="1073.7195" cy="666" rx="25.7195" ry="22" fill="#0f6"/>
      <ellipse cx="1073.5" cy="666" rx="13.5" ry="21" fill="#212322"/>
      <ellipse cx="1068.5" cy="661" rx="6.5" ry="10" fill="#fffffd"/>
    </g>
    <path d="M980,705s-5.1878-2.416-7-3c-2.1938-.707-17.2334-1.6232-19.978-1.5-2.7781.1247-8.275.0672-11.022.5a68.8773,68.8773,0,0,0-6.978,1.25c-1.05.3176-4.022,1.75-4.022,1.75s2.3518.0453,3.1319-.022c1.4817-.1278,4.3924-.7929,5.8681-.978,2.2077-.2769,6.6452-.6562,8.8681-.75,3.28-.1385,9.8525-.1534,13.1319,0a66.765,66.765,0,0,1,8,.75c2.3208.4889,9,3,9,3Z" fill="#fffffd"/>
    <path d="M980,717.8085s-6.07-.1209-8.0879,0c-2.4914.1492-7.4475.7975-9.9121,1.1915-2.5175.4024-7.5263,1.383-10,2-2.5325.6316-7.5738,2.0378-10,3-2.0786.8243-8,4-8,4s4.5238-.635,6-1c2.0451-.5057,5.9726-2.0756,8-2.6484,2.4715-.6981,7.4858-1.8278,10-2.3516,2.7363-.57,8.2255-1.6616,11-2,2.7352-.3336,11-.6923,11-.6923Z" fill="#fffffd"/>
    <path d="M984,725s-5.254,1.8765-7,2.5165c-3.0069,1.1022-8.9837,3.4074-12,4.4835-2.3627.8429-8.1877,3.2579-10.5,4.2308-2.41,1.0139-6.31,2.0649-8.3307,3.724A30.5753,30.5753,0,0,0,943,744s6.2669-3.0106,8.3407-4.0452c2.4285-1.2116,7.1573-2.9033,9.6593-3.9548,2.9153-1.2252,8.9908-4.028,12-5,2.3912-.7724,7.2315-2.142,9.5934-3,.6124-.2225,2.4066-1,2.4066-1Z" fill="#fffffd"/>
    <path d="M1067,704s6.7568-1.47,9-2c2.0064-.4736,5.9539-1.7481,8-2a93.5854,93.5854,0,0,1,14.6374,0,80.7406,80.7406,0,0,1,11.4066,2c1.2845.3674,4.956,2,4.956,2s-3.3238.0726-4.4286,0c-1.9052-.1253-5.674-.7871-7.5714-1-2.7006-.303-8.11-.8749-10.8242-1-1.5972-.0736-4.8025-.1368-6.3956,0-1.4611.1255-4.3418.7141-5.78,1-3.2672.6495-13,2.9231-13,2.9231Z" fill="#fffffd"/>
    <path d="M1068,717s4.73.61,6.3077.8085c2.4223.3041,7.2864.7773,9.6923,1.1915,2.2715.3911,6.7659,1.4331,9,2,1.7641.4476,5.2613,1.4621,7,2,1.5105.4673,4.5411,1.39,6,2,1.5007.627,5.801,2.9451,5.801,2.9451A29.3008,29.3008,0,0,1,1108,728a50.4542,50.4542,0,0,1-6-2c-1.5-.5-4.4895-1.5327-6-2-1.7387-.5379-5.2359-1.5524-7-2-2.2341-.5669-6.7213-1.6535-9-2-2.9762-.4526-12-1-12-1Z" fill="#fffffd"/>
    <path d="M1062,725s6.001,2.0081,8,2.6813c1.902.6405,5.721,1.88,7.6044,2.573,2.3729.8737,7.0588,2.7794,9.3956,3.7457,1.7594.7276,5.2728,2.1989,7,3,1.5214.7056,4.7124,1.9254,6,3a28.1052,28.1052,0,0,1,3,4s-2.9877-1.5255-4-2c-1.9772-.9267-6.0041-2.62-8-3.5055-1.6178-.7178-4.835-2.1952-6.4581-2.9011-2.1245-.9239-6.386-2.7451-8.5419-3.5934-1.9823-.78-5.9774-2.2655-8-2.9341-1.7324-.5726-7-2.0659-7-2.0659Z" fill="#fffffd"/>
  </g>
</svg>
