<svg xmlns="http://www.w3.org/2000/svg" width="1920" height="1082" viewBox="0 0 1920 1082">
  <g id="Interface_Peixe" data-name="Interface Peixe">
    <g>
      <path d="M1614.7949,537.1044s-46.1883-22.0171-62.9067-23.87c-5-.5542-15.7286.063-19.9193,2.8456-3.4558,2.2945-7.43,10.23-8.5368,14.228-1.778,6.4189,0,26.6424,0,26.6424Z" fill="#fff"/>
      <path d="M1614.7949,703.6316s-46.1883,22.0171-62.9067,23.87c-5,.5541-15.7286-.0631-19.9193-2.8456-3.4558-2.2946-7.43-10.23-8.5368-14.2281-1.778-6.4189,0-26.6424,0-26.6424Z" fill="#fff"/>
      <g>
        <path d="M1480.73,607.5216s-24.9529-27.9679-34.8424-33.9677c-5.966-3.62-16.8534-10.7023-28.3834-13.9081C1396.7662,553.88,1373.9492,553,1373.9492,553s16.7526,31.6565,23.9795,41.1077c5.6307,7.3637,26.0123,26.4236,26.0123,26.4236H1480.73Z" fill="#fff"/>
        <path d="M1480.1442,631.097s-24.9529,27.9679-34.8424,33.9677c-5.9661,3.62-16.8534,10.7023-28.3834,13.908-20.7381,5.7659-43.5552,6.6459-43.5552,6.6459s16.7526-31.6565,23.98-41.1077c5.6306-7.3637,26.0123-26.4237,26.0123-26.4237h56.7891Z" fill="#fff"/>
      </g>
      <g>
        <path d="M1771,621.5255s-77.0783,85.21-172.1593,85.21-172.1593-85.21-172.1593-85.21,77.0783-85.21,172.1593-85.21S1771,621.5255,1771,621.5255Z" fill="#fff"/>
        <path d="M1637.9,540.9873c24.1811,21.1691,39.1952,50.6289,39.1952,83.2257,0,28.9947-11.893,55.4975-31.5337,75.9038C1717.93,680.1319,1771,621.5254,1771,621.5254S1714.1549,558.7491,1637.9,540.9873Z" fill="#fff"/>
      </g>
      <g>
        <circle cx="1708.3966" cy="604.2937" r="17.0736" fill="#fff"/>
        <circle cx="1708.3966" cy="604.2937" r="11.3824" fill="#fff"/>
      </g>
      <g>
        <path d="M1588.7871,553.0728s-36.8989,10.9061-36.8989,19.1765c0,10.1046,36.8989,20.6307,36.8989,20.6307s-24.4933-15.6548-24.4933-20.6307S1588.7871,553.0728,1588.7871,553.0728Z" fill="#fff"/>
        <path d="M1588.7871,592.9113s-36.8989,10.9061-36.8989,19.1765c0,10.1046,36.8989,20.6307,36.8989,20.6307s-24.4933-15.6547-24.4933-20.6307S1588.7871,592.9113,1588.7871,592.9113Z" fill="#fff"/>
        <path d="M1588.7871,632.75s-36.8989,10.9061-36.8989,19.1766c0,10.1045,36.8989,20.6307,36.8989,20.6307s-24.4933-15.6548-24.4933-20.6307S1588.7871,632.75,1588.7871,632.75Z" fill="#fff"/>
      </g>
      <g>
        <path d="M1648.6388,566.1166s-30.8951,9.1316-30.8951,16.0564c0,8.46,30.8951,17.2738,30.8951,17.2738s-20.5079-13.1076-20.5079-17.2738S1648.6388,566.1166,1648.6388,566.1166Z" fill="#fff"/>
        <path d="M1648.6388,600.2639s-30.8951,9.1316-30.8951,16.0564c0,8.46,30.8951,17.2738,30.8951,17.2738s-20.5079-13.1076-20.5079-17.2738S1648.6388,600.2639,1648.6388,600.2639Z" fill="#fff"/>
        <path d="M1648.6388,634.4112s-30.8951,9.1316-30.8951,16.0564c0,8.46,30.8951,17.2738,30.8951,17.2738s-20.5079-13.1076-20.5079-17.2738S1648.6388,634.4112,1648.6388,634.4112Z" fill="#fff"/>
      </g>
      <g>
        <path d="M1520.5865,569.9069s-27.8932,8.2443-27.8932,14.4962c0,7.6384,27.8932,15.5954,27.8932,15.5954s-18.5153-11.834-18.5153-15.5954S1520.5865,569.9069,1520.5865,569.9069Z" fill="#fff"/>
        <path d="M1520.5865,600.7362s-27.8932,8.2443-27.8932,14.4963c0,7.6383,27.8932,15.5954,27.8932,15.5954s-18.5153-11.834-18.5153-15.5954S1520.5865,600.7362,1520.5865,600.7362Z" fill="#fff"/>
        <path d="M1520.5865,631.5656s-27.8932,8.2443-27.8932,14.4962c0,7.6384,27.8932,15.5955,27.8932,15.5955s-18.5153-11.834-18.5153-15.5955S1520.5865,631.5656,1520.5865,631.5656Z" fill="#fff"/>
      </g>
      <g>
        <path d="M1472.3208,607.671s-24.9529-28.051-34.8424-34.0687c-5.966-3.63-16.8534-10.734-28.3834-13.9493-20.7381-5.783-43.5551-6.6656-43.5551-6.6656s16.7526,31.7506,23.9795,41.23c5.6306,7.3855,26.0123,26.5021,26.0123,26.5021h56.7891Z" fill="#fff"/>
        <path d="M1471.7349,631.3164s-24.9529,28.051-34.8424,34.0687c-5.9661,3.63-16.8534,10.7341-28.3834,13.9493-20.7381,5.783-43.5552,6.6656-43.5552,6.6656s16.7526-31.7506,23.9795-41.23c5.6307-7.3855,26.0124-26.5021,26.0124-26.5021h56.7891Z" fill="#fff"/>
      </g>
      <path d="M1417,618c0,12.15-8.3117,22-18.5647,22s5.7122-9.85,5.7122-22-15.9653-22-5.7122-22S1417,605.85,1417,618Z" fill="#fff"/>
    </g>
    <g>
      <rect x="1461" y="709" width="245" height="106" rx="52.9999" fill="#fff"/>
      <rect x="1478" y="724" width="210" height="77" rx="38.5" fill="#1b4f9a"/>
    </g>
  </g>
  <g id="Peixe">
    <g>
      <g>
        <path d="M1612.8744,549.2139s-38.8126-18.5012-52.8613-20.0583c-4.2014-.4657-13.2169.053-16.7384,2.3912-2.9039,1.9281-6.2431,8.5967-7.1736,11.956-1.494,5.3939,0,22.3879,0,22.3879Z" fill="#1b1360"/>
        <path d="M1612.8744,689.1487s-38.8126,18.5013-52.8613,20.0584c-4.2014.4656-13.2169-.053-16.7384-2.3912-2.9039-1.9281-6.2431-8.5968-7.1736-11.956-1.494-5.3939,0-22.3879,0-22.3879Z" fill="#1b1360"/>
        <g>
          <path d="M1464.7741,610.2548s-17.4178-19.5224-24.321-23.7105c-4.1644-2.5265-11.7641-7.4705-19.8124-9.7082a152.828,152.828,0,0,0-30.4027-4.639s11.6938,22.0972,16.7384,28.6944c3.93,5.14,18.1573,18.4445,18.1573,18.4445h39.64Z" fill="#1b1360"/>
          <path d="M1464.3651,626.7111s-17.4178,19.5224-24.321,23.7105c-4.1644,2.5265-11.7641,7.4705-19.8124,9.7082a152.828,152.828,0,0,1-30.4027,4.639s11.6937-22.0972,16.7384-28.6944c3.93-5.14,18.1573-18.4445,18.1573-18.4445h39.64Z" fill="#1b1360"/>
        </g>
        <g>
          <path d="M1744.1354,620.154s-64.77,71.6031-144.6675,71.6031S1454.8,620.154,1454.8,620.154s64.77-71.6032,144.6676-71.6032S1744.1354,620.154,1744.1354,620.154Z" fill="#1b4f9a"/>
          <path d="M1632.29,552.4768c20.32,17.7886,32.9362,42.544,32.9362,69.9355,0,24.3646-9.9939,46.6353-26.4982,63.7829,60.8121-16.7936,105.4077-66.0413,105.4077-66.0413S1696.3678,567.4022,1632.29,552.4768Z" fill="#1a66b2"/>
        </g>
        <g>
          <circle cx="1691.5291" cy="605.6739" r="14.3472" fill="#fff"/>
          <circle cx="1691.5291" cy="605.6739" r="9.5648" fill="#070707"/>
        </g>
      </g>
      <g>
        <path d="M1591.02,562.6323s-31.0066,9.1646-31.0066,16.1143c0,8.491,31.0066,17.3363,31.0066,17.3363s-20.582-13.155-20.582-17.3363S1591.02,562.6323,1591.02,562.6323Z" fill="#1b1360"/>
        <path d="M1591.02,596.1091s-31.0066,9.1646-31.0066,16.1143c0,8.491,31.0066,17.3362,31.0066,17.3362s-20.582-13.1549-20.582-17.3362S1591.02,596.1091,1591.02,596.1091Z" fill="#1b1360"/>
        <path d="M1591.02,629.5859s-31.0066,9.1645-31.0066,16.1143c0,8.491,31.0066,17.3362,31.0066,17.3362s-20.582-13.1549-20.582-17.3362S1591.02,629.5859,1591.02,629.5859Z" fill="#1b1360"/>
      </g>
      <g>
        <path d="M1641.3139,573.5933s-25.9616,7.6733-25.9616,13.4923c0,7.1094,25.9616,14.5154,25.9616,14.5154s-17.2331-11.0145-17.2331-14.5154S1641.3139,573.5933,1641.3139,573.5933Z" fill="#1b1360"/>
        <path d="M1641.3139,602.2876s-25.9616,7.6734-25.9616,13.4924c0,7.1094,25.9616,14.5154,25.9616,14.5154s-17.2331-11.0145-17.2331-14.5154S1641.3139,602.2876,1641.3139,602.2876Z" fill="#1b1360"/>
        <path d="M1641.3139,630.982s-25.9616,7.6734-25.9616,13.4924c0,7.1094,25.9616,14.5154,25.9616,14.5154s-17.2331-11.0145-17.2331-14.5154S1641.3139,630.982,1641.3139,630.982Z" fill="#1b1360"/>
      </g>
      <g>
        <path d="M1533.71,576.7782s-23.439,6.9278-23.439,12.1814c0,6.4186,23.439,13.105,23.439,13.105s-15.5586-9.9442-15.5586-13.105S1533.71,576.7782,1533.71,576.7782Z" fill="#1b1360"/>
        <path d="M1533.71,602.6845s-23.439,6.9278-23.439,12.1814c0,6.4186,23.439,13.105,23.439,13.105s-15.5586-9.9442-15.5586-13.105S1533.71,602.6845,1533.71,602.6845Z" fill="#1b1360"/>
        <path d="M1533.71,628.5908s-23.439,6.9278-23.439,12.1814c0,6.4186,23.439,13.105,23.439,13.105s-15.5586-9.9442-15.5586-13.105S1533.71,628.5908,1533.71,628.5908Z" fill="#1b1360"/>
      </g>
    </g>
  </g>
</svg>
