<svg id="Correndo_3" data-name="Correndo 3" xmlns="http://www.w3.org/2000/svg" width="1920" height="1386" viewBox="0 0 1920 1386">
  <g>
    <ellipse cx="719.3835" cy="761.4808" rx="103.9135" ry="18.5192" fill="#343031" opacity="0.5"/>
    <path d="M756.6172,637.8609s4.2394,8.3735,7.0067,10.4468c2.0958,1.57,6.9193,4.1153,7.575,4.1153s7.1228,2.0577,9.4971,2.0577c1.8315,0,9.8575-.9193,11.4416,0a22.3747,22.3747,0,0,1,4.4094,4.1154c1.4124,2.15,2.5356,4.1433,4.1154,6.1731,1.2325,1.5835,3.2319,5.38,5.0425,6.2449,2.4482,1.17,8.2836.87,10.8537,0,3.2358-1.0957,6.4059-3.804,8.7961-6.2449.8837-.9025,4.6745-4.926,5.0425-6.1344,1.6524-5.4271-.9271-22.6733-.9271-22.6733Z" fill="#2d2a21"/>
    <path d="M652.5085,623.6153l-16.4616-26.75s-10.5,1.3954-13.7707,2.66a42.1286,42.1286,0,0,0-6.5122,3.9652c-2.2076,1.5481-6.6177,4.7374-8.4117,6.75a60.4655,60.4655,0,0,0-8.4117,13.375c-.9625,2.4366-1.74,7.6807-1.99,10.2885-.4416,4.6087-2.1846,14.4373,0,18.5192,1.75,3.2707,10.7061,5.8766,14.4038,6.1731,5.54.4443,14.4919-3,18.1675-7.168,1.5509-1.7589,1.9754-6.7568,2.7939-8.9543a58.8168,58.8168,0,0,1,3.7309-8.57,28.3862,28.3862,0,0,1,5.666-6.354C644.09,625.9373,652.5085,623.6153,652.5085,623.6153Z" fill="#2d2a21"/>
    <path d="M627.5652,599.5249s10.0742,15.1352,14.1477,19.5987c3.7923,4.1555,12.7147,11.0987,16.9687,14.78,3.5075,3.0356,9.8859,10.0923,14.0689,12.0974,4.8775,2.338,15.8851,3.4575,21.2712,3.9538,8.6864.8,26.1935.6456,34.8928,0,3.47-.2575,10.3428-1.4329,13.7666-2.0544,3.5058-.6363,10.3981-2.5631,13.9361-2.9847,6.85-.8163,20.74-1.5908,27.5836-.7236,3.7154.4707,10.6853,3.6708,14.4039,4.1154,2.7645.33,8.589.6937,11.1279-.4492,3.11-1.4,8.81-6.4892,9.449-9.8393,2.29-12.0113-18.5192-45.2693-18.5192-45.2693Z" fill="#d2cfda"/>
    <path d="M751.1985,513.4142s15.4178,10.2339,20.6562,13.49c7.8128,4.8557,23.6161,14.2892,31.6794,18.7167,5.871,3.2236,17.9842,8.9674,23.8783,12.1487,1.994,1.0762,5.7154,3.7929,7.869,4.4973,3.531,1.155,11.0564,1.4659,14.7656,1.6757,2.7148.1536,8.3127.9061,10.8764,0,2.3157-.8184,5.9061-4.4363,7.6428-6.173,4.1154-4.1154,4.1154,0,4.1154,2.0577a32.5542,32.5542,0,0,1-2.0577,10.2884c-1.3912,2.9857-5.4585,8.51-8.2307,10.2885-1.7851,1.1455-6.1257,1.7985-8.2308,2.0577-1.9581.241-6.6166-1.5056-7.8916,0-1.6852,1.99,1.503,7.69,1.7185,10.2884.2551,3.076-.9752,9.4178,0,12.3462,1.9185,5.7613,11.1386,14.425,14.5621,19.44,3.26,4.7754,9.177,14.72,12.1879,19.6559,1.562,2.5607,6.3744,7.2956,6.1731,10.2884-.2211,3.2865-5.4737,8.4861-8.2308,10.2885-3.2527,2.1264-11.301,5.1707-15.0143,4.0249-5.8069-1.7916-10.3279-15.8942-15.8511-18.4288-3.2728-1.5018-10.81.2238-14.4038,0-4.1394-.2577-12.5283-.7421-16.4616-2.0576-3.9193-1.3109-11.4708-5.2526-14.336-8.2308-3.0407-3.1607-8.2986-12.3462-10.198-13.4828-2.7686-1.6568-13.477.4064-16.62,1.1366-3.1674.7359-21.3735,1.6991-26.8857,2.6666-3.3362.5857-13.6072,3.65-16.8543,4.6145-5.3306,1.5828-14.5739,2.6871-19.6,5.0651-3.0573,1.4463-8.2713,5.9153-10.7366,8.2308-.8689.8161-2.7144,2.4789-3.1325,3.5953-1.4811,3.9545.4836,12.6961,0,16.8911A14.8867,14.8867,0,0,1,691.6046,673c-1.7677,3.1791-7.1,8.538-10.2884,10.2884-4.1575,2.2823-14.3921,6.4522-18.5193,4.1154-2.8311-1.603-3.3311-9.1886-4.1153-12.3461a103.9414,103.9414,0,0,1-2.0577-12.3462c-.2831-3.42-.6127-10.3492,0-13.7255a40.2458,40.2458,0,0,1,4.1154-10.9668c1.5757-2.4465,4.1153-5.3208,4.1153-8.2308,0-8.2308-32.5386-29.3794-32.5386-29.3794Z" fill="#454136"/>
    <path d="M741.9771,505.47c1.9874.5332,10.395,8.6284,11.8491,11.149s2.7038,21.6844,1.0175,27.9692c-2.1329,7.95-8.6044,29.3312-10.473,32.6694-2.2754,4.065-13.0058,18.3144-19.4359,23.22-5.3824,4.1062-20.5014,10.6087-26.8011,13.0874-5.8972,2.32-22.7924,2.92-29.1059,3.4679-5.1389.4461-26.8078-5.7634-28.8652-7.2668-1.88-1.3735-13.6762-7.4768-14.72-9.5577-.5474-1.0915,5.3108-2.1264,5.3108-2.1264s34.8686,4.1155,39.1615,3.8806c3.97-.2173,13.8116-1.1959,17.6464-2.2459,4.88-1.3364,14.5348-6.6967,18.9512-9.1666,5.4505-3.0483,10.2429-8.03,14.678-12.4266,2.4661-2.4449,6.9771-7.8325,8.622-10.8909,4.4222-8.2222,7.988-22.7135,9.6628-31.898.8508-4.6658,2.5137-13.6865,2.8117-18.42C742.6486,511.1744,739.1665,504.7157,741.9771,505.47Z" fill="#c00"/>
    <g>
      <path d="M545.8371,503.7676c-2.5889,7.2762-4.5229,22.7846-4.9246,30.4972-.249,4.7817-.4326,14.5771,1.0727,19.1225,1.3722,4.1437,6.712,11.3157,9.6206,14.5705,5.0611,5.6634,17,15.261,23.32,19.4738a77.029,77.029,0,0,0,13.2865,6.9193c11.6841,3.966,36.3243,7.3887,48.6074,8.561a204.6734,204.6734,0,0,0,24.0727.3845c6.8251-.4236,20.5545-1.7889,27.0857-3.8149,6.042-1.8743,17.5516-7.5331,22.6549-11.2713,5.9-4.322,16.4591-14.8338,20.3248-21.0426,3.3383-5.3618,7.1079-17.6231,8.5614-23.77a167.7669,167.7669,0,0,0,3.1579-26.4765c.0787-4.0249-.9246-12.0417-1.28-16.0516-.37-4.17-.4938-12.6353-1.6269-16.6651-1.0154-3.6109-4.1393-10.6209-6.5383-13.5044-7.6081-9.1445-38.3409-28.1791-38.3409-28.1791s-12.9742-5.6619-17.5994-6.3708c-2.0966-.3213-6.3619.5341-8.4762.366a63.48,63.48,0,0,1-10.08-2.0624,87.7732,87.7732,0,0,1-10.1324-4.1736c-2.81-1.4033-7.7693-5.6061-10.8053-6.4116-4.5842-1.2163-14.2367-.0046-18.9683.3194-4.8689.3335-19.3808,2.3354-19.3808,2.3354l-13.7455,5.5887c-3.4364,1.3972-10.6586,3.5317-13.7455,5.5888A36.1134,36.1134,0,0,0,557.34,457.8138a58.2522,58.2522,0,0,0-2.0624,10.08,35.46,35.46,0,0,0,.366,8.4762c.6174,2.497,4.09,6.7476,4.3978,9.3012a7.9856,7.9856,0,0,1-.825,4.0319c-.815,1.2053-3.7275,2.2894-4.8568,3.2068a42.86,42.86,0,0,0-5.2694,5.2228A27.7793,27.7793,0,0,0,545.8371,503.7676Z" fill="#fff"/>
      <path d="M581.05,516.4427s-2.866,12.1028-3.318,16.216c-.306,2.7839-.1916,11.201-.1916,11.201s-9.1931-1.36-12.2814-1.5667c-1.744-.1165-5.2437-.0191-6.9914-.0457-1.9163-.0292-10.65.6767-10.5049,3.436.0811,1.5457,7.3583,2.5039,9.98,2.55,3.6552.0641,15.0174.8214,18.6489,1.2415a37.1577,37.1577,0,0,1,6.0256,1.2329c4.0356,1.4125,9.9369,3.1906,13.6326,5.3408,2.3944,1.3932,12.5157,7.92,14.89,9.3477,4.6127,2.7734,13.2548,7.0744,13.2548,7.0744s9.7826,3.5137,10.1113,1.9073c.4125-2.0159-7.4807-6.7222-11.4119-9.0871-3.5563-2.1393-19.9857-12.4289-23.7222-14.2351-3.299-1.5948-13.5675-5.5458-13.5675-5.5458s-1.589-10.15-1.5569-12.9206c.03-2.5719,1.4435-7.583,2.0624-10.08.2976-1.2,1.3869-4.7477,1.3869-4.7477Z"/>
      <path d="M634.3114,481.9646c-.8249,4.0319-7.8391,27.63-6.6,32.2548.3142,1.1724.17,6.975,5.8433,16.061,5.0313,8.0574,16.8369,15.8005,23.431,25.6346,5.641,8.4126,8.1009,21.0282,13.1935,27.9035,7.69,10.3824,15.8247,16.2752,17.7983,15.663,6.042-1.8743,17.5516-7.5331,22.6549-11.2713,5.9-4.322,16.4591-14.8338,20.3248-21.0426,3.3383-5.3618,7.1079-17.6231,8.5614-23.77a167.7669,167.7669,0,0,0,3.1579-26.4765c.0787-4.0249-.9246-12.0417-1.28-16.0516-.37-4.17-.4938-12.6353-1.6269-16.6651-1.0154-3.6109-4.1393-10.6209-6.5383-13.5044-7.6081-9.1445-38.3409-28.1791-38.3409-28.1791a97.7493,97.7493,0,0,0-11.9641-3.1174c-2.0966-.3213-23.8717,14.0185-26.3,15.6219C654.0049,456.7565,635.1364,477.9328,634.3114,481.9646Z" fill="#454136"/>
      <path d="M578.551,497.8594s23.0466-9.9866,23.4591-12.0025,7.7908-27.81,8.2033-29.8264c.36-1.7589,5.3747-9.43,12.2748-16.61,7.5156-7.82,16.8921-15.132,15.3093-15.5519-4.5842-1.2163-14.2367-.0046-18.9683.3194-4.8689.3335-19.3808,2.3354-19.3808,2.3354l-13.7455,5.5887c-3.4364,1.3972-10.6586,3.5317-13.7455,5.5888A36.1134,36.1134,0,0,0,557.34,457.8138a58.2522,58.2522,0,0,0-2.0624,10.08,35.46,35.46,0,0,0,.366,8.4762c.6174,2.497,4.09,6.7476,4.3978,9.3012a7.9856,7.9856,0,0,1-.825,4.0319c-.815,1.2053-3.7275,2.2894-4.8568,3.2068a42.86,42.86,0,0,0-5.2694,5.2228C548.0974,499.4207,576.1225,499.4628,578.551,497.8594Z" fill="#454136"/>
      <ellipse cx="672.7505" cy="504.5322" rx="28.8077" ry="31.8942" transform="translate(43.5984 1062.487) rotate(-78.436)" fill="#fff"/>
      <ellipse cx="665.6947" cy="503.0884" rx="20.5769" ry="18.5192" transform="translate(39.3715 1054.4202) rotate(-78.436)"/>
      <ellipse cx="660.6782" cy="496.8112" rx="9.2596" ry="6.1731" transform="translate(-79.2026 865.4483) rotate(-63.4264)" fill="#fff"/>
      <ellipse cx="579.6752" cy="471.8354" rx="19.5481" ry="20.5769" transform="translate(1.2144 945.1588) rotate(-78.436)" fill="#fff"/>
      <ellipse cx="577.4531" cy="472.4308" rx="14.4039" ry="12.3462" transform="translate(-1.1457 943.4578) rotate(-78.436)"/>
      <ellipse cx="587.1869" cy="506.9776" rx="13.375" ry="20.5769" transform="translate(-27.2087 980.6154) rotate(-78.436)"/>
      <ellipse cx="572.9881" cy="470.3029" rx="8.3887" ry="5.0894" transform="translate(-103.9568 772.3719) rotate(-63.4264)" fill="#fff"/>
      <ellipse cx="577.5619" cy="500.5274" rx="8.2036" ry="4.4873" transform="translate(-163.2598 312.6747) rotate(-26.6841)" fill="#fff"/>
      <path d="M732.4064,474.7322a23.1727,23.1727,0,0,1,2.8409-3.6194c1.4813-1.1162,5.5527-1.4914,6.8727-2.7944,1.8669-1.8426,3.3019-7.1616,4.0784-9.6671.9149-2.9522,2.5722-9.0227,2.4783-12.112-.07-2.2958-1.7052-6.6784-2.3853-8.8722-2.6645-8.5952-8.9193-25.48-11.9559-33.9513-2.65-7.3918-6.85-22.7-10.7651-29.507-1.6424-2.8552-5.6031-8.4348-8.43-10.1261-2.0277-1.2133-7.0479-2.7255-9.26-1.8947-2.6723,1.0036-5.42,6.6546-6.9139,9.0869-2.4734,4.0262-6.0232,12.8375-8.2439,17.0084-2.0664,3.8811-11.6815,20.0784-12.3077,21.8431-1.6343,4.6057-1.9028,19.5638-1.9028,19.5638-.4125,2.0159.1116,10.7316,1.5569,12.9205,1.6035,2.4284,7.0169,15.32,10.8116,19.0148C698.4921,470.9837,732.4064,474.7322,732.4064,474.7322Z" fill="#454136"/>
      <path d="M686.4991,452.7368a20.808,20.808,0,0,0,5.2228,5.2694c2.62,1.7106,8.7576,3.38,11.6831,4.4908,4.355,1.6533,13.0786,5.9661,17.7308,5.7284a14.1148,14.1148,0,0,0,6.5156-2.8675c1.5714-1.46,3.4427-5.5132,4.023-7.5781.9842-3.5019,1.2381-10.905.8715-14.524-.4636-4.5777-3.45-13.3678-4.7638-17.7773-1.1842-3.9748-3.8294-11.8388-5.1762-15.7615-.8076-2.3523-2.6035-6.9946-3.3564-9.365-.8514-2.6808-1.9182-8.2489-3.0108-10.8407-.6565-1.5573-2.0272-4.8569-3.4-5.8427-1.5148-1.0878-5.6312-2.3108-7.3084-1.4953-6.5847,3.2015-10.7107,19.2726-13.1029,26.1926-3.1085,8.9919-7.7887,27.7709-7.6288,37.2835A20.1483,20.1483,0,0,0,686.4991,452.7368Z" fill="#d47c7b"/>
      <path d="M686.4991,452.7368a20.808,20.808,0,0,0,5.2228,5.2694c2.62,1.7106,8.7576,3.38,11.6831,4.4908,4.355,1.6533,13.0786,5.9661,17.7308,5.7284a14.1148,14.1148,0,0,0,6.5156-2.8675c1.5714-1.46-1.1306-11.6442-3.9657-12.7755-3.2818-1.3094-20.3693-10.0322-29.01-11.3066-5.59-.8244-9.9226,1.6445-9.8767,4.3736A20.1483,20.1483,0,0,0,686.4991,452.7368Z" fill="#a74844"/>
      <path d="M633.3531,425.06s4.2138-.064,4.4444-1.1909c.4611-2.2539-3.0627-9.21-3.9854-11.3171-1.5806-3.6105-6.2613-10.0308-8.4208-13.3278-3.4217-5.2242-10.1941-15.74-14.0272-20.67-3.1575-4.0612-8.5049-10.9019-11.6366-14.983-1.3286-1.7315-5.0182-6.4753-6.8262-7.6977-1.85-1.2507-6.58-2.3154-8.75-1.7905a8.5252,8.5252,0,0,0-4.17,3.3474c-3.6659,7.6512-9.9,48.3822-10.2579,50.1323-.568,2.7758.8728,8.5357,1.915,11.17a58.8694,58.8694,0,0,0,4.3978,9.3012c1.2026,1.8213,4.8072,6.869,6.8263,7.6977C594.7975,440.63,633.3531,425.06,633.3531,425.06Z" fill="#454136"/>
      <path d="M585.7029,432.1123c3.4565,1.3466,10.3033-4.2059,13.7455-5.5887,2.97-1.1932,13.9409-2.83,17.1417-2.8332,1.7088-.0018,3.6545-3.6362,3.4765-5.55-.3228-3.4708-3.1039-10.0111-4.5753-13.1711-2.1079-4.5269-7.7317-12.8323-10.2215-17.1609-2.3648-4.1111-6.3611-12.7933-9.2082-16.5864-1.1134-1.4834-3.4056-4.8975-5.2228-5.2693s-5.8454,1.25-6.8727,2.7944c-1.3517,2.0318-1.3881,15.3895-1.5469,17.8247-.5487,8.4152-3.2433,16.9032-3.0835,25.3347a51.0607,51.0607,0,0,0,1.9694,10.9046C582.09,425.2606,583.3062,431.1787,585.7029,432.1123Z" fill="#d47c7b"/>
      <path d="M585.7029,432.1123c3.4565,1.3466,10.3033-4.2059,13.7455-5.5887,2.97-1.1932,13.9409-2.83,17.1417-2.8332,1.7088-.0018,3.6545-3.6362,3.4765-5.55-.1658-1.7836-11.3983-7.6576-21.4085-6.3082-9.47,1.2766-17.7641,9.6964-17.353,10.9789C582.09,425.2606,583.3062,431.1787,585.7029,432.1123Z" fill="#a74844"/>
    </g>
    <path d="M854.1624,666.8269l26.75-14.4039S895.3162,670.9423,897.3739,673s1.51,17.1813,0,22.6346c-.8006,2.8907-4.1641,8.061-6.173,10.2885-1.7227,1.91-5.7907,5.36-8.2308,6.173-2.4938.8313-8.0917,1.0194-10.5146,0-3.3162-1.3952-8.3824-7.107-10.0623-10.2884-1.2249-2.32-2.0154-7.6658-2.0577-10.2885-.0505-3.1287,2.0577-8.2308,2.0577-12.3462C862.3932,676.322,854.1624,666.8269,854.1624,666.8269Z" fill="#fffeff"/>
    <path d="M661.72,686.365l30.5114-15.3509s2.3107,4.7978,3.4889,6.1013c1.584,1.7522,6.1376,3.71,7.6881,5.4921a28.7015,28.7015,0,0,1,4.6581,8.9117,47.4138,47.4138,0,0,1,0,16.8912,24.3759,24.3759,0,0,1-4.1154,7.8011,18.6445,18.6445,0,0,1-6.1731,4.1154,14.8557,14.8557,0,0,1-7.1228,0c-3.5825-1.3779-8.7232-7.534-11.3964-10.2885a159.2037,159.2037,0,0,1-12.2105-14.3679C665.5074,693.4767,661.72,686.365,661.72,686.365Z" fill="#fffeff"/>
    <path d="M596.9508,652.423l32.5713-.9949s3.4175,6.888,4.4671,9.2257c1.1486,2.558,3.7487,7.61,4.2963,10.36a37.5934,37.5934,0,0,1,0,10.3975,40.8286,40.8286,0,0,1-3.9647,10.786c-1.2945,2.085-4.5008,6.1536-6.7556,7.1227-1.9315.83-6.412.656-8.4094,0a21.9156,21.9156,0,0,1-7.8012-5.7434c-2.651-3.5057-4.5066-12.3945-6.1731-16.4615-1.9176-4.68-7.1789-13.5335-8.2307-18.4806A38.5463,38.5463,0,0,1,596.9508,652.423Z" fill="#d2cfda"/>
    <path d="M805.7049,671.0141l24.8841-13.1717s11.947,14.608,13.2849,19.273c1.2938,4.5112.9075,14.1678,0,18.7723a37.2626,37.2626,0,0,1-4.1154,10.0354c-1.6124,2.4224-5.5422,7.1171-8.2307,8.2307-2.4234,1.0038-7.9423.6155-10.492,0-2.1922-.5292-6.4407-2.5127-8.0273-4.1154-1.6185-1.6349-3.5481-6.0012-4.1154-8.2307a36.1807,36.1807,0,0,1-.4748-11.657c.28-2.3012,2.873-6.627,2.5325-8.92C810.5947,678.8321,805.7049,671.0141,805.7049,671.0141Z" fill="#d2cfda"/>
  </g>
</svg>
