<svg id="Árvore_1" data-name="Árvore 1" xmlns="http://www.w3.org/2000/svg" width="2672" height="1907" viewBox="0 0 2672 1907">
  <g>
    <g>
      <circle cx="1109.8354" cy="1173.3734" r="138.5" fill="#8eb349"/>
      <path d="M1010.3354,1173.3734c0-72.05,49.4581-131.2416,112.6654-137.8733-4.3342-.4087-8.7241-.6267-13.1654-.6267a138.5,138.5,0,1,0,0,277c4.4413,0,8.8312-.2179,13.1654-.6267C1059.7935,1304.615,1010.3354,1245.4236,1010.3354,1173.3734Z" fill="#4e7f13"/>
    </g>
    <g>
      <polygon points="1086.16 1480.873 1133.335 1480.873 1116.335 1173.873 1104.017 1173.873 1086.16 1480.873" fill="#613f2d"/>
      <polygon points="1106.182 1268.665 1121.574 1282.271 1160.399 1227.174 1156.379 1223.621 1106.182 1268.665" fill="#613f2d"/>
      <polygon points="1108.84 1316.43 1122.242 1300.86 1066.636 1262.766 1063.137 1266.832 1108.84 1316.43" fill="#613f2d"/>
    </g>
  </g>
</svg>
