<svg id="Correndo_4" data-name="Correndo 4" xmlns="http://www.w3.org/2000/svg" width="1920" height="1386" viewBox="0 0 1920 1386">
  <g>
    <ellipse cx="274.9218" cy="761.4808" rx="118.3173" ry="18.5192" fill="#343031" opacity="0.5"/>
    <path d="M311.3159,675.0526s.0918,5.4187.9744,7.8555c.6053,1.6711,3.5992,7.3138,4.8142,8.6111.7863.84,2.0577,2.9651,2.0577,4.1154,0,4.1154-8.5573,13.7325-6.2524,18.8677,1.2633,2.8144,8.6419,3.33,11.5957,4.2192,3.7506,1.1293,11.7567,5.4668,15.2337,3.6631,11.9883-6.2192,19.9229-50.2143,19.9229-50.2143Z" fill="#2d2a21"/>
    <path d="M226.566,681.2307s22.6347,43.2116,30.8654,47.327c3.911,1.9555,13.2534,1.08,17.49,0,3.1229-.7963,10.2649-3.1269,11.3173-6.1731,4.4625-12.916-21.5944-50.2143-21.5944-50.2143Z" fill="#2d2a21"/>
    <path d="M218.0865,671.1086c.8408,4.6773,4.6663,11.4015,8.48,14.2375,5.91,4.3955,17.4984,8.7084,24.6924,10.2885,3.1925.7012,11.88.33,15.132,0,7.6515-.7756,22.6378-4.4684,30.1372-6.1731,4.1365-.94,12.359-3.0363,16.4615-4.1154,2.7281-.7175,8.0961-2.527,10.8764-3.0034a157.8285,157.8285,0,0,1,15.8737-1.112c5.141-.18,20.5769,2.0577,20.5769,2.0577l-2.0577-34.9807-137.8654,6.173S217.2982,666.7227,218.0865,671.1086Z" fill="#d2cfda"/>
    <path d="M289.7342,554.4226s26.3573,9.5511,35.1489,12.7187c9.0516,3.2613,27.09,9.9737,36.2244,12.9954,6.9488,2.2987,20.7763,7.424,28.0163,8.4979,4.1435.6145,12.7492,1.2233,16.7555,0,3.6373-1.1107,10.0388-5.7026,12.6175-8.4979,3.55-3.8483,7.6655-7.9637,7.6655,2.3248,0,2.0577-1.3944,5.1167-2.3743,7.7785-1.1927,3.24-6.3469,8.2506-8.9544,10.5136-2.986,2.5916-10.015,4.7208-11.306,8.4579-1.0752,3.1127,1.7011,9.1846,2.3517,12.4129,1.07,5.3069,1.4752,16.2125,1.221,21.62-.28,5.9563-1.3982,18.03-3.5727,23.5824-6.3477,16.2083-34.9807,55.5577-39.0961,57.6154-3.7942,1.8971-12.3639-3.0181-16.4616-4.1154-3.6176-.9687-12.3461-6.1731-12.3461-10.2885,0,0,6.173-8.2307,6.173-12.3461,0-2.6724-1.8317-7.0538-2.6456-9.5993-.6882-2.1527-1.2854-8.7251-1.47-10.9776-.2937-3.589.7806-8.0724-2.0577-10.2885-1.6718-1.3053-6.1854-.5613-8.2308,0-3.6019.9884-12.6755,1.6831-16.3711,2.224-3.9266.5747-10.349.1267-13.8159,2.0577a6.7678,6.7678,0,0,0-2.4421,3.944C293.9062,685.5957,309,704,310.9315,714.1538c.6155,3.2359-7.25,6.96-10.2885,8.2308-4.0588,1.6968-14.1858,4.9778-17.4761,2.0577-9.2739-8.2308-19.26-36.5-25.4415-48.7885-3.6517-7.2589-14.1822-29.2456-14.1822-29.2456Z" fill="#454136"/>
    <path d="M276.6666,540.2238c2.0429-.2457,12.8615,4.1334,15.15,5.9306S302.4063,565.27,303.1834,571.73c.983,8.1718,2.9453,30.425,2.4552,34.2191-.5968,4.62-5.2445,21.8419-9.3835,28.79-3.4646,5.8161-15.0716,17.4841-19.9939,22.1319-4.6078,4.3508-20.0629,11.2029-25.7174,14.0641-4.6025,2.3289-27.0247,4.6412-29.4941,4.0128-2.256-.5742-15.4773-1.842-17.2212-3.3842-.9147-.8089-6.1525-6.01-6.1525-6.01s44.1793-7.1166,48.0755-8.9343c3.603-1.681,12.3712-6.2565,15.5385-8.66,4.031-3.0588,10.9925-11.6306,14.17-15.5684,3.9221-4.86,6.513-11.2684,8.99-17.0011,1.3775-3.1878,3.556-9.8683,3.9428-13.3194,1.04-9.2779-1.0513-24.0542-2.92-33.2013-.9492-4.6469-2.7674-13.6375-4.2547-18.141C279.4155,545.2673,273.7774,540.5713,276.6666,540.2238Z" fill="#c00"/>
    <g>
      <path d="M92.0425,587.232c-1.3757,7.6-.7714,23.2164.082,30.8922.529,4.7588,1.935,14.4546,4.1568,18.696,2.0256,3.8666,8.4568,10.0786,11.8544,12.8191,5.9119,4.7685,19.2477,12.3049,26.1668,15.438a77.024,77.024,0,0,0,14.232,4.675c12.1724,2.02,37.0416,1.4054,49.3523.572a204.6643,204.6643,0,0,0,23.8169-3.5211c6.6663-1.5238,19.993-5.0957,26.11-8.1532,5.6584-2.8284,16.099-10.2774,20.5292-14.7931,5.122-5.2209,13.838-17.3046,16.6466-24.0577,2.4255-5.8319,4.1586-18.5419,4.597-24.8428a167.7727,167.7727,0,0,0-1.1739-26.6384c-.5744-3.9844-2.8635-11.7327-3.8641-15.632-1.0406-4.0547-2.5346-12.3883-4.3057-16.1813-1.587-3.3987-5.8054-9.81-8.64-12.2666-8.9892-7.7909-42.4-21.5943-42.4-21.5943s-13.72-3.4848-18.399-3.4349c-2.1209.0226-6.1913,1.5578-8.3049,1.7345a63.4713,63.4713,0,0,1-10.2806-.402,87.7544,87.7544,0,0,1-10.6747-2.4767c-3.0005-.9294-8.575-4.2731-11.7015-4.576-4.7206-.4575-14.0492,2.3022-18.6659,3.3886-4.75,1.118-18.7463,5.4448-18.7463,5.4448l-12.6583,7.7421c-3.1646,1.9355-9.9455,5.212-12.6583,7.7421a50.8865,50.8865,0,0,0-8.2609,11.6057,50.9684,50.9684,0,0,0-2.9041,10.61,58.2473,58.2473,0,0,0-.402,10.2807,35.4644,35.4644,0,0,0,1.7345,8.3048c1.0139,2.3639,5.1294,5.9957,5.8468,8.4657a7.9852,7.9852,0,0,1-.1608,4.1123c-.6089,1.3214-3.3073,2.8631-4.273,3.9514a42.848,42.848,0,0,0-4.3535,6.0076A27.7768,27.7768,0,0,0,92.0425,587.232Z" fill="#fff"/>
      <path d="M128.8433,594.0342s-.8671,12.4072-.6467,16.5393c.1492,2.7967,1.6259,11.0841,1.6259,11.0841s-9.292.1471-12.373.4439c-1.74.1677-5.1775.8308-6.9064,1.0878-1.8957.2817-10.3994,2.3933-9.8094,5.0927.3305,1.5121,7.6669,1.2785,10.2612.8991,3.6173-.5291,14.952-1.6228,18.6036-1.7967a37.1635,37.1635,0,0,1,6.1458.24c4.2111.74,10.3226,1.5383,14.3178,3.0613,2.5885.9868,13.6337,5.7877,16.2078,6.8116,5.0011,1.9893,14.2258,4.8332,14.2258,4.8332s10.2228,1.8822,10.2868.2438c.08-2.0561-8.471-5.4213-12.7335-7.1179-3.8559-1.5349-21.7354-9.0264-25.7152-10.2034-3.5139-1.0392-14.2868-3.2742-14.2868-3.2742s-3.2127-9.7588-3.63-12.4975c-.3873-2.5428.1957-7.7168.402-10.2806.0991-1.2326.5993-4.91.5993-4.91Z"/>
      <path d="M175.815,551.3817c-.1608,4.1122-3.2588,28.5349-1.2864,32.8979.5,1.106,1.2976,6.8553,8.3685,14.902,6.27,7.1357,19.1745,12.8635,27.2749,21.4992,6.93,7.3875,11.4011,19.4378,17.54,25.3971,9.271,8.9992,18.2527,13.4961,20.1011,12.5721,5.6584-2.8284,16.099-10.2774,20.5292-14.7931,5.122-5.2209,13.838-17.3046,16.6466-24.0577,2.4255-5.8319,4.1586-18.5419,4.597-24.8428a167.7727,167.7727,0,0,0-1.1739-26.6384c-.5744-3.9844-2.8635-11.7327-3.8641-15.632-1.0406-4.0547-2.5346-12.3883-4.3057-16.1813-1.587-3.3987-5.8054-9.81-8.64-12.2666-8.9892-7.7909-42.4-21.5943-42.4-21.5943a97.75,97.75,0,0,0-12.3111-1.1376c-2.1209.0226-21.2848,17.7011-23.4213,19.6768C191.1637,523.3156,175.9758,547.2694,175.815,551.3817Z" fill="#454136"/>
      <path d="M123.3667,576.1013s21.124-13.5889,21.2044-15.645,3.1817-28.7053,3.2621-30.7614c.07-1.7941,3.7757-10.1768,9.4214-18.3792,6.1492-8.9341,14.217-17.6691,12.587-17.827-4.7206-.4575-14.0492,2.3022-18.6659,3.3886-4.75,1.118-18.7463,5.4448-18.7463,5.4448l-12.6583,7.7421c-3.1646,1.9355-9.9455,5.212-12.6583,7.7421a50.8865,50.8865,0,0,0-8.2609,11.6057,50.9684,50.9684,0,0,0-2.9041,10.61,58.2473,58.2473,0,0,0-.402,10.2807,35.4644,35.4644,0,0,0,1.7345,8.3048c1.0139,2.3639,5.1294,5.9957,5.8468,8.4657a7.9852,7.9852,0,0,1-.1608,4.1123c-.6089,1.3214-3.3073,2.8631-4.273,3.9514a42.848,42.848,0,0,0-4.3535,6.0076C93.5686,582.5764,121.23,578.077,123.3667,576.1013Z" fill="#454136"/>
      <ellipse cx="217.4027" cy="567.4227" rx="28.8077" ry="31.8942" transform="translate(-358.0811 762.489) rotate(-87.7608)" fill="#fff"/>
      <ellipse cx="210.2062" cy="567.1413" rx="20.5769" ry="18.5192" transform="translate(-364.7151 755.0277) rotate(-87.7608)"/>
      <ellipse cx="204.2389" cy="561.7598" rx="9.2596" ry="6.1731" transform="translate(-392.8177 590.2388) rotate(-72.7511)" fill="#fff"/>
      <ellipse cx="120.2595" cy="550.239" rx="19.5481" ry="20.5769" transform="translate(-434.2581 648.9077) rotate(-87.7608)" fill="#fff"/>
      <ellipse cx="118.1632" cy="551.1866" rx="14.4039" ry="12.3462" transform="translate(-437.2195 647.7236) rotate(-87.7608)"/>
      <ellipse cx="133.366" cy="583.6997" rx="13.375" ry="20.5769" transform="translate(-455.0989 694.1575) rotate(-87.7608)"/>
      <ellipse cx="113.4124" cy="549.8102" rx="8.3887" ry="5.0894" transform="translate(-445.2999 495.0909) rotate(-72.7511)" fill="#fff"/>
      <ellipse cx="122.823" cy="578.8942" rx="8.2036" ry="4.4873" transform="translate(-316.8698 182.8207) rotate(-36.0089)" fill="#fff"/>
      <path d="M271.4417,528.35a23.1782,23.1782,0,0,1,2.217-4.0319c1.2808-1.3414,5.2376-2.3714,6.3291-3.871,1.5436-2.1208,2.0979-7.602,2.4581-10.2.4245-3.0615,1.0763-9.32.4831-12.3535-.4409-2.2541-2.7648-6.3139-3.7913-8.3685-4.0221-8.05-12.93-23.6985-17.2992-31.5654-3.8124-6.8648-10.4372-21.2907-15.4038-27.3728-2.0833-2.5513-6.8957-7.4156-9.959-8.6265-2.1975-.8687-7.3963-1.5475-9.4446-.3693-2.4743,1.4234-4.27,7.4449-5.35,10.0871-1.7883,4.3738-3.8636,13.6438-5.3791,18.1194-1.41,4.1647-8.2738,21.7059-8.6058,23.5487-.8664,4.81,1.2923,19.6136,1.2923,19.6136-.08,2.0561,1.849,10.5717,3.63,12.4975,1.9757,2.1365,9.4065,13.9807,13.75,17.0118C237.3683,530.1466,271.4417,528.35,271.4417,528.35Z" fill="#454136"/>
      <path d="M222.5772,514.0841a20.8068,20.8068,0,0,0,6.0076,4.3534c2.8626,1.2636,9.19,1.9167,12.2563,2.5386,4.5654.9257,13.8725,3.768,18.4247,2.78a14.115,14.115,0,0,0,5.9649-3.8853c1.3141-1.6953,2.5039-5.9982,2.742-8.13.4038-3.615-.5453-10.9614-1.4934-14.4732-1.1992-4.4421-5.57-12.6322-7.5813-16.7706-1.8126-3.73-5.6971-11.0618-7.6617-14.7144-1.1781-2.19-3.7024-6.48-4.8294-8.6975-1.2745-2.5074-3.2294-7.829-4.7276-10.21-.9-1.43-2.7873-4.4642-4.3015-5.2146-1.6711-.828-5.9312-1.3679-7.4541-.2914-5.9789,4.2262-7.4464,20.7534-8.6858,27.97-1.61,9.3767-3.1861,28.6659-1.4869,38.0269A20.1484,20.1484,0,0,0,222.5772,514.0841Z" fill="#d47c7b"/>
      <path d="M222.5772,514.0841a20.8068,20.8068,0,0,0,6.0076,4.3534c2.8626,1.2636,9.19,1.9167,12.2563,2.5386,4.5654.9257,13.8725,3.768,18.4247,2.78a14.115,14.115,0,0,0,5.9649-3.8853c1.3141-1.6953-3.0024-11.3072-5.9833-11.9641-3.4507-.76-21.7257-6.5993-30.4588-6.4567-5.65.0923-9.5251,3.2305-9.0376,5.9161A20.1484,20.1484,0,0,0,222.5772,514.0841Z" fill="#a74844"/>
      <path d="M165.649,495.384s4.1477-.7459,4.1926-1.8953c.09-2.2989-4.5144-8.5917-5.7664-10.5218-2.1447-3.3067-7.8038-8.8837-10.469-11.7873-4.223-4.6008-12.61-13.88-17.1911-18.124-3.7738-3.496-10.1589-9.38-13.91-12.9-1.5917-1.4934-6.0011-5.5766-7.9833-6.49-2.028-.9345-6.8683-1.2186-8.925-.349a8.5261,8.5261,0,0,0-3.5726,3.9789c-2.3777,8.144-1.9295,49.3469-1.9993,51.1319-.1107,2.8311,2.2443,8.2815,3.7,10.7125a58.8673,58.8673,0,0,0,5.8468,8.4657c1.4818,1.6024,5.8566,5.9994,7.9833,6.49C130.1257,516.9961,165.649,495.384,165.649,495.384Z" fill="#454136"/>
      <path d="M119.7711,510.0642c3.6291.7687,9.4857-5.82,12.6583-7.7421,2.7376-1.6586,13.2982-5.0512,16.4562-5.5732,1.6859-.2787,3.0171-4.18,2.5313-6.04-.8809-3.3727-4.685-9.3759-6.649-12.2557-2.8135-4.1256-9.7087-11.41-12.867-15.2779-3-3.6736-8.35-11.5936-11.774-14.8753-1.339-1.2833-4.1542-4.2809-6.0075-4.3534s-5.5656,2.1807-6.3292,3.8711c-1.0046,2.224,1.1238,15.411,1.3617,17.84.822,8.3929-.4616,17.2053,1.0622,25.5a51.07,51.07,0,0,0,3.71,10.4414C115.0959,503.8883,117.2548,509.5312,119.7711,510.0642Z" fill="#d47c7b"/>
      <path d="M119.7711,510.0642c3.6291.7687,9.4857-5.82,12.6583-7.7421,2.7376-1.6586,13.2982-5.0512,16.4562-5.5732,1.6859-.2787,3.0171-4.18,2.5313-6.04-.4526-1.7331-12.4885-5.71-22.1477-2.756-9.1379,2.7941-15.9583,12.4466-15.3449,13.6455C115.0959,503.8883,117.2548,509.5312,119.7711,510.0642Z" fill="#a74844"/>
    </g>
    <path d="M257.4314,728.5577s2.6353,4.8982,2.6,6.6929c-.0317,1.6328-2.1956,4.41-2.6,5.9924-.5234,2.0459-1.1771,6.3392-.7718,8.4117a17.5882,17.5882,0,0,0,3.3722,6.5122c1.84,1.9238,6.6134,4.8039,9.2257,5.3139,3.6965.7215,11.4408-.6249,14.9239-2.0577,2.3788-.9785,6.4421-4.3248,8.2308-6.1731,4.3668-4.5123,14.4039-20.5769,14.4039-20.5769h37.0384l-9.0018-10.2424L312.91,714.5023l-29.3468,4.8366Z" fill="#d2cfda"/>
    <path d="M279.2114,719.3247s8.6825,12.3994,8.4651,16.4462c-.14,2.6138-4.2309,2.8737-5.5527,5.1329-1.0711,1.8307-2.4673,6.15-2.0577,8.2308.74,3.758,5.7935,10.3643,9.0709,12.3462,2.9349,1.7746,10.1465,2.3509,13.5637,2.0577,3.2416-.2782,9.26-3.0866,12.3461-4.1154,1.5433-.5145,4.5476-4.053,6.1731-4.1154,2.12-.0814,6.1257,3.8562,8.2308,4.1154,2.5528.3142,7.8267.7453,10.2885,0,1.7512-.53,4.6844-.612,7.2769-2.7459,2.6632-2.1921,4.9669-6.4361,5.26-6.8661,1.8665-2.7342,3.9242-13.0227,4.1154-13.2488,1.6885-1.9969,9.2923-13.1222,9.2923-13.1222l-29.7477-12.79s-5.609,13.1657-6.78,14.5817c-1.076,1.3014-4.191,3.2825-5.8791,3.3257a7.8391,7.8391,0,0,1-4.1154-2.0577c-3.7639-3.877-10.09-17.5522-10.09-17.5522Z" fill="#fffeff"/>
  </g>
</svg>
