<svg id="Cones" xmlns="http://www.w3.org/2000/svg" width="2434" height="1151" viewBox="0 0 2434 1151">
  <g>
    <ellipse cx="1452.6703" cy="960.9341" rx="56" ry="13.1429" fill="#4a4f51"/>
    <ellipse cx="1536" cy="1011.8571" rx="56" ry="13.1429" fill="#4a4f51"/>
    <ellipse cx="1419.6703" cy="1052.9341" rx="56" ry="13.1429" fill="#4a4f51"/>
    <g>
      <g>
        <polygon points="1403.555 948.162 1442.041 798.5 1447.959 798.5 1486.064 948.162 1403.555 948.162" fill="#ed3232"/>
        <rect x="1393" y="936.8239" width="104" height="22.6761" rx="10" fill="#d32929"/>
        <polygon points="1480.089 924.352 1409.911 924.352 1414.138 905.077 1475.016 905.077 1480.089 924.352" fill="#f2e9e9"/>
        <polygon points="1469.098 881.268 1420.712 881.268 1425.15 861.993 1464.66 861.993 1469.098 881.268" fill="#f2e9e9"/>
        <polygon points="1459.46 841.585 1430.521 841.585 1435.805 822.31 1454.177 822.31 1459.46 841.585" fill="#f2e9e9"/>
      </g>
      <g>
        <polygon points="1368.555 1045.662 1407.041 896 1412.959 896 1451.064 1045.662 1368.555 1045.662" fill="#ed3232"/>
        <rect x="1358" y="1034.3239" width="104" height="22.6761" rx="10" fill="#d32929"/>
        <polygon points="1445.089 1021.852 1374.911 1021.852 1379.138 1002.577 1440.016 1002.577 1445.089 1021.852" fill="#f2e9e9"/>
        <polygon points="1434.098 978.768 1385.712 978.768 1390.15 959.493 1429.66 959.493 1434.098 978.768" fill="#f2e9e9"/>
        <polygon points="1424.46 939.085 1395.521 939.085 1400.805 919.81 1419.177 919.81 1424.46 939.085" fill="#f2e9e9"/>
      </g>
      <g>
        <polygon points="1486.555 1005.162 1525.041 855.5 1530.959 855.5 1569.064 1005.162 1486.555 1005.162" fill="#ed3232"/>
        <rect x="1476" y="993.8239" width="104" height="22.6761" rx="10" fill="#d32929"/>
        <polygon points="1563.089 981.352 1492.911 981.352 1497.138 962.077 1558.016 962.077 1563.089 981.352" fill="#f2e9e9"/>
        <polygon points="1552.098 938.268 1503.712 938.268 1508.15 918.993 1547.66 918.993 1552.098 938.268" fill="#f2e9e9"/>
        <polygon points="1542.46 898.585 1513.521 898.585 1518.805 879.31 1537.177 879.31 1542.46 898.585" fill="#f2e9e9"/>
      </g>
    </g>
  </g>
</svg>
