<svg id="Muro" xmlns="http://www.w3.org/2000/svg" width="2672" height="1907" viewBox="0 0 2672 1907">
  <rect x="222" y="1300" width="1962" height="186" fill="#d79d8a"/>
  <rect x="222" y="1300" width="53" height="24" fill="#bc5a40"/>
  <rect x="278" y="1300" width="53" height="24" fill="#cb6b50"/>
  <rect x="334" y="1300" width="53" height="24" fill="#bc5a40"/>
  <rect x="222" y="1327" width="26" height="24" fill="#cb6b50"/>
  <rect x="251" y="1327" width="53" height="24" fill="#bc5a40"/>
  <rect x="307" y="1327" width="53" height="24" fill="#bc5a40"/>
  <rect x="363" y="1327" width="53" height="24" fill="#cb6b50"/>
  <rect x="222" y="1354" width="39" height="24" fill="#bc5a40"/>
  <rect x="264" y="1354" width="53" height="24" fill="#cb6b50"/>
  <rect x="320" y="1354" width="53" height="24" fill="#bc5a40"/>
  <rect x="222" y="1381" width="53" height="24" fill="#bc5a40"/>
  <rect x="278" y="1381" width="53" height="24" fill="#cb6b50"/>
  <rect x="334" y="1381" width="53" height="24" fill="#cb6b50"/>
  <rect x="222" y="1408" width="39" height="24" fill="#cb6b50"/>
  <rect x="264" y="1408" width="53" height="24" fill="#bc5a40"/>
  <rect x="320" y="1408" width="53" height="24" fill="#cb6b50"/>
  <rect x="376" y="1408" width="53" height="24" fill="#bc5a40"/>
  <rect x="390" y="1381" width="53" height="24" fill="#bc5a40"/>
  <rect x="222" y="1435" width="26" height="24" fill="#bc5a40"/>
  <rect x="251" y="1435" width="53" height="24" fill="#cb6b50"/>
  <rect x="307" y="1435" width="53" height="24" fill="#bc5a40"/>
  <rect x="222" y="1462" width="53" height="24" fill="#cb6b50"/>
  <rect x="278" y="1462" width="53" height="24" fill="#bc5a40"/>
  <rect x="334" y="1462" width="53" height="24" fill="#bc5a40"/>
  <rect x="390" y="1462" width="53" height="24" fill="#cb6b50"/>
  <rect x="2128" y="1300" width="53" height="24" fill="#cb6b50"/>
  <rect x="2155" y="1327" width="27" height="24" fill="#cb6b50"/>
  <rect x="2170" y="1354" width="14" height="24" fill="#bc5a40"/>
  <rect x="2128" y="1381" width="53" height="24" fill="#bc5a40"/>
  <rect x="2170" y="1408" width="14" height="24" fill="#cb6b50"/>
  <rect x="2155" y="1435" width="29" height="24" fill="#bc5a40"/>
  <rect x="2128" y="1462" width="53" height="24" fill="#bc5a40"/>
  <rect x="363" y="1435" width="53" height="24" fill="#cb6b50"/>
  <rect x="376" y="1354" width="53" height="24" fill="#bc5a40"/>
  <rect x="390" y="1300" width="53" height="24" fill="#cb6b50"/>
  <rect x="2071" y="1300" width="53" height="24" fill="#bc5a40"/>
  <rect x="2099" y="1327" width="53" height="24" fill="#cb6b50"/>
  <rect x="2114" y="1354" width="53" height="24" fill="#cb6b50"/>
  <rect x="2072" y="1381" width="53" height="24" fill="#bc5a40"/>
  <rect x="2114" y="1408" width="53" height="24" fill="#bc5a40"/>
  <rect x="2099" y="1435" width="53" height="24" fill="#cb6b50"/>
  <rect x="2071" y="1462" width="53" height="24" fill="#cb6b50"/>
  <rect x="2043" y="1327" width="53" height="24" fill="#bc5a40"/>
  <rect x="2058" y="1354" width="53" height="24" fill="#bc5a40"/>
  <rect x="2016" y="1381" width="53" height="24" fill="#cb6b50"/>
  <rect x="2002" y="1354" width="53" height="24" fill="#cb6b50"/>
  <rect x="1987" y="1327" width="53" height="24" fill="#bc5a40"/>
  <rect x="2015" y="1300" width="53" height="24" fill="#cb6b50"/>
  <rect x="1958" y="1300" width="53" height="24" fill="#bc5a40"/>
  <rect x="2057" y="1408" width="53" height="24" fill="#cb6b50"/>
  <rect x="2043" y="1435" width="53" height="24" fill="#bc5a40"/>
  <rect x="1959" y="1381" width="53" height="24" fill="#cb6b50"/>
  <rect x="2001" y="1408" width="53" height="24" fill="#bc5a40"/>
  <rect x="2015" y="1462" width="53" height="24" fill="#bc5a40"/>
  <rect x="1987" y="1435" width="53" height="24" fill="#cb6b50"/>
  <rect x="1959" y="1462" width="53" height="24" fill="#cb6b50"/>
  <rect x="446" y="1300" width="53" height="24" fill="#cb6b50"/>
  <rect x="419" y="1327" width="53" height="24" fill="#bc5a40"/>
  <rect x="432" y="1354" width="53" height="24" fill="#cb6b50"/>
  <rect x="446" y="1381" width="53" height="24" fill="#cb6b50"/>
  <rect x="432" y="1408" width="53" height="24" fill="#bc5a40"/>
  <rect x="419" y="1435" width="53" height="24" fill="#bc5a40"/>
  <rect x="446" y="1462" width="53" height="24" fill="#bc5a40"/>
  <rect x="488" y="1408" width="53" height="24" fill="#cb6b50"/>
  <rect x="475" y="1327" width="53" height="24" fill="#cb6b50"/>
  <rect x="502" y="1300" width="53" height="24" fill="#bc5a40"/>
  <rect x="488" y="1354" width="53" height="24" fill="#bc5a40"/>
  <rect x="502" y="1381" width="53" height="24" fill="#bc5a40"/>
  <rect x="475" y="1435" width="53" height="24" fill="#bc5a40"/>
  <rect x="544" y="1408" width="53" height="24" fill="#bc5a40"/>
  <rect x="502" y="1462" width="53" height="24" fill="#cb6b50"/>
  <rect x="531" y="1435" width="53" height="24" fill="#cb6b50"/>
  <rect x="558" y="1300" width="53" height="24" fill="#cb6b50"/>
  <rect x="558" y="1462" width="53" height="24" fill="#cb6b50"/>
  <rect x="587" y="1435" width="53" height="24" fill="#bc5a40"/>
  <rect x="544" y="1354" width="53" height="24" fill="#cb6b50"/>
  <rect x="558" y="1381" width="53" height="24" fill="#cb6b50"/>
  <rect x="600" y="1408" width="53" height="24" fill="#cb6b50"/>
  <rect x="531" y="1327" width="53" height="24" fill="#bc5a40"/>
  <rect x="614" y="1462" width="53" height="24" fill="#bc5a40"/>
  <rect x="614" y="1381" width="53" height="24" fill="#bc5a40"/>
  <rect x="670" y="1381" width="53" height="24" fill="#bc5a40"/>
  <rect x="726" y="1381" width="53" height="24" fill="#cb6b50"/>
  <rect x="656" y="1408" width="53" height="24" fill="#cb6b50"/>
  <rect x="712" y="1408" width="53" height="24" fill="#bc5a40"/>
  <rect x="614" y="1300" width="53" height="24" fill="#bc5a40"/>
  <rect x="587" y="1327" width="53" height="24" fill="#cb6b50"/>
  <rect x="643" y="1327" width="53" height="24" fill="#bc5a40"/>
  <rect x="670" y="1300" width="53" height="24" fill="#cb6b50"/>
  <rect x="699" y="1327" width="53" height="24" fill="#cb6b50"/>
  <rect x="600" y="1354" width="53" height="24" fill="#bc5a40"/>
  <rect x="656" y="1354" width="53" height="24" fill="#cb6b50"/>
  <rect x="643" y="1435" width="53" height="24" fill="#cb6b50"/>
  <rect x="670" y="1462" width="53" height="24" fill="#cb6b50"/>
  <rect x="726" y="1462" width="53" height="24" fill="#bc5a40"/>
  <rect x="699" y="1435" width="53" height="24" fill="#bc5a40"/>
  <rect x="712" y="1354" width="53" height="24" fill="#cb6b50"/>
  <rect x="782" y="1381" width="53" height="24" fill="#bc5a40"/>
  <rect x="768" y="1408" width="53" height="24" fill="#cb6b50"/>
  <rect x="768" y="1354" width="53" height="24" fill="#bc5a40"/>
  <rect x="824" y="1354" width="53" height="24" fill="#cb6b50"/>
  <rect x="824" y="1408" width="53" height="24" fill="#bc5a40"/>
  <rect x="782" y="1462" width="53" height="24" fill="#cb6b50"/>
  <rect x="755" y="1435" width="53" height="24" fill="#cb6b50"/>
  <rect x="726" y="1300" width="53" height="24" fill="#bc5a40"/>
  <rect x="782" y="1300" width="53" height="24" fill="#bc5a40"/>
  <rect x="755" y="1327" width="53" height="24" fill="#bc5a40"/>
  <rect x="811" y="1327" width="53" height="24" fill="#cb6b50"/>
  <rect x="880" y="1354" width="53" height="24" fill="#bc5a40"/>
  <rect x="838" y="1462" width="53" height="24" fill="#bc5a40"/>
  <rect x="811" y="1435" width="53" height="24" fill="#cb6b50"/>
  <rect x="838" y="1381" width="53" height="24" fill="#cb6b50"/>
  <rect x="880" y="1408" width="53" height="24" fill="#cb6b50"/>
  <rect x="867" y="1435" width="53" height="24" fill="#bc5a40"/>
  <rect x="894" y="1462" width="53" height="24" fill="#bc5a40"/>
  <rect x="950" y="1462" width="53" height="24" fill="#cb6b50"/>
  <rect x="923" y="1435" width="53" height="24" fill="#cb6b50"/>
  <rect x="936" y="1408" width="53" height="24" fill="#bc5a40"/>
  <rect x="979" y="1435" width="53" height="24" fill="#bc5a40"/>
  <rect x="894" y="1381" width="53" height="24" fill="#bc5a40"/>
  <rect x="950" y="1381" width="53" height="24" fill="#cb6b50"/>
  <rect x="838" y="1300" width="53" height="24" fill="#cb6b50"/>
  <rect x="867" y="1327" width="53" height="24" fill="#cb6b50"/>
  <rect x="923" y="1327" width="53" height="24" fill="#bc5a40"/>
  <rect x="894" y="1300" width="53" height="24" fill="#bc5a40"/>
  <rect x="936" y="1354" width="53" height="24" fill="#cb6b50"/>
  <rect x="992" y="1408" width="53" height="24" fill="#cb6b50"/>
  <rect x="1035" y="1435" width="53" height="24" fill="#cb6b50"/>
  <rect x="1006" y="1462" width="53" height="24" fill="#bc5a40"/>
  <rect x="992" y="1354" width="53" height="24" fill="#bc5a40"/>
  <rect x="1048" y="1354" width="53" height="24" fill="#bc5a40"/>
  <rect x="979" y="1327" width="53" height="24" fill="#cb6b50"/>
  <rect x="950" y="1300" width="53" height="24" fill="#cb6b50"/>
  <rect x="1006" y="1381" width="53" height="24" fill="#bc5a40"/>
  <rect x="1048" y="1408" width="53" height="24" fill="#bc5a40"/>
  <rect x="1091" y="1435" width="53" height="24" fill="#bc5a40"/>
  <rect x="1062" y="1462" width="53" height="24" fill="#cb6b50"/>
  <rect x="1118" y="1462" width="53" height="24" fill="#bc5a40"/>
  <rect x="1147" y="1435" width="53" height="24" fill="#cb6b50"/>
  <rect x="1104" y="1408" width="53" height="24" fill="#bc5a40"/>
  <rect x="1062" y="1381" width="53" height="24" fill="#cb6b50"/>
  <rect x="1006" y="1300" width="53" height="24" fill="#bc5a40"/>
  <rect x="1035" y="1327" width="53" height="24" fill="#bc5a40"/>
  <rect x="1062" y="1300" width="53" height="24" fill="#cb6b50"/>
  <rect x="1104" y="1354" width="53" height="24" fill="#cb6b50"/>
  <rect x="1091" y="1327" width="53" height="24" fill="#cb6b50"/>
  <rect x="1118" y="1381" width="53" height="24" fill="#bc5a40"/>
  <rect x="1174" y="1381" width="53" height="24" fill="#cb6b50"/>
  <rect x="1160" y="1408" width="53" height="24" fill="#cb6b50"/>
  <rect x="1160" y="1354" width="53" height="24" fill="#bc5a40"/>
  <rect x="1174" y="1462" width="53" height="24" fill="#cb6b50"/>
  <rect x="1118" y="1300" width="53" height="24" fill="#bc5a40"/>
  <rect x="1147" y="1327" width="53" height="24" fill="#bc5a40"/>
  <rect x="1216" y="1408" width="53" height="24" fill="#bc5a40"/>
  <rect x="1203" y="1435" width="53" height="24" fill="#bc5a40"/>
  <rect x="1230" y="1462" width="53" height="24" fill="#bc5a40"/>
  <rect x="1174" y="1300" width="53" height="24" fill="#cb6b50"/>
  <rect x="1203" y="1327" width="53" height="24" fill="#cb6b50"/>
  <rect x="1216" y="1354" width="53" height="24" fill="#cb6b50"/>
  <rect x="1272" y="1408" width="53" height="24" fill="#cb6b50"/>
  <rect x="1259" y="1435" width="53" height="24" fill="#cb6b50"/>
  <rect x="1286" y="1462" width="53" height="24" fill="#cb6b50"/>
  <rect x="1230" y="1381" width="53" height="24" fill="#cb6b50"/>
  <rect x="1286" y="1381" width="53" height="24" fill="#bc5a40"/>
  <rect x="1230" y="1300" width="53" height="24" fill="#bc5a40"/>
  <rect x="1259" y="1327" width="53" height="24" fill="#bc5a40"/>
  <rect x="1272" y="1354" width="53" height="24" fill="#bc5a40"/>
  <rect x="1342" y="1462" width="53" height="24" fill="#cb6b50"/>
  <rect x="1315" y="1435" width="53" height="24" fill="#bc5a40"/>
  <rect x="1328" y="1408" width="53" height="24" fill="#bc5a40"/>
  <rect x="1286" y="1300" width="53" height="24" fill="#bc5a40"/>
  <rect x="1342" y="1300" width="53" height="24" fill="#cb6b50"/>
  <rect x="1315" y="1327" width="53" height="24" fill="#cb6b50"/>
  <rect x="1328" y="1354" width="53" height="24" fill="#cb6b50"/>
  <rect x="1342" y="1381" width="53" height="24" fill="#cb6b50"/>
  <rect x="1384" y="1408" width="53" height="24" fill="#cb6b50"/>
  <rect x="1371" y="1435" width="53" height="24" fill="#cb6b50"/>
  <rect x="1398" y="1462" width="53" height="24" fill="#bc5a40"/>
  <rect x="1427" y="1435" width="53" height="24" fill="#bc5a40"/>
  <rect x="1483" y="1435" width="53" height="24" fill="#bc5a40"/>
  <rect x="1398" y="1381" width="53" height="24" fill="#bc5a40"/>
  <rect x="1440" y="1408" width="53" height="24" fill="#bc5a40"/>
  <rect x="1398" y="1300" width="53" height="24" fill="#bc5a40"/>
  <rect x="1371" y="1327" width="53" height="24" fill="#bc5a40"/>
  <rect x="1384" y="1354" width="53" height="24" fill="#cb6b50"/>
  <rect x="1454" y="1300" width="53" height="24" fill="#cb6b50"/>
  <rect x="1427" y="1327" width="53" height="24" fill="#cb6b50"/>
  <rect x="1483" y="1327" width="53" height="24" fill="#cb6b50"/>
  <rect x="1440" y="1354" width="53" height="24" fill="#bc5a40"/>
  <rect x="1496" y="1354" width="53" height="24" fill="#cb6b50"/>
  <rect x="1454" y="1381" width="53" height="24" fill="#cb6b50"/>
  <rect x="1496" y="1408" width="53" height="24" fill="#cb6b50"/>
  <rect x="1454" y="1462" width="53" height="24" fill="#cb6b50"/>
  <rect x="1539" y="1435" width="53" height="24" fill="#cb6b50"/>
  <rect x="1510" y="1462" width="53" height="24" fill="#bc5a40"/>
  <rect x="1510" y="1300" width="53" height="24" fill="#bc5a40"/>
  <rect x="1539" y="1327" width="53" height="24" fill="#bc5a40"/>
  <rect x="1552" y="1354" width="53" height="24" fill="#bc5a40"/>
  <rect x="1510" y="1381" width="53" height="24" fill="#bc5a40"/>
  <rect x="1552" y="1408" width="53" height="24" fill="#bc5a40"/>
  <rect x="1595" y="1435" width="53" height="24" fill="#bc5a40"/>
  <rect x="1566" y="1462" width="53" height="24" fill="#cb6b50"/>
  <rect x="1622" y="1462" width="53" height="24" fill="#bc5a40"/>
  <rect x="1678" y="1462" width="53" height="24" fill="#bc5a40"/>
  <rect x="1651" y="1435" width="53" height="24" fill="#cb6b50"/>
  <rect x="1608" y="1408" width="53" height="24" fill="#cb6b50"/>
  <rect x="1664" y="1408" width="53" height="24" fill="#cb6b50"/>
  <rect x="1566" y="1381" width="53" height="24" fill="#cb6b50"/>
  <rect x="1608" y="1354" width="53" height="24" fill="#cb6b50"/>
  <rect x="1595" y="1327" width="53" height="24" fill="#cb6b50"/>
  <rect x="1566" y="1300" width="53" height="24" fill="#cb6b50"/>
  <rect x="1734" y="1462" width="53" height="24" fill="#cb6b50"/>
  <rect x="1790" y="1462" width="53" height="24" fill="#bc5a40"/>
  <rect x="1846" y="1462" width="53" height="24" fill="#cb6b50"/>
  <rect x="1707" y="1435" width="53" height="24" fill="#bc5a40"/>
  <rect x="1720" y="1408" width="53" height="24" fill="#bc5a40"/>
  <rect x="1622" y="1381" width="53" height="24" fill="#bc5a40"/>
  <rect x="1664" y="1354" width="53" height="24" fill="#bc5a40"/>
  <rect x="1720" y="1354" width="53" height="24" fill="#bc5a40"/>
  <rect x="1651" y="1327" width="53" height="24" fill="#bc5a40"/>
  <rect x="1622" y="1300" width="53" height="24" fill="#bc5a40"/>
  <rect x="1678" y="1300" width="53" height="24" fill="#cb6b50"/>
  <rect x="1707" y="1327" width="53" height="24" fill="#cb6b50"/>
  <rect x="1678" y="1381" width="53" height="24" fill="#cb6b50"/>
  <rect x="1776" y="1408" width="53" height="24" fill="#cb6b50"/>
  <rect x="1763" y="1435" width="53" height="24" fill="#cb6b50"/>
  <rect x="1734" y="1381" width="53" height="24" fill="#bc5a40"/>
  <rect x="1790" y="1381" width="53" height="24" fill="#bc5a40"/>
  <rect x="1846" y="1381" width="53" height="24" fill="#cb6b50"/>
  <rect x="1776" y="1354" width="53" height="24" fill="#cb6b50"/>
  <rect x="1763" y="1327" width="53" height="24" fill="#bc5a40"/>
  <rect x="1734" y="1300" width="53" height="24" fill="#bc5a40"/>
  <rect x="1832" y="1408" width="53" height="24" fill="#bc5a40"/>
  <rect x="1819" y="1435" width="53" height="24" fill="#bc5a40"/>
  <rect x="1832" y="1354" width="53" height="24" fill="#bc5a40"/>
  <rect x="1790" y="1300" width="53" height="24" fill="#cb6b50"/>
  <rect x="1819" y="1327" width="53" height="24" fill="#cb6b50"/>
  <rect x="1888" y="1354" width="53" height="24" fill="#cb6b50"/>
  <rect x="1888" y="1408" width="53" height="24" fill="#cb6b50"/>
  <rect x="1875" y="1435" width="53" height="24" fill="#cb6b50"/>
  <rect x="1846" y="1300" width="53" height="24" fill="#bc5a40"/>
  <rect x="1875" y="1327" width="53" height="24" fill="#bc5a40"/>
  <rect x="1902" y="1300" width="53" height="24" fill="#cb6b50"/>
  <rect x="1931" y="1327" width="53" height="24" fill="#cb6b50"/>
  <rect x="1944" y="1354" width="53" height="24" fill="#bc5a40"/>
  <rect x="1903" y="1381" width="53" height="24" fill="#bc5a40"/>
  <rect x="1944" y="1408" width="53" height="24" fill="#bc5a40"/>
  <rect x="1931" y="1435" width="53" height="24" fill="#bc5a40"/>
  <rect x="1902" y="1462" width="53" height="24" fill="#bc5a40"/>
</svg>
