<svg id="Lixo" xmlns="http://www.w3.org/2000/svg" width="2434" height="1151" viewBox="0 0 2434 1151">
  <g>
    <g>
      <path d="M747.0484,764.6741c.384,8.0084,6.4647,14.97,10.5452,20.96,6.8006,9.9833,29.16,3.3718,41.2757,2.7908,9.3383-.4477,21.3012-8.7645,27.2753-15.6181,6.4269-7.373,6.3572-16.6395,5.8265-27.7073-.4369-9.1113-19.8343-16.2753-24.9367-22.6546-6.8568-8.573-19.6-19.333-30.7144-18.8-11.6415.5582-12.9329,19.6045-18.8571,29.5247C753.5226,739.7672,746.6393,756.1437,747.0484,764.6741Z" fill="#161313"/>
      <path d="M771.6359,705.1118s-9.442-1.7719-10.9543-4.295c-.9312-1.5536-.38-5.8636.8475-7.1957,1.6356-1.7751,4.5642-4.1345,6.9676-3.9117,2.2811.2116,7.4313,3.4991,9.6894,3.113,3.759-.6429,9.233-9.2518,12.7453-7.7663,2.6131,1.1052,1.81,8.7968.5436,11.3356-1.6582,3.3239-12.2845,8.3578-12.2845,8.3578Z" fill="#161313"/>
      <path d="M757.8013,770.0339c3.8107,9.8116,14.199,11.0972,16.4435,10.2255s-4.5048-3.5706-8.3154-13.3823-2.8491-19.3388-5.0936-18.4671S753.9907,760.2222,757.8013,770.0339Z" fill="#3a3333"/>
      <polygon points="786.009 706.757 777.624 705.967 777.795 709.536 776.072 706.355 769.467 709.936 775.187 704.891 767.934 702.854 775.261 703.695 776.149 700.075 777.895 703.304 784.534 700.866 777.567 704.777 786.009 706.757" fill="#3a3333"/>
    </g>
    <g>
      <g>
        <polygon points="941.615 694.197 934.015 791.575 795.427 791.512 804.695 672.758 941.615 694.197" fill="#736565"/>
        <rect x="736.3397" y="730.2091" width="123.8797" height="3.5735" rx="1.5" transform="translate(6.3878 1470.8975) rotate(-85.5372)" fill="#736565"/>
        <rect x="888.9746" y="741.7879" width="100.0566" height="2.3823" rx="1" transform="translate(125.2114 1621.3227) rotate(-85.5372)" fill="#302625"/>
        <path d="M807.07,672.9433s-3.83,49.0915-2.7226,65.5c.4189,6.2048,2.8037,25.3091,3.62,30.1519,1.174,6.9607,6.5518,23.2121,6.5518,23.2121l-19.0933-.2955,9.2685-118.7539Z" fill="#594d4d"/>
      </g>
      <g>
        <rect x="867.7193" y="721.1496" width="8.12" height="112.1217" transform="translate(81.1213 1636.8121) rotate(-89.11)" fill="#5a4e4e"/>
        <rect x="870.4346" y="721.939" width="5.805" height="108.568" transform="translate(83.6421 1637.3977) rotate(-89.11)" fill="#655959"/>
      </g>
      <g>
        <rect x="873.9292" y="641.5844" width="8.12" height="112.1217" transform="translate(1691.5165 -74.2015) rotate(98.0355)" fill="#5a4e4e"/>
        <rect x="876.4725" y="644.5783" width="5.805" height="108.568" transform="translate(1694.301 -74.1865) rotate(98.0355)" fill="#655959"/>
      </g>
      <g>
        <rect x="869.2932" y="700.4118" width="8.12" height="112.1217" transform="translate(74.6114 1591.3429) rotate(-87.1651)" fill="#5a4e4e"/>
        <rect x="872.0411" y="701.2548" width="5.805" height="108.568" transform="translate(77.0559 1592.0437) rotate(-87.1651)" fill="#655959"/>
      </g>
      <g>
        <rect x="870.7762" y="681.4112" width="8.12" height="112.1217" transform="translate(71.5272 1552.2715) rotate(-85.5372)" fill="#5a4e4e"/>
        <rect x="873.55" y="682.2997" width="5.805" height="108.568" transform="translate(73.9034 1553.0637) rotate(-85.5372)" fill="#655959"/>
      </g>
      <g>
        <rect x="872.3373" y="662.5874" width="8.12" height="112.1217" transform="translate(1683.9758 -76.5526) rotate(96.0906)" fill="#5a4e4e"/>
        <rect x="874.921" y="665.5335" width="5.805" height="108.568" transform="translate(1686.7162 -76.6774) rotate(96.0906)" fill="#655959"/>
      </g>
    </g>
    <g>
      <path d="M794.7482,791.7162l-12.0743-.1876s2.677-5.734,2.7079-7.7219-2.4668-7.8022-2.4668-7.8022l12.0744.1875s-2.6771,5.7341-2.708,7.7219S794.7482,791.7162,794.7482,791.7162Z" fill="#e5e16c"/>
      <path d="M801.8555,778.4554c-.0144.9251-2.5672-1.3339-2.5672-1.3339l-4.2989-.9295-5.2283,3.37-1.6847-2.6142-5.2016,1.6445-1.6847-2.6141s-4.3611,3.08-4.3457,2.0891c.1073-6.9066,5.7262-8.1063,12.6328-7.999S801.9628,771.5487,801.8555,778.4554Z" fill="#d13030"/>
      <path d="M801.6813,789.6672c-.1072,6.9067-5.6994,6.3815-12.606,6.2742s-12.5124.2439-12.4051-6.6627c.0268-1.7267,6.0037,2.25,6.0037,2.25l1.7785-3.423,4.2721,2.6544,3.4766-1.6714,2.5605,1.7651S801.6969,788.6665,801.6813,789.6672Z" fill="#d13030"/>
      <polygon points="789.472 771.864 788.693 766.237 793.793 767.118 789.472 771.864" fill="#994d02"/>
    </g>
  </g>
</svg>
