<svg id="Árvore_3" data-name="Árvore 3" xmlns="http://www.w3.org/2000/svg" width="2672" height="1907" viewBox="0 0 2672 1907">
  <g>
    <g>
      <ellipse cx="538.8354" cy="1175.1234" rx="93.3269" ry="170.2637" fill="#8eb349"/>
      <path d="M471.7883,1175.1234c0-88.5743,33.3268-161.3406,75.9185-169.4933a52.2434,52.2434,0,0,0-8.8714-.77c-51.543,0-93.3269,76.23-93.3269,170.2637s41.7839,170.2638,93.3269,170.2638a52.2435,52.2435,0,0,0,8.8714-.77C505.1151,1336.4641,471.7883,1263.6977,471.7883,1175.1234Z" fill="#4e7f13"/>
    </g>
    <g>
      <polygon points="515.278 1488.887 562.454 1488.887 545.454 1181.887 533.135 1181.887 515.278 1488.887" fill="#613f2d"/>
      <polygon points="535.3 1276.678 550.692 1290.285 589.517 1235.187 585.497 1231.634 535.3 1276.678" fill="#613f2d"/>
      <polygon points="537.958 1324.444 551.36 1308.873 495.754 1270.78 492.255 1274.846 537.958 1324.444" fill="#613f2d"/>
    </g>
  </g>
</svg>
